{"glyphs":{"0":{"ha":909,"x_min":65,"x_max":844,"o":"m 455 -14 q 245 47 332 -14 q 112 225 158 109 q 65 505 65 341 q 112 784 65 668 q 245 962 159 900 q 455 1025 332 1025 q 664 962 577 1025 q 798 784 751 900 q 844 505 844 668 q 798 225 844 342 q 665 47 752 109 q 455 -14 578 -14 m 455 137 q 569 180 522 137 q 641 306 616 224 q 665 505 665 388 q 641 704 665 622 q 569 830 616 787 q 455 874 522 874 q 341 830 388 874 q 270 704 294 787 q 245 505 245 622 q 269 306 245 388 q 341 180 294 224 q 455 137 388 137 z "},"1":{"ha":574,"x_min":56,"x_max":477,"o":"m 477 1010 l 477 0 l 298 0 l 298 847 l 293 847 l 56 681 l 56 851 l 284 1010 l 477 1010 z "},"2":{"ha":854,"x_min":79,"x_max":777,"o":"m 83 0 l 83 132 l 437 471 q 521 560 487 521 q 573 636 555 599 q 591 719 591 674 q 569 803 591 768 q 509 858 547 839 q 421 877 471 877 q 330 856 369 877 q 271 794 292 834 q 250 700 250 755 l 79 700 q 122 871 79 798 q 244 984 166 944 q 423 1025 321 1025 q 601 986 524 1025 q 721 881 678 948 q 764 728 764 814 q 742 614 764 669 q 667 495 720 559 q 521 342 614 430 l 332 157 l 332 151 l 777 151 l 777 0 l 83 0 z "},"3":{"ha":876,"x_min":68,"x_max":811,"o":"m 439 -14 q 247 24 330 -14 q 117 131 164 63 q 68 286 71 198 l 249 286 q 276 206 251 240 q 342 154 300 172 q 438 136 385 136 q 536 156 494 136 q 603 210 578 175 q 627 290 627 244 q 602 372 627 336 q 531 427 577 407 q 420 446 485 446 l 332 446 l 332 586 l 420 586 q 515 604 474 586 q 578 655 555 623 q 601 732 601 688 q 581 809 601 777 q 525 860 561 842 q 439 878 488 878 q 351 861 391 878 q 288 810 311 843 q 262 732 264 778 l 90 732 q 137 884 91 819 q 262 987 183 950 q 441 1025 341 1025 q 616 987 541 1025 q 734 886 692 949 q 776 745 776 823 q 725 602 776 660 q 592 526 675 544 l 592 519 q 711 476 662 509 q 786 394 760 444 q 811 281 811 344 q 763 129 811 196 q 631 24 715 62 q 439 -14 547 -14 z "},"4":{"ha":918,"x_min":65,"x_max":857,"o":"m 65 197 l 65 340 l 500 1010 l 618 1010 l 618 810 l 548 810 l 249 351 l 249 345 l 857 345 l 857 197 l 65 197 m 552 0 l 552 240 l 554 305 l 554 1010 l 725 1010 l 725 0 l 552 0 z "},"5":{"ha":844,"x_min":65,"x_max":779,"o":"m 417 -14 q 239 24 317 -14 q 115 129 161 62 q 65 281 68 195 l 241 281 q 268 204 243 237 q 331 152 292 171 q 417 133 370 133 q 514 158 472 133 q 581 227 557 183 q 604 329 604 271 q 580 432 604 387 q 513 503 555 477 q 414 528 471 528 q 317 508 363 528 q 248 454 272 488 l 83 475 l 131 1010 l 725 1010 l 725 859 l 283 859 l 256 591 l 261 591 q 345 648 292 626 q 458 669 397 669 q 586 645 527 669 q 688 574 644 620 q 755 468 731 529 q 779 333 779 406 q 733 154 779 232 q 606 31 687 76 q 417 -14 524 -14 z "},"6":{"ha":878,"x_min":65,"x_max":813,"o":"m 450 -14 q 304 12 374 -14 q 181 97 235 39 q 96 248 127 155 q 65 476 65 342 q 92 706 65 605 q 171 879 119 808 q 295 987 222 950 q 460 1025 368 1025 q 629 988 555 1025 q 748 886 703 951 q 803 740 793 822 l 627 740 q 571 835 614 799 q 460 871 528 871 q 339 829 389 871 q 265 710 290 787 q 239 528 239 633 l 245 528 q 308 601 270 570 q 394 647 346 631 q 496 663 442 663 q 658 621 586 663 q 771 504 730 578 q 813 332 813 429 q 767 154 813 233 q 640 31 722 76 q 450 -14 558 -14 m 449 133 q 546 159 503 133 q 613 230 589 185 q 638 330 638 275 q 614 429 638 385 q 548 498 590 473 q 451 524 505 524 q 376 509 411 524 q 316 467 342 494 q 275 404 290 439 q 260 329 260 369 q 285 231 260 275 q 353 160 310 186 q 449 133 395 133 z "},"7":{"ha":789,"x_min":51,"x_max":738,"o":"m 120 0 l 551 853 l 551 859 l 51 859 l 51 1010 l 738 1010 l 738 855 l 307 0 l 120 0 z "},"8":{"ha":878,"x_min":65,"x_max":812,"o":"m 439 -14 q 245 23 329 -14 q 113 124 161 60 q 65 271 65 188 q 94 389 65 335 q 171 478 122 443 q 281 524 220 514 l 281 528 q 151 608 201 545 q 102 753 102 670 q 145 893 102 832 q 264 989 189 954 q 439 1025 340 1025 q 612 989 536 1025 q 732 893 688 954 q 776 753 776 832 q 726 608 776 670 q 596 528 676 545 l 596 524 q 706 478 657 514 q 784 389 755 442 q 812 271 812 335 q 765 124 812 188 q 632 23 717 60 q 439 -14 548 -14 m 439 125 q 538 145 496 125 q 604 200 581 165 q 627 283 627 236 q 603 369 627 332 q 536 428 578 407 q 439 450 493 450 q 341 428 384 450 q 274 370 298 407 q 250 283 250 332 q 273 200 250 236 q 339 145 296 165 q 439 125 381 125 m 439 587 q 522 606 486 587 q 579 659 558 625 q 600 736 600 692 q 580 813 600 781 q 523 865 559 846 q 439 883 486 883 q 354 865 391 883 q 297 813 317 846 q 277 736 277 781 q 298 659 277 692 q 355 606 318 625 q 439 587 391 587 z "},"9":{"ha":878,"x_min":65,"x_max":813,"o":"m 418 -15 q 249 22 323 -15 q 130 124 176 60 q 75 272 85 189 l 251 272 q 307 176 264 212 q 418 139 350 139 q 539 181 490 139 q 613 300 588 223 q 639 483 639 377 l 633 483 q 571 411 609 441 q 485 364 533 380 q 383 348 437 348 q 221 391 293 348 q 107 508 149 433 q 65 679 65 583 q 111 858 65 779 q 239 982 157 937 q 430 1025 321 1027 q 575 998 506 1025 q 697 913 644 971 q 782 763 751 856 q 813 535 813 669 q 786 304 813 406 q 708 131 759 203 q 583 22 656 60 q 418 -15 510 -15 m 427 488 q 502 503 467 488 q 563 545 537 518 q 604 608 589 572 q 618 683 618 643 q 594 781 618 736 q 527 851 569 825 q 430 878 484 878 q 333 852 376 878 q 266 781 290 826 q 241 682 241 736 q 265 583 241 627 q 331 513 289 539 q 427 488 374 488 z "},"\u0000":{"ha":698,"x_min":0,"x_max":0,"o":""},"A":{"ha":1000,"x_min":28,"x_max":972,"o":"m 28 0 l 382 1010 l 612 1010 l 972 0 l 774 0 l 595 526 q 539 709 568 608 q 475 941 511 810 l 516 941 q 454 708 481 809 q 401 526 426 606 l 225 0 l 28 0 m 235 248 l 235 395 l 764 395 l 764 248 l 235 248 z "},"Ä":{"ha":1000,"x_min":28,"x_max":972,"o":"m 28 0 l 382 1010 l 612 1010 l 972 0 l 774 0 l 595 526 q 539 709 568 608 q 475 941 511 810 l 516 941 q 454 708 481 809 q 401 526 426 606 l 225 0 l 28 0 m 235 248 l 235 395 l 764 395 l 764 248 l 235 248 m 648 1121 q 580 1148 608 1121 q 552 1215 552 1176 q 580 1281 552 1254 q 648 1308 608 1308 q 715 1281 688 1308 q 743 1215 743 1254 q 715 1148 743 1176 q 648 1121 688 1121 m 352 1121 q 284 1148 312 1121 q 256 1215 256 1176 q 284 1281 256 1254 q 352 1308 312 1308 q 420 1281 392 1308 q 448 1215 448 1254 q 420 1148 448 1176 q 352 1121 392 1121 z "},"Ã":{"ha":1000,"x_min":28,"x_max":972,"o":"m 28 0 l 382 1010 l 612 1010 l 972 0 l 774 0 l 595 526 q 539 709 568 608 q 475 941 511 810 l 516 941 q 454 708 481 809 q 401 526 426 606 l 225 0 l 28 0 m 235 248 l 235 395 l 764 395 l 764 248 l 235 248 m 593 1129 q 538 1139 563 1129 q 492 1162 513 1149 q 454 1184 471 1175 q 422 1194 437 1194 q 391 1177 401 1194 q 380 1133 381 1159 l 277 1133 q 314 1255 279 1211 q 408 1299 348 1299 q 462 1289 438 1299 q 506 1266 486 1279 q 544 1243 526 1253 q 578 1234 561 1234 q 609 1249 600 1234 q 621 1295 619 1264 l 722 1295 q 685 1173 721 1217 q 593 1129 650 1129 z "},"À":{"ha":1000,"x_min":28,"x_max":972,"o":"m 28 0 l 382 1010 l 612 1010 l 972 0 l 774 0 l 595 526 q 539 709 568 608 q 475 941 511 810 l 516 941 q 454 708 481 809 q 401 526 426 606 l 225 0 l 28 0 m 235 248 l 235 395 l 764 395 l 764 248 l 235 248 m 438 1106 l 296 1314 l 469 1314 l 566 1106 l 438 1106 z "},"Á":{"ha":1000,"x_min":28,"x_max":972,"o":"m 28 0 l 382 1010 l 612 1010 l 972 0 l 774 0 l 595 526 q 539 709 568 608 q 475 941 511 810 l 516 941 q 454 708 481 809 q 401 526 426 606 l 225 0 l 28 0 m 235 248 l 235 395 l 764 395 l 764 248 l 235 248 m 432 1106 l 530 1314 l 702 1314 l 559 1106 l 432 1106 z "},"Â":{"ha":1000,"x_min":28,"x_max":972,"o":"m 28 0 l 382 1010 l 612 1010 l 972 0 l 774 0 l 595 526 q 539 709 568 608 q 475 941 511 810 l 516 941 q 454 708 481 809 q 401 526 426 606 l 225 0 l 28 0 m 235 248 l 235 395 l 764 395 l 764 248 l 235 248 m 404 1114 l 249 1114 l 249 1119 l 427 1314 l 570 1314 l 750 1119 l 750 1114 l 595 1114 l 499 1231 l 404 1114 z "},"Å":{"ha":1000,"x_min":28,"x_max":972,"o":"m 28 0 l 382 1010 l 612 1010 l 972 0 l 774 0 l 595 526 q 539 709 568 608 q 475 941 511 810 l 516 941 q 454 708 481 809 q 401 526 426 606 l 225 0 l 28 0 m 235 248 l 235 395 l 764 395 l 764 248 l 235 248 m 499 1052 q 407 1074 448 1052 q 342 1134 366 1096 q 319 1217 319 1171 q 342 1301 319 1264 q 407 1361 366 1339 q 499 1383 448 1383 q 592 1361 551 1383 q 656 1301 633 1339 q 680 1217 680 1264 q 656 1134 680 1171 q 592 1074 633 1096 q 499 1052 551 1052 m 499 1140 q 556 1162 534 1140 q 578 1217 578 1184 q 556 1273 578 1251 q 499 1295 534 1295 q 443 1273 465 1295 q 420 1217 420 1251 q 443 1162 420 1184 q 499 1140 465 1140 z "},"Ǻ":{"ha":1000,"x_min":28,"x_max":972,"o":"m 28 0 l 382 1010 l 612 1010 l 972 0 l 774 0 l 595 526 q 539 709 568 608 q 475 941 511 810 l 516 941 q 454 708 481 809 q 401 526 426 606 l 225 0 l 28 0 m 235 248 l 235 395 l 764 395 l 764 248 l 235 248 m 439 1412 l 538 1546 l 693 1546 l 558 1412 l 439 1412 m 499 1051 q 407 1073 448 1051 q 342 1132 366 1095 q 319 1214 319 1168 q 342 1297 319 1260 q 407 1355 366 1333 q 499 1377 448 1377 q 592 1355 551 1377 q 656 1297 633 1333 q 680 1214 680 1260 q 656 1132 680 1168 q 592 1073 633 1095 q 499 1051 551 1051 m 499 1138 q 556 1160 534 1138 q 578 1214 578 1181 q 556 1269 578 1246 q 499 1291 534 1291 q 443 1269 465 1291 q 420 1214 420 1246 q 443 1160 420 1181 q 499 1138 465 1138 z "},"":{"ha":1000,"x_min":28,"x_max":1002,"o":"m 28 0 l 382 1010 l 612 1010 l 972 0 l 774 0 l 595 526 q 539 709 568 608 q 475 941 511 810 l 516 941 q 454 708 481 809 q 401 526 426 606 l 225 0 l 28 0 m 235 248 l 235 395 l 764 395 l 764 248 l 235 248 m 499 1052 q 407 1074 448 1052 q 342 1134 366 1096 q 319 1217 319 1171 q 342 1301 319 1264 q 407 1361 366 1339 q 499 1383 448 1383 q 592 1361 551 1383 q 656 1301 633 1339 q 680 1217 680 1264 q 656 1134 680 1171 q 592 1074 633 1096 q 499 1052 551 1052 m 499 1140 q 556 1162 534 1140 q 578 1217 578 1184 q 556 1273 578 1251 q 499 1295 534 1295 q 443 1273 465 1295 q 420 1217 420 1251 q 443 1162 420 1184 q 499 1140 465 1140 m 871 -291 q 744 -255 795 -291 q 693 -151 693 -218 q 721 -62 693 -103 q 792 13 748 -20 l 972 0 q 891 -60 920 -31 q 863 -124 863 -89 q 877 -160 863 -147 q 916 -174 890 -174 q 944 -170 931 -174 q 968 -161 957 -166 l 1002 -264 q 943 -283 979 -275 q 871 -291 907 -291 z "},"Ā":{"ha":1000,"x_min":28,"x_max":972,"o":"m 28 0 l 382 1010 l 612 1010 l 972 0 l 774 0 l 595 526 q 539 709 568 608 q 475 941 511 810 l 516 941 q 454 708 481 809 q 401 526 426 606 l 225 0 l 28 0 m 235 248 l 235 395 l 764 395 l 764 248 l 235 248 m 693 1270 l 693 1152 l 307 1152 l 307 1270 l 693 1270 z "},"Ă":{"ha":1000,"x_min":28,"x_max":972,"o":"m 28 0 l 382 1010 l 612 1010 l 972 0 l 774 0 l 595 526 q 539 709 568 608 q 475 941 511 810 l 516 941 q 454 708 481 809 q 401 526 426 606 l 225 0 l 28 0 m 235 248 l 235 395 l 764 395 l 764 248 l 235 248 m 499 1107 q 387 1135 437 1107 q 308 1208 337 1162 q 278 1312 278 1255 l 387 1312 q 419 1239 387 1267 q 499 1210 451 1210 q 579 1239 547 1210 q 611 1312 611 1267 l 720 1312 q 691 1208 720 1255 q 612 1135 662 1162 q 499 1107 562 1107 z "},"Ą":{"ha":1000,"x_min":28,"x_max":1002,"o":"m 28 0 l 382 1010 l 612 1010 l 972 0 l 774 0 l 595 526 q 539 709 568 608 q 475 941 511 810 l 516 941 q 454 708 481 809 q 401 526 426 606 l 225 0 l 28 0 m 235 248 l 235 395 l 764 395 l 764 248 l 235 248 m 871 -291 q 744 -255 795 -291 q 693 -151 693 -218 q 721 -62 693 -103 q 792 13 748 -20 l 972 0 q 891 -60 920 -31 q 863 -124 863 -89 q 877 -160 863 -147 q 916 -174 890 -174 q 944 -170 931 -174 q 968 -161 957 -166 l 1002 -264 q 943 -283 979 -275 q 871 -291 907 -291 z "},"Ǎ":{"ha":1000,"x_min":28,"x_max":972,"o":"m 28 0 l 382 1010 l 612 1010 l 972 0 l 774 0 l 595 526 q 539 709 568 608 q 475 941 511 810 l 516 941 q 454 708 481 809 q 401 526 426 606 l 225 0 l 28 0 m 235 248 l 235 395 l 764 395 l 764 248 l 235 248 m 404 1314 l 499 1198 l 595 1314 l 750 1314 l 750 1310 l 570 1114 l 427 1114 l 249 1310 l 249 1314 l 404 1314 z "},"Ǟ":{"ha":1000,"x_min":28,"x_max":972,"o":"m 28 0 l 382 1010 l 612 1010 l 972 0 l 774 0 l 595 526 q 539 709 568 608 q 475 941 511 810 l 516 941 q 454 708 481 809 q 401 526 426 606 l 225 0 l 28 0 m 235 248 l 235 395 l 764 395 l 764 248 l 235 248 m 648 1102 q 580 1129 608 1102 q 552 1196 552 1157 q 580 1262 552 1235 q 648 1289 608 1289 q 715 1262 688 1289 q 743 1196 743 1235 q 715 1129 743 1157 q 648 1102 688 1102 m 352 1102 q 284 1129 312 1102 q 256 1196 256 1157 q 284 1262 256 1235 q 352 1289 312 1289 q 420 1262 392 1289 q 448 1196 448 1235 q 420 1129 448 1157 q 352 1102 392 1102 m 693 1476 l 693 1375 l 307 1375 l 307 1476 l 693 1476 z "},"Ǡ":{"ha":1000,"x_min":28,"x_max":972,"o":"m 28 0 l 382 1010 l 612 1010 l 972 0 l 774 0 l 595 526 q 539 709 568 608 q 475 941 511 810 l 516 941 q 454 708 481 809 q 401 526 426 606 l 225 0 l 28 0 m 235 248 l 235 395 l 764 395 l 764 248 l 235 248 m 500 1099 q 428 1127 458 1099 q 398 1196 398 1156 q 428 1264 398 1236 q 500 1293 458 1293 q 573 1264 543 1293 q 604 1196 604 1236 q 573 1127 604 1156 q 500 1099 543 1099 m 694 1476 l 694 1375 l 307 1375 l 307 1476 l 694 1476 z "},"Ȁ":{"ha":1000,"x_min":28,"x_max":972,"o":"m 28 0 l 382 1010 l 612 1010 l 972 0 l 774 0 l 595 526 q 539 709 568 608 q 475 941 511 810 l 516 941 q 454 708 481 809 q 401 526 426 606 l 225 0 l 28 0 m 235 248 l 235 395 l 764 395 l 764 248 l 235 248 m 553 1106 l 437 1314 l 603 1314 l 681 1106 l 553 1106 m 323 1106 l 161 1314 l 336 1314 l 453 1106 l 323 1106 z "},"Ȃ":{"ha":1000,"x_min":28,"x_max":972,"o":"m 28 0 l 382 1010 l 612 1010 l 972 0 l 774 0 l 595 526 q 539 709 568 608 q 475 941 511 810 l 516 941 q 454 708 481 809 q 401 526 426 606 l 225 0 l 28 0 m 235 248 l 235 395 l 764 395 l 764 248 l 235 248 m 500 1324 q 616 1296 565 1324 q 696 1221 667 1268 q 726 1114 726 1173 l 616 1114 q 582 1190 616 1160 q 500 1219 548 1219 q 417 1190 451 1219 q 382 1114 382 1160 l 273 1114 q 303 1221 273 1173 q 384 1296 332 1268 q 500 1324 435 1324 z "},"Ȧ":{"ha":1000,"x_min":28,"x_max":972,"o":"m 28 0 l 382 1010 l 612 1010 l 972 0 l 774 0 l 595 526 q 539 709 568 608 q 475 941 511 810 l 516 941 q 454 708 481 809 q 401 526 426 606 l 225 0 l 28 0 m 235 248 l 235 395 l 764 395 l 764 248 l 235 248 m 499 1118 q 427 1146 456 1118 q 397 1215 397 1175 q 427 1283 397 1255 q 499 1311 456 1311 q 572 1283 542 1311 q 602 1215 602 1255 q 572 1146 602 1175 q 499 1118 542 1118 z "},"Ḁ":{"ha":1000,"x_min":28,"x_max":972,"o":"m 28 0 l 382 1010 l 612 1010 l 972 0 l 774 0 l 595 526 q 539 709 568 608 q 475 941 511 810 l 516 941 q 454 708 481 809 q 401 526 426 606 l 225 0 l 28 0 m 235 248 l 235 395 l 764 395 l 764 248 l 235 248 m 500 -361 q 412 -340 452 -361 q 350 -283 373 -319 q 327 -204 327 -248 q 350 -126 327 -161 q 412 -70 373 -90 q 500 -49 452 -49 q 587 -70 548 -49 q 649 -126 626 -90 q 673 -204 673 -161 q 649 -283 673 -248 q 587 -340 626 -319 q 500 -361 548 -361 m 500 -278 q 554 -257 532 -278 q 576 -204 576 -235 q 554 -153 576 -174 q 500 -132 532 -132 q 445 -153 467 -132 q 423 -204 423 -174 q 446 -257 423 -235 q 500 -278 468 -278 z "},"Ạ":{"ha":1000,"x_min":28,"x_max":972,"o":"m 28 0 l 382 1010 l 612 1010 l 972 0 l 774 0 l 595 526 q 539 709 568 608 q 475 941 511 810 l 516 941 q 454 708 481 809 q 401 526 426 606 l 225 0 l 28 0 m 235 248 l 235 395 l 764 395 l 764 248 l 235 248 m 500 -303 q 428 -275 458 -303 q 398 -206 398 -246 q 428 -138 398 -165 q 500 -110 458 -110 q 573 -138 543 -110 q 604 -206 604 -165 q 573 -275 604 -246 q 500 -303 543 -303 z "},"Ả":{"ha":1000,"x_min":28,"x_max":972,"o":"m 28 0 l 382 1010 l 612 1010 l 972 0 l 774 0 l 595 526 q 539 709 568 608 q 475 941 511 810 l 516 941 q 454 708 481 809 q 401 526 426 606 l 225 0 l 28 0 m 235 248 l 235 395 l 764 395 l 764 248 l 235 248 m 550 1106 l 438 1106 l 489 1198 q 491 1213 494 1208 q 478 1217 488 1217 l 375 1217 l 375 1314 l 479 1314 q 562 1300 531 1314 q 604 1264 592 1286 q 612 1214 616 1242 q 587 1159 607 1187 l 550 1106 z "},"Ấ":{"ha":1000,"x_min":28,"x_max":972,"o":"m 28 0 l 382 1010 l 612 1010 l 972 0 l 774 0 l 595 526 q 539 709 568 608 q 475 941 511 810 l 516 941 q 454 708 481 809 q 401 526 426 606 l 225 0 l 28 0 m 235 248 l 235 395 l 764 395 l 764 248 l 235 248 m 406 1097 l 252 1097 l 252 1101 l 430 1297 l 573 1297 l 753 1101 l 753 1097 l 597 1097 l 502 1213 l 406 1097 m 598 1344 l 689 1529 l 844 1529 l 713 1344 l 598 1344 z "},"Ầ":{"ha":1000,"x_min":28,"x_max":972,"o":"m 28 0 l 382 1010 l 612 1010 l 972 0 l 774 0 l 595 526 q 539 709 568 608 q 475 941 511 810 l 516 941 q 454 708 481 809 q 401 526 426 606 l 225 0 l 28 0 m 235 248 l 235 395 l 764 395 l 764 248 l 235 248 m 406 1097 l 252 1097 l 252 1101 l 430 1297 l 573 1297 l 753 1101 l 753 1097 l 597 1097 l 502 1213 l 406 1097 m 649 1344 l 519 1529 l 673 1529 l 764 1344 l 649 1344 z "},"Ẩ":{"ha":1000,"x_min":28,"x_max":972,"o":"m 28 0 l 382 1010 l 612 1010 l 972 0 l 774 0 l 595 526 q 539 709 568 608 q 475 941 511 810 l 516 941 q 454 708 481 809 q 401 526 426 606 l 225 0 l 28 0 m 235 248 l 235 395 l 764 395 l 764 248 l 235 248 m 406 1097 l 252 1097 l 252 1101 l 430 1297 l 573 1297 l 753 1101 l 753 1097 l 597 1097 l 502 1213 l 406 1097 m 699 1344 l 597 1344 l 640 1422 q 643 1436 646 1432 q 630 1440 640 1440 l 536 1440 l 536 1529 l 631 1529 q 723 1508 693 1529 q 754 1453 753 1486 q 730 1385 755 1420 l 699 1344 z "},"Ẫ":{"ha":1000,"x_min":28,"x_max":972,"o":"m 28 0 l 382 1010 l 612 1010 l 972 0 l 774 0 l 595 526 q 539 709 568 608 q 475 941 511 810 l 516 941 q 454 708 481 809 q 401 526 426 606 l 225 0 l 28 0 m 235 248 l 235 395 l 764 395 l 764 248 l 235 248 m 406 1097 l 252 1097 l 252 1101 l 430 1297 l 573 1297 l 753 1101 l 753 1097 l 597 1097 l 502 1213 l 406 1097 m 594 1357 q 539 1366 564 1357 q 494 1388 515 1375 q 456 1409 473 1400 q 423 1417 438 1417 q 393 1401 404 1417 q 382 1360 383 1384 l 279 1360 q 315 1473 281 1432 q 410 1514 350 1514 q 464 1505 440 1514 q 508 1484 488 1496 q 545 1463 528 1472 q 580 1454 563 1454 q 611 1468 601 1454 q 623 1512 621 1482 l 724 1512 q 687 1398 722 1439 q 594 1357 651 1357 z "},"Ậ":{"ha":1000,"x_min":28,"x_max":972,"o":"m 28 0 l 382 1010 l 612 1010 l 972 0 l 774 0 l 595 526 q 539 709 568 608 q 475 941 511 810 l 516 941 q 454 708 481 809 q 401 526 426 606 l 225 0 l 28 0 m 235 248 l 235 395 l 764 395 l 764 248 l 235 248 m 404 1114 l 249 1114 l 249 1119 l 427 1314 l 570 1314 l 750 1119 l 750 1114 l 595 1114 l 499 1231 l 404 1114 m 500 -303 q 428 -275 458 -303 q 398 -206 398 -246 q 428 -138 398 -165 q 500 -110 458 -110 q 573 -138 543 -110 q 604 -206 604 -165 q 573 -275 604 -246 q 500 -303 543 -303 z "},"Ắ":{"ha":1000,"x_min":28,"x_max":972,"o":"m 28 0 l 382 1010 l 612 1010 l 972 0 l 774 0 l 595 526 q 539 709 568 608 q 475 941 511 810 l 516 941 q 454 708 481 809 q 401 526 426 606 l 225 0 l 28 0 m 235 248 l 235 395 l 764 395 l 764 248 l 235 248 m 501 1090 q 389 1118 439 1090 q 310 1191 339 1145 q 280 1295 280 1238 l 389 1295 q 421 1222 389 1251 q 501 1193 453 1193 q 581 1222 549 1193 q 613 1295 613 1251 l 722 1295 q 693 1192 722 1238 q 614 1118 664 1145 q 501 1090 564 1090 m 442 1344 l 533 1529 l 688 1529 l 557 1344 l 442 1344 z "},"Ằ":{"ha":1000,"x_min":28,"x_max":972,"o":"m 28 0 l 382 1010 l 612 1010 l 972 0 l 774 0 l 595 526 q 539 709 568 608 q 475 941 511 810 l 516 941 q 454 708 481 809 q 401 526 426 606 l 225 0 l 28 0 m 235 248 l 235 395 l 764 395 l 764 248 l 235 248 m 498 1090 q 386 1118 435 1090 q 306 1192 336 1145 q 277 1295 277 1238 l 387 1295 q 418 1222 387 1251 q 498 1193 450 1193 q 578 1222 547 1193 q 610 1295 610 1251 l 719 1295 q 690 1191 719 1238 q 610 1118 661 1145 q 498 1090 560 1090 m 557 1344 l 442 1344 l 312 1529 l 467 1529 l 557 1344 z "},"Ẳ":{"ha":1000,"x_min":28,"x_max":972,"o":"m 28 0 l 382 1010 l 612 1010 l 972 0 l 774 0 l 595 526 q 539 709 568 608 q 475 941 511 810 l 516 941 q 454 708 481 809 q 401 526 426 606 l 225 0 l 28 0 m 235 248 l 235 395 l 764 395 l 764 248 l 235 248 m 501 1090 q 389 1118 439 1090 q 310 1191 339 1145 q 280 1295 280 1238 l 389 1295 q 421 1222 389 1251 q 501 1193 453 1193 q 581 1222 549 1193 q 613 1295 613 1251 l 722 1295 q 693 1192 722 1238 q 614 1118 664 1145 q 501 1090 564 1090 m 551 1344 l 450 1344 l 493 1422 q 495 1436 498 1432 q 483 1440 492 1440 l 389 1440 l 389 1529 l 484 1529 q 576 1508 546 1529 q 607 1453 606 1486 q 582 1385 608 1420 l 551 1344 z "},"Ẵ":{"ha":1000,"x_min":28,"x_max":972,"o":"m 28 0 l 382 1010 l 612 1010 l 972 0 l 774 0 l 595 526 q 539 709 568 608 q 475 941 511 810 l 516 941 q 454 708 481 809 q 401 526 426 606 l 225 0 l 28 0 m 235 248 l 235 395 l 764 395 l 764 248 l 235 248 m 498 1093 q 387 1120 437 1093 q 309 1194 338 1147 q 280 1296 280 1240 l 387 1296 q 418 1223 387 1252 q 498 1194 450 1194 q 579 1223 547 1194 q 610 1296 610 1252 l 718 1296 q 689 1194 718 1240 q 610 1120 660 1147 q 498 1093 561 1093 m 598 1357 q 543 1366 568 1357 q 497 1387 518 1375 q 459 1408 477 1399 q 427 1417 442 1417 q 397 1401 407 1417 q 385 1360 387 1384 l 283 1360 q 319 1473 285 1432 q 413 1514 353 1514 q 468 1505 444 1514 q 512 1484 492 1496 q 549 1462 532 1472 q 584 1453 566 1453 q 615 1468 605 1453 q 627 1512 625 1482 l 728 1512 q 690 1398 726 1439 q 598 1357 655 1357 z "},"Ặ":{"ha":1000,"x_min":28,"x_max":972,"o":"m 28 0 l 382 1010 l 612 1010 l 972 0 l 774 0 l 595 526 q 539 709 568 608 q 475 941 511 810 l 516 941 q 454 708 481 809 q 401 526 426 606 l 225 0 l 28 0 m 235 248 l 235 395 l 764 395 l 764 248 l 235 248 m 499 1107 q 387 1135 437 1107 q 308 1208 337 1162 q 278 1312 278 1255 l 387 1312 q 419 1239 387 1267 q 499 1210 451 1210 q 579 1239 547 1210 q 611 1312 611 1267 l 720 1312 q 691 1208 720 1255 q 612 1135 662 1162 q 499 1107 562 1107 m 500 -303 q 428 -275 458 -303 q 398 -206 398 -246 q 428 -138 398 -165 q 500 -110 458 -110 q 573 -138 543 -110 q 604 -206 604 -165 q 573 -275 604 -246 q 500 -303 543 -303 z "},"Α":{"ha":1000,"x_min":28,"x_max":972,"o":"m 28 0 l 382 1010 l 612 1010 l 972 0 l 774 0 l 595 526 q 539 709 568 608 q 475 941 511 810 l 516 941 q 454 708 481 809 q 401 526 426 606 l 225 0 l 28 0 m 235 248 l 235 395 l 764 395 l 764 248 l 235 248 z "},"Ά":{"ha":1000,"x_min":28,"x_max":972,"o":"m 28 0 l 382 1010 l 612 1010 l 972 0 l 774 0 l 595 526 q 539 709 568 608 q 475 941 511 810 l 516 941 q 454 708 481 809 q 401 526 426 606 l 225 0 l 28 0 m 235 248 l 235 395 l 764 395 l 764 248 l 235 248 m 54 803 l 77 1010 l 241 1010 l 163 803 l 54 803 z "},"Ἀ":{"ha":1028,"x_min":56,"x_max":1000,"o":"m 56 0 l 410 1010 l 640 1010 l 1000 0 l 802 0 l 623 526 q 567 709 596 608 q 503 941 538 810 l 544 941 q 481 708 509 809 q 429 526 454 606 l 253 0 l 56 0 m 263 248 l 263 395 l 792 395 l 792 248 l 263 248 m 93 806 l 84 806 l 84 861 l 94 861 q 146 871 129 861 q 164 905 164 882 q 147 933 164 924 q 97 943 130 943 l 66 943 l 66 1031 l 93 1031 q 221 1002 177 1031 q 266 919 266 972 q 221 835 266 864 q 93 806 176 806 z "},"Ἁ":{"ha":1035,"x_min":60,"x_max":1007,"o":"m 64 0 l 418 1010 l 647 1010 l 1007 0 l 809 0 l 630 526 q 575 709 604 608 q 511 941 546 810 l 551 941 q 489 708 517 809 q 436 526 461 606 l 260 0 l 64 0 m 271 248 l 271 395 l 800 395 l 800 248 l 271 248 m 233 791 q 105 820 150 791 q 60 904 60 849 q 105 987 60 958 q 233 1016 149 1016 l 260 1016 l 260 928 l 229 928 q 179 919 196 928 q 162 890 162 909 q 180 857 162 867 q 233 846 197 846 l 242 846 l 242 791 l 233 791 z "},"Ἂ":{"ha":1249,"x_min":51,"x_max":1221,"o":"m 277 0 l 631 1010 l 861 1010 l 1221 0 l 1023 0 l 844 526 q 788 709 817 608 q 724 941 760 810 l 765 941 q 703 708 730 809 q 650 526 675 606 l 474 0 l 277 0 m 484 248 l 484 395 l 1013 395 l 1013 248 l 484 248 m 78 791 l 69 791 l 69 846 l 79 846 q 132 857 114 846 q 149 890 149 867 q 132 919 149 909 q 82 928 115 928 l 51 928 l 51 1016 l 78 1016 q 207 987 162 1016 q 251 904 251 958 q 206 820 251 849 q 78 791 161 791 m 450 798 l 349 798 l 276 1010 l 428 1010 l 450 798 z "},"Ἃ":{"ha":1271,"x_min":51,"x_max":1242,"o":"m 299 0 l 653 1010 l 882 1010 l 1242 0 l 1044 0 l 865 526 q 810 709 839 608 q 746 941 781 810 l 787 941 q 724 708 752 809 q 671 526 696 606 l 496 0 l 299 0 m 506 248 l 506 395 l 1035 395 l 1035 248 l 506 248 m 224 791 q 96 820 140 791 q 51 904 51 849 q 95 987 51 958 q 224 1016 140 1016 l 251 1016 l 251 928 l 220 928 q 170 919 186 928 q 153 890 153 909 q 170 857 153 867 q 223 846 188 846 l 233 846 l 233 791 l 224 791 m 472 798 l 372 798 l 298 1010 l 450 1010 l 472 798 z "},"Ἄ":{"ha":1256,"x_min":51,"x_max":1227,"o":"m 284 0 l 638 1010 l 867 1010 l 1227 0 l 1029 0 l 850 526 q 795 709 824 608 q 731 941 766 810 l 772 941 q 709 708 737 809 q 656 526 682 606 l 481 0 l 284 0 m 491 248 l 491 395 l 1020 395 l 1020 248 l 491 248 m 78 791 l 69 791 l 69 846 l 79 846 q 132 857 114 846 q 149 890 149 867 q 132 919 149 909 q 82 928 115 928 l 51 928 l 51 1016 l 78 1016 q 207 987 162 1016 q 251 904 251 958 q 206 820 251 849 q 78 791 161 791 m 328 798 l 350 1010 l 502 1010 l 429 798 l 328 798 z "},"Ἅ":{"ha":1270,"x_min":51,"x_max":1242,"o":"m 299 0 l 653 1010 l 882 1010 l 1242 0 l 1044 0 l 865 526 q 810 709 839 608 q 746 941 781 810 l 787 941 q 724 708 752 809 q 671 526 696 606 l 496 0 l 299 0 m 506 248 l 506 395 l 1035 395 l 1035 248 l 506 248 m 224 791 q 96 820 140 791 q 51 904 51 849 q 95 987 51 958 q 224 1016 140 1016 l 251 1016 l 251 928 l 220 928 q 170 919 186 928 q 153 890 153 909 q 170 857 153 867 q 223 846 188 846 l 233 846 l 233 791 l 224 791 m 338 798 l 360 1010 l 512 1010 l 439 798 l 338 798 z "},"Ἆ":{"ha":1139,"x_min":51,"x_max":1110,"o":"m 167 0 l 521 1010 l 750 1010 l 1110 0 l 912 0 l 733 526 q 678 709 707 608 q 614 941 649 810 l 654 941 q 592 708 620 809 q 539 526 564 606 l 363 0 l 167 0 m 374 248 l 374 395 l 903 395 l 903 248 l 374 248 m 198 802 l 190 802 l 190 856 l 199 856 q 252 867 234 856 q 269 900 269 878 q 253 929 269 919 q 203 939 236 939 l 172 939 l 172 1026 l 198 1026 q 327 997 283 1026 q 371 914 371 968 q 327 830 371 859 q 198 802 282 802 m 363 1086 q 309 1096 334 1086 q 263 1118 284 1105 q 225 1139 243 1130 q 193 1149 208 1149 q 164 1132 174 1149 q 153 1090 154 1114 l 51 1090 q 87 1206 53 1164 q 180 1249 121 1249 q 234 1239 210 1249 q 277 1217 258 1230 q 314 1196 297 1205 q 349 1186 332 1186 q 379 1201 370 1186 q 392 1245 389 1215 l 492 1245 q 455 1129 490 1171 q 363 1086 420 1086 z "},"Ἇ":{"ha":1149,"x_min":51,"x_max":1122,"o":"m 178 0 l 532 1010 l 762 1010 l 1122 0 l 924 0 l 745 526 q 689 709 718 608 q 625 941 661 810 l 666 941 q 604 708 631 809 q 551 526 576 606 l 375 0 l 178 0 m 385 248 l 385 395 l 914 395 l 914 248 l 385 248 m 345 789 q 216 818 260 789 q 172 901 172 846 q 216 984 172 955 q 345 1013 260 1013 l 371 1013 l 371 926 l 340 926 q 290 916 307 926 q 273 887 273 906 q 291 854 273 865 q 343 843 309 843 l 353 843 l 353 789 l 345 789 m 363 1074 q 309 1083 334 1074 q 263 1105 284 1093 q 225 1126 243 1117 q 193 1136 208 1136 q 164 1119 174 1136 q 153 1077 154 1101 l 51 1077 q 87 1193 53 1151 q 180 1236 121 1236 q 234 1226 210 1236 q 277 1204 258 1217 q 314 1183 297 1192 q 349 1173 332 1173 q 379 1188 370 1173 q 392 1232 389 1202 l 492 1232 q 455 1116 490 1158 q 363 1074 420 1074 z "},"Ᾰ":{"ha":1000,"x_min":28,"x_max":972,"o":"m 28 0 l 382 1010 l 612 1010 l 972 0 l 774 0 l 595 526 q 539 709 568 608 q 475 941 511 810 l 516 941 q 454 708 481 809 q 401 526 426 606 l 225 0 l 28 0 m 235 248 l 235 395 l 764 395 l 764 248 l 235 248 m 499 1107 q 387 1135 437 1107 q 308 1208 337 1162 q 278 1312 278 1255 l 387 1312 q 419 1239 387 1267 q 499 1210 451 1210 q 579 1239 547 1210 q 611 1312 611 1267 l 720 1312 q 691 1208 720 1255 q 612 1135 662 1162 q 499 1107 562 1107 z "},"Ᾱ":{"ha":1000,"x_min":28,"x_max":972,"o":"m 28 0 l 382 1010 l 612 1010 l 972 0 l 774 0 l 595 526 q 539 709 568 608 q 475 941 511 810 l 516 941 q 454 708 481 809 q 401 526 426 606 l 225 0 l 28 0 m 235 248 l 235 395 l 764 395 l 764 248 l 235 248 m 693 1270 l 693 1152 l 307 1152 l 307 1270 l 693 1270 z "},"Ὰ":{"ha":1000,"x_min":-32,"x_max":972,"o":"m 28 0 l 382 1010 l 612 1010 l 972 0 l 774 0 l 595 526 q 539 709 568 608 q 475 941 511 810 l 516 941 q 454 708 481 809 q 401 526 426 606 l 225 0 l 28 0 m 235 248 l 235 395 l 764 395 l 764 248 l 235 248 m 155 842 l 46 842 l -32 1049 l 132 1049 l 155 842 z "},"Ⱥ":{"ha":1000,"x_min":28,"x_max":972,"o":"m 774 1138 l 348 -129 l 257 -129 l 683 1138 l 774 1138 m 28 0 l 382 1010 l 612 1010 l 972 0 l 774 0 l 595 526 q 539 709 568 608 q 475 941 511 810 l 516 941 q 454 708 481 809 q 401 526 426 606 l 225 0 l 28 0 m 235 248 l 235 395 l 764 395 l 764 248 l 235 248 z "},"Ά":{"ha":1039,"x_min":67,"x_max":1010,"o":"m 67 0 l 421 1010 l 650 1010 l 1010 0 l 812 0 l 633 526 q 578 709 607 608 q 514 941 549 810 l 555 941 q 492 708 520 809 q 439 526 465 606 l 264 0 l 67 0 m 274 248 l 274 395 l 803 395 l 803 248 l 274 248 m 93 803 l 116 1010 l 279 1010 l 201 803 l 93 803 z "},"А":{"ha":1000,"x_min":28,"x_max":972,"o":"m 28 0 l 382 1010 l 612 1010 l 972 0 l 774 0 l 595 526 q 539 709 568 608 q 475 941 511 810 l 516 941 q 454 708 481 809 q 401 526 426 606 l 225 0 l 28 0 m 235 248 l 235 395 l 764 395 l 764 248 l 235 248 z "},"Ӑ":{"ha":1000,"x_min":28,"x_max":972,"o":"m 28 0 l 382 1010 l 612 1010 l 972 0 l 774 0 l 595 526 q 539 709 568 608 q 475 941 511 810 l 516 941 q 454 708 481 809 q 401 526 426 606 l 225 0 l 28 0 m 235 248 l 235 395 l 764 395 l 764 248 l 235 248 m 499 1107 q 387 1135 437 1107 q 308 1208 337 1162 q 278 1312 278 1255 l 387 1312 q 419 1239 387 1267 q 499 1210 451 1210 q 579 1239 547 1210 q 611 1312 611 1267 l 720 1312 q 691 1208 720 1255 q 612 1135 662 1162 q 499 1107 562 1107 z "},"Ӓ":{"ha":1000,"x_min":28,"x_max":972,"o":"m 28 0 l 382 1010 l 612 1010 l 972 0 l 774 0 l 595 526 q 539 709 568 608 q 475 941 511 810 l 516 941 q 454 708 481 809 q 401 526 426 606 l 225 0 l 28 0 m 235 248 l 235 395 l 764 395 l 764 248 l 235 248 m 648 1121 q 580 1148 608 1121 q 552 1215 552 1176 q 580 1281 552 1254 q 648 1308 608 1308 q 715 1281 688 1308 q 743 1215 743 1254 q 715 1148 743 1176 q 648 1121 688 1121 m 352 1121 q 284 1148 312 1121 q 256 1215 256 1176 q 284 1281 256 1254 q 352 1308 312 1308 q 420 1281 392 1308 q 448 1215 448 1254 q 420 1148 448 1176 q 352 1121 392 1121 z "},"ᾈ":{"ha":1028,"x_min":56,"x_max":1000,"o":"m 56 0 l 410 1010 l 640 1010 l 1000 0 l 802 0 l 623 526 q 567 709 596 608 q 503 941 538 810 l 544 941 q 481 708 509 809 q 429 526 454 606 l 253 0 l 56 0 m 263 248 l 263 395 l 792 395 l 792 248 l 263 248 m 585 -332 q 491 -299 523 -332 q 459 -205 459 -265 l 459 -80 l 596 -80 l 596 -197 q 604 -232 596 -221 q 633 -242 611 -242 q 647 -241 640 -242 q 665 -240 654 -241 l 665 -326 q 627 -331 649 -329 q 585 -332 604 -332 m 93 806 l 84 806 l 84 861 l 94 861 q 146 871 129 861 q 164 905 164 882 q 147 933 164 924 q 97 943 130 943 l 66 943 l 66 1031 l 93 1031 q 221 1002 177 1031 q 266 919 266 972 q 221 835 266 864 q 93 806 176 806 z "},"ᾉ":{"ha":1035,"x_min":60,"x_max":1007,"o":"m 64 0 l 418 1010 l 647 1010 l 1007 0 l 809 0 l 630 526 q 575 709 604 608 q 511 941 546 810 l 551 941 q 489 708 517 809 q 436 526 461 606 l 260 0 l 64 0 m 271 248 l 271 395 l 800 395 l 800 248 l 271 248 m 592 -332 q 498 -299 530 -332 q 466 -205 466 -265 l 466 -80 l 603 -80 l 603 -197 q 610 -232 603 -221 q 640 -242 618 -242 q 654 -241 646 -242 q 671 -240 661 -241 l 671 -326 q 633 -331 656 -329 q 592 -332 611 -332 m 233 791 q 105 820 150 791 q 60 904 60 849 q 105 987 60 958 q 233 1016 149 1016 l 260 1016 l 260 928 l 229 928 q 179 919 196 928 q 162 890 162 909 q 180 857 162 867 q 233 846 197 846 l 242 846 l 242 791 l 233 791 z "},"ᾊ":{"ha":1249,"x_min":51,"x_max":1221,"o":"m 277 0 l 631 1010 l 861 1010 l 1221 0 l 1023 0 l 844 526 q 788 709 817 608 q 724 941 760 810 l 765 941 q 703 708 730 809 q 650 526 675 606 l 474 0 l 277 0 m 484 248 l 484 395 l 1013 395 l 1013 248 l 484 248 m 806 -332 q 711 -299 743 -332 q 680 -205 680 -265 l 680 -80 l 817 -80 l 817 -197 q 824 -232 817 -221 q 853 -242 831 -242 q 867 -241 860 -242 q 885 -240 875 -241 l 885 -326 q 847 -331 869 -329 q 806 -332 825 -332 m 78 791 l 69 791 l 69 846 l 79 846 q 132 857 114 846 q 149 890 149 867 q 132 919 149 909 q 82 928 115 928 l 51 928 l 51 1016 l 78 1016 q 207 987 162 1016 q 251 904 251 958 q 206 820 251 849 q 78 791 161 791 m 450 798 l 349 798 l 276 1010 l 428 1010 l 450 798 z "},"ᾋ":{"ha":1271,"x_min":51,"x_max":1242,"o":"m 299 0 l 653 1010 l 882 1010 l 1242 0 l 1044 0 l 865 526 q 810 709 839 608 q 746 941 781 810 l 787 941 q 724 708 752 809 q 671 526 696 606 l 496 0 l 299 0 m 506 248 l 506 395 l 1035 395 l 1035 248 l 506 248 m 827 -332 q 733 -299 765 -332 q 701 -205 701 -265 l 701 -80 l 838 -80 l 838 -197 q 846 -232 838 -221 q 875 -242 853 -242 q 889 -241 882 -242 q 907 -240 897 -241 l 907 -326 q 869 -331 891 -329 q 827 -332 846 -332 m 224 791 q 96 820 140 791 q 51 904 51 849 q 95 987 51 958 q 224 1016 140 1016 l 251 1016 l 251 928 l 220 928 q 170 919 186 928 q 153 890 153 909 q 170 857 153 867 q 223 846 188 846 l 233 846 l 233 791 l 224 791 m 472 798 l 372 798 l 298 1010 l 450 1010 l 472 798 z "},"ᾌ":{"ha":1256,"x_min":51,"x_max":1227,"o":"m 284 0 l 638 1010 l 867 1010 l 1227 0 l 1029 0 l 850 526 q 795 709 824 608 q 731 941 766 810 l 772 941 q 709 708 737 809 q 656 526 682 606 l 481 0 l 284 0 m 491 248 l 491 395 l 1020 395 l 1020 248 l 491 248 m 78 791 l 69 791 l 69 846 l 79 846 q 132 857 114 846 q 149 890 149 867 q 132 919 149 909 q 82 928 115 928 l 51 928 l 51 1016 l 78 1016 q 207 987 162 1016 q 251 904 251 958 q 206 820 251 849 q 78 791 161 791 m 328 798 l 350 1010 l 502 1010 l 429 798 l 328 798 m 812 -332 q 718 -299 750 -332 q 686 -205 686 -265 l 686 -80 l 823 -80 l 823 -197 q 831 -232 823 -221 q 860 -242 838 -242 q 874 -241 867 -242 q 892 -240 882 -241 l 892 -326 q 854 -331 876 -329 q 812 -332 831 -332 z "},"ᾍ":{"ha":1270,"x_min":51,"x_max":1242,"o":"m 299 0 l 653 1010 l 882 1010 l 1242 0 l 1044 0 l 865 526 q 810 709 839 608 q 746 941 781 810 l 787 941 q 724 708 752 809 q 671 526 696 606 l 496 0 l 299 0 m 506 248 l 506 395 l 1035 395 l 1035 248 l 506 248 m 827 -332 q 733 -299 765 -332 q 701 -205 701 -265 l 701 -80 l 838 -80 l 838 -197 q 846 -232 838 -221 q 875 -242 853 -242 q 889 -241 882 -242 q 907 -240 897 -241 l 907 -326 q 869 -331 891 -329 q 827 -332 846 -332 m 224 791 q 96 820 140 791 q 51 904 51 849 q 95 987 51 958 q 224 1016 140 1016 l 251 1016 l 251 928 l 220 928 q 170 919 186 928 q 153 890 153 909 q 170 857 153 867 q 223 846 188 846 l 233 846 l 233 791 l 224 791 m 338 798 l 360 1010 l 512 1010 l 439 798 l 338 798 z "},"ᾎ":{"ha":1139,"x_min":51,"x_max":1110,"o":"m 167 0 l 521 1010 l 750 1010 l 1110 0 l 912 0 l 733 526 q 678 709 707 608 q 614 941 649 810 l 654 941 q 592 708 620 809 q 539 526 564 606 l 363 0 l 167 0 m 374 248 l 374 395 l 903 395 l 903 248 l 374 248 m 198 802 l 190 802 l 190 856 l 199 856 q 252 867 234 856 q 269 900 269 878 q 253 929 269 919 q 203 939 236 939 l 172 939 l 172 1026 l 198 1026 q 327 997 283 1026 q 371 914 371 968 q 327 830 371 859 q 198 802 282 802 m 363 1086 q 309 1096 334 1086 q 263 1118 284 1105 q 225 1139 243 1130 q 193 1149 208 1149 q 164 1132 174 1149 q 153 1090 154 1114 l 51 1090 q 87 1206 53 1164 q 180 1249 121 1249 q 234 1239 210 1249 q 277 1217 258 1230 q 314 1196 297 1205 q 349 1186 332 1186 q 379 1201 370 1186 q 392 1245 389 1215 l 492 1245 q 455 1129 490 1171 q 363 1086 420 1086 m 695 -332 q 601 -299 633 -332 q 569 -205 569 -265 l 569 -80 l 706 -80 l 706 -197 q 713 -232 706 -221 q 743 -242 721 -242 q 757 -241 749 -242 q 774 -240 764 -241 l 774 -326 q 736 -331 759 -329 q 695 -332 714 -332 z "},"ᾏ":{"ha":1149,"x_min":51,"x_max":1122,"o":"m 178 0 l 532 1010 l 762 1010 l 1122 0 l 924 0 l 745 526 q 689 709 718 608 q 625 941 661 810 l 666 941 q 604 708 631 809 q 551 526 576 606 l 375 0 l 178 0 m 385 248 l 385 395 l 914 395 l 914 248 l 385 248 m 707 -332 q 612 -299 644 -332 q 581 -205 581 -265 l 581 -80 l 718 -80 l 718 -197 q 725 -232 718 -221 q 754 -242 732 -242 q 768 -241 761 -242 q 786 -240 776 -241 l 786 -326 q 748 -331 770 -329 q 707 -332 726 -332 m 345 789 q 216 818 260 789 q 172 901 172 846 q 216 984 172 955 q 345 1013 260 1013 l 371 1013 l 371 926 l 340 926 q 290 916 307 926 q 273 887 273 906 q 291 854 273 865 q 343 843 309 843 l 353 843 l 353 789 l 345 789 m 363 1074 q 309 1083 334 1074 q 263 1105 284 1093 q 225 1126 243 1117 q 193 1136 208 1136 q 164 1119 174 1136 q 153 1077 154 1101 l 51 1077 q 87 1193 53 1151 q 180 1236 121 1236 q 234 1226 210 1236 q 277 1204 258 1217 q 314 1183 297 1192 q 349 1173 332 1173 q 379 1188 370 1173 q 392 1232 389 1202 l 492 1232 q 455 1116 490 1158 q 363 1074 420 1074 z "},"ᾼ":{"ha":1000,"x_min":28,"x_max":972,"o":"m 28 0 l 382 1010 l 612 1010 l 972 0 l 774 0 l 595 526 q 539 709 568 608 q 475 941 511 810 l 516 941 q 454 708 481 809 q 401 526 426 606 l 225 0 l 28 0 m 235 248 l 235 395 l 764 395 l 764 248 l 235 248 m 557 -332 q 463 -299 494 -332 q 431 -205 431 -265 l 431 -80 l 568 -80 l 568 -197 q 575 -232 568 -221 q 604 -242 583 -242 q 618 -241 611 -242 q 636 -240 626 -241 l 636 -326 q 598 -331 621 -329 q 557 -332 576 -332 z "},"Λ":{"ha":1000,"x_min":28,"x_max":972,"o":"m 28 0 l 382 1010 l 612 1010 l 972 0 l 774 0 l 595 526 q 539 709 568 608 q 475 941 511 810 l 516 941 q 454 708 481 809 q 401 526 426 606 l 225 0 l 28 0 z "},"Æ":{"ha":1403,"x_min":28,"x_max":1331,"o":"m 28 0 l 477 1010 l 1328 1010 l 1328 857 l 843 857 l 843 583 l 1293 583 l 1293 432 l 843 432 l 843 153 l 1331 153 l 1331 0 l 669 0 l 669 886 l 606 886 l 225 0 l 28 0 m 263 256 l 263 393 l 756 393 l 756 256 l 263 256 z "},"Ǣ":{"ha":1403,"x_min":28,"x_max":1331,"o":"m 28 0 l 477 1010 l 1328 1010 l 1328 857 l 843 857 l 843 583 l 1293 583 l 1293 432 l 843 432 l 843 153 l 1331 153 l 1331 0 l 669 0 l 669 886 l 606 886 l 225 0 l 28 0 m 263 256 l 263 393 l 756 393 l 756 256 l 263 256 m 1098 1270 l 1098 1152 l 711 1152 l 711 1270 l 1098 1270 z "},"Ǽ":{"ha":1403,"x_min":28,"x_max":1331,"o":"m 28 0 l 477 1010 l 1328 1010 l 1328 857 l 843 857 l 843 583 l 1293 583 l 1293 432 l 843 432 l 843 153 l 1331 153 l 1331 0 l 669 0 l 669 886 l 606 886 l 225 0 l 28 0 m 263 256 l 263 393 l 756 393 l 756 256 l 263 256 m 837 1106 l 935 1314 l 1107 1314 l 964 1106 l 837 1106 z "},"Ӕ":{"ha":1403,"x_min":28,"x_max":1331,"o":"m 28 0 l 477 1010 l 1328 1010 l 1328 857 l 843 857 l 843 583 l 1293 583 l 1293 432 l 843 432 l 843 153 l 1331 153 l 1331 0 l 669 0 l 669 886 l 606 886 l 225 0 l 28 0 m 263 256 l 263 393 l 756 393 l 756 256 l 263 256 z "},"B":{"ha":910,"x_min":98,"x_max":852,"o":"m 98 0 l 98 1010 l 486 1010 q 667 977 594 1010 q 777 883 740 943 q 813 748 813 824 q 790 643 813 687 q 727 572 767 600 q 637 532 688 544 l 637 524 q 742 490 692 520 q 822 406 791 460 q 852 277 852 353 q 814 135 852 197 q 699 36 776 72 q 506 0 622 0 l 98 0 m 278 150 l 479 150 q 624 189 578 150 q 669 290 669 227 q 647 371 669 335 q 583 427 625 406 q 485 448 542 448 l 278 448 l 278 150 m 278 581 l 466 581 q 552 598 514 581 q 612 648 590 616 q 633 725 633 680 q 591 823 633 785 q 469 861 549 861 l 278 861 l 278 581 z "},"Ḃ":{"ha":910,"x_min":98,"x_max":852,"o":"m 98 0 l 98 1010 l 486 1010 q 667 977 594 1010 q 777 883 740 943 q 813 748 813 824 q 790 643 813 687 q 727 572 767 600 q 637 532 688 544 l 637 524 q 742 490 692 520 q 822 406 791 460 q 852 277 852 353 q 814 135 852 197 q 699 36 776 72 q 506 0 622 0 l 98 0 m 278 150 l 479 150 q 624 189 578 150 q 669 290 669 227 q 647 371 669 335 q 583 427 625 406 q 485 448 542 448 l 278 448 l 278 150 m 278 581 l 466 581 q 552 598 514 581 q 612 648 590 616 q 633 725 633 680 q 591 823 633 785 q 469 861 549 861 l 278 861 l 278 581 m 439 1118 q 367 1146 397 1118 q 337 1215 337 1175 q 367 1283 337 1255 q 439 1311 397 1311 q 512 1283 482 1311 q 543 1215 543 1255 q 512 1146 543 1175 q 439 1118 482 1118 z "},"Ḅ":{"ha":910,"x_min":98,"x_max":852,"o":"m 98 0 l 98 1010 l 486 1010 q 667 977 594 1010 q 777 883 740 943 q 813 748 813 824 q 790 643 813 687 q 727 572 767 600 q 637 532 688 544 l 637 524 q 742 490 692 520 q 822 406 791 460 q 852 277 852 353 q 814 135 852 197 q 699 36 776 72 q 506 0 622 0 l 98 0 m 278 150 l 479 150 q 624 189 578 150 q 669 290 669 227 q 647 371 669 335 q 583 427 625 406 q 485 448 542 448 l 278 448 l 278 150 m 278 581 l 466 581 q 552 598 514 581 q 612 648 590 616 q 633 725 633 680 q 591 823 633 785 q 469 861 549 861 l 278 861 l 278 581 m 444 -303 q 371 -275 401 -303 q 341 -206 341 -246 q 371 -138 341 -165 q 444 -110 401 -110 q 516 -138 486 -110 q 547 -206 547 -165 q 516 -275 547 -246 q 444 -303 486 -303 z "},"Ḇ":{"ha":910,"x_min":98,"x_max":852,"o":"m 98 0 l 98 1010 l 486 1010 q 667 977 594 1010 q 777 883 740 943 q 813 748 813 824 q 790 643 813 687 q 727 572 767 600 q 637 532 688 544 l 637 524 q 742 490 692 520 q 822 406 791 460 q 852 277 852 353 q 814 135 852 197 q 699 36 776 72 q 506 0 622 0 l 98 0 m 278 150 l 479 150 q 624 189 578 150 q 669 290 669 227 q 647 371 669 335 q 583 427 625 406 q 485 448 542 448 l 278 448 l 278 150 m 278 581 l 466 581 q 552 598 514 581 q 612 648 590 616 q 633 725 633 680 q 591 823 633 785 q 469 861 549 861 l 278 861 l 278 581 m 636 -142 l 636 -260 l 250 -260 l 250 -142 l 636 -142 z "},"Ƀ":{"ha":932,"x_min":9,"x_max":874,"o":"m 119 0 l 119 1010 l 507 1010 q 688 977 615 1010 q 798 883 761 943 q 834 748 834 824 q 811 643 834 687 q 748 572 788 600 q 659 532 709 544 l 659 524 q 763 490 713 520 q 843 406 812 460 q 873 277 873 353 q 835 135 873 197 q 720 36 797 72 q 527 0 643 0 l 119 0 m 299 150 l 500 150 q 645 189 599 150 q 690 290 690 227 q 668 371 690 335 q 604 427 646 406 q 506 448 563 448 l 299 448 l 299 150 m 299 581 l 487 581 q 573 598 535 581 q 633 648 611 616 q 654 725 654 680 q 612 823 654 785 q 490 861 570 861 l 299 861 l 299 581 m 9 255 l 9 343 l 473 343 l 473 255 l 9 255 z "},"Ɓ":{"ha":1149,"x_min":33,"x_max":1091,"o":"m 33 727 l 33 790 q 94 956 33 901 q 279 1010 155 1010 l 336 1010 l 336 859 l 285 859 q 220 839 241 859 q 199 778 199 819 l 199 727 l 33 727 m 336 0 l 336 1010 l 724 1010 q 906 977 833 1010 q 1015 883 979 943 q 1052 748 1052 824 q 1029 643 1052 687 q 966 572 1006 600 q 876 532 926 544 l 876 524 q 980 490 931 520 q 1060 406 1029 460 q 1091 277 1091 353 q 1053 135 1091 197 q 938 36 1015 72 q 745 0 861 0 l 336 0 m 517 150 l 718 150 q 862 189 817 150 q 908 290 908 227 q 886 371 908 335 q 822 427 863 406 q 724 448 781 448 l 517 448 l 517 150 m 517 581 l 705 581 q 791 598 753 581 q 850 648 829 616 q 872 725 872 680 q 830 823 872 785 q 707 861 788 861 l 517 861 l 517 581 z "},"В":{"ha":910,"x_min":98,"x_max":852,"o":"m 98 0 l 98 1010 l 486 1010 q 667 977 594 1010 q 777 883 740 943 q 813 748 813 824 q 790 643 813 687 q 727 572 767 600 q 637 532 688 544 l 637 524 q 742 490 692 520 q 822 406 791 460 q 852 277 852 353 q 814 135 852 197 q 699 36 776 72 q 506 0 622 0 l 98 0 m 278 150 l 479 150 q 624 189 578 150 q 669 290 669 227 q 647 371 669 335 q 583 427 625 406 q 485 448 542 448 l 278 448 l 278 150 m 278 581 l 466 581 q 552 598 514 581 q 612 648 590 616 q 633 725 633 680 q 591 823 633 785 q 469 861 549 861 l 278 861 l 278 581 z "},"Β":{"ha":910,"x_min":98,"x_max":852,"o":"m 98 0 l 98 1010 l 486 1010 q 667 977 594 1010 q 777 883 740 943 q 813 748 813 824 q 790 643 813 687 q 727 572 767 600 q 637 532 688 544 l 637 524 q 742 490 692 520 q 822 406 791 460 q 852 277 852 353 q 814 135 852 197 q 699 36 776 72 q 506 0 622 0 l 98 0 m 278 150 l 479 150 q 624 189 578 150 q 669 290 669 227 q 647 371 669 335 q 583 427 625 406 q 485 448 542 448 l 278 448 l 278 150 m 278 581 l 466 581 q 552 598 514 581 q 612 648 590 616 q 633 725 633 680 q 591 823 633 785 q 469 861 549 861 l 278 861 l 278 581 z "},"C":{"ha":1019,"x_min":65,"x_max":959,"o":"m 530 -14 q 291 48 397 -14 q 125 227 186 111 q 65 505 65 343 q 126 784 65 667 q 292 962 186 900 q 530 1025 397 1025 q 687 1001 614 1025 q 816 931 760 977 q 909 820 873 886 q 958 672 946 755 l 776 672 q 746 753 767 718 q 692 813 724 788 q 620 850 660 838 q 533 863 579 863 q 384 820 448 863 q 283 698 319 778 q 247 505 247 618 q 283 311 247 391 q 384 189 319 231 q 533 148 448 148 q 619 160 579 148 q 691 197 659 173 q 746 257 724 222 q 777 338 768 293 l 959 338 q 913 199 948 263 q 823 87 878 136 q 693 13 767 39 q 530 -14 619 -14 z "},"Ƈ":{"ha":1019,"x_min":65,"x_max":1108,"o":"m 787 672 l 787 944 q 844 1093 787 1042 q 1014 1144 901 1144 q 1067 1142 1042 1144 q 1108 1137 1091 1140 l 1108 1003 q 1079 1005 1095 1004 q 1050 1006 1063 1006 q 980 991 1002 1006 q 958 943 958 976 l 958 672 l 787 672 m 530 -14 q 291 48 397 -14 q 125 227 186 111 q 65 505 65 343 q 126 784 65 667 q 292 962 186 900 q 530 1025 397 1025 q 687 1001 614 1025 q 816 931 760 977 q 909 820 873 886 q 958 672 946 755 l 776 672 q 746 753 767 718 q 692 813 724 788 q 620 850 660 838 q 533 863 579 863 q 384 820 448 863 q 283 698 319 778 q 247 505 247 618 q 283 311 247 391 q 384 189 319 231 q 533 148 448 148 q 619 160 579 148 q 691 197 659 173 q 746 257 724 222 q 777 338 768 293 l 959 338 q 913 199 948 263 q 823 87 878 136 q 693 13 767 39 q 530 -14 619 -14 z "},"Ç":{"ha":1019,"x_min":65,"x_max":959,"o":"m 530 -14 q 291 48 397 -14 q 125 227 186 111 q 65 505 65 343 q 126 784 65 667 q 292 962 186 900 q 530 1025 397 1025 q 687 1001 614 1025 q 816 931 760 977 q 909 820 873 886 q 958 672 946 755 l 776 672 q 746 753 767 718 q 692 813 724 788 q 620 850 660 838 q 533 863 579 863 q 384 820 448 863 q 283 698 319 778 q 247 505 247 618 q 283 311 247 391 q 384 189 319 231 q 533 148 448 148 q 619 160 579 148 q 691 197 659 173 q 746 257 724 222 q 777 338 768 293 l 959 338 q 913 199 948 263 q 823 87 878 136 q 693 13 767 39 q 530 -14 619 -14 m 443 -286 l 443 -208 l 526 -208 q 574 -198 559 -208 q 588 -165 588 -188 q 574 -133 588 -142 q 526 -123 559 -123 l 467 -123 l 490 28 l 564 28 l 564 -2 l 562 -60 q 660 -88 626 -60 q 693 -169 693 -116 q 654 -258 693 -230 q 533 -286 614 -286 l 443 -286 z "},"Ć":{"ha":1019,"x_min":65,"x_max":959,"o":"m 530 -14 q 291 48 397 -14 q 125 227 186 111 q 65 505 65 343 q 126 784 65 667 q 292 962 186 900 q 530 1025 397 1025 q 687 1001 614 1025 q 816 931 760 977 q 909 820 873 886 q 958 672 946 755 l 776 672 q 746 753 767 718 q 692 813 724 788 q 620 850 660 838 q 533 863 579 863 q 384 820 448 863 q 283 698 319 778 q 247 505 247 618 q 283 311 247 391 q 384 189 319 231 q 533 148 448 148 q 619 160 579 148 q 691 197 659 173 q 746 257 724 222 q 777 338 768 293 l 959 338 q 913 199 948 263 q 823 87 878 136 q 693 13 767 39 q 530 -14 619 -14 m 460 1106 l 558 1314 l 730 1314 l 588 1106 l 460 1106 z "},"Ĉ":{"ha":1019,"x_min":65,"x_max":959,"o":"m 530 -14 q 291 48 397 -14 q 125 227 186 111 q 65 505 65 343 q 126 784 65 667 q 292 962 186 900 q 530 1025 397 1025 q 687 1001 614 1025 q 816 931 760 977 q 909 820 873 886 q 958 672 946 755 l 776 672 q 746 753 767 718 q 692 813 724 788 q 620 850 660 838 q 533 863 579 863 q 384 820 448 863 q 283 698 319 778 q 247 505 247 618 q 283 311 247 391 q 384 189 319 231 q 533 148 448 148 q 619 160 579 148 q 691 197 659 173 q 746 257 724 222 q 777 338 768 293 l 959 338 q 913 199 948 263 q 823 87 878 136 q 693 13 767 39 q 530 -14 619 -14 m 432 1114 l 277 1114 l 277 1119 l 456 1314 l 599 1314 l 779 1119 l 779 1114 l 623 1114 l 528 1231 l 432 1114 z "},"Ċ":{"ha":1019,"x_min":65,"x_max":959,"o":"m 530 -14 q 291 48 397 -14 q 125 227 186 111 q 65 505 65 343 q 126 784 65 667 q 292 962 186 900 q 530 1025 397 1025 q 687 1001 614 1025 q 816 931 760 977 q 909 820 873 886 q 958 672 946 755 l 776 672 q 746 753 767 718 q 692 813 724 788 q 620 850 660 838 q 533 863 579 863 q 384 820 448 863 q 283 698 319 778 q 247 505 247 618 q 283 311 247 391 q 384 189 319 231 q 533 148 448 148 q 619 160 579 148 q 691 197 659 173 q 746 257 724 222 q 777 338 768 293 l 959 338 q 913 199 948 263 q 823 87 878 136 q 693 13 767 39 q 530 -14 619 -14 m 528 1118 q 456 1146 486 1118 q 426 1215 426 1175 q 456 1283 426 1255 q 528 1311 486 1311 q 601 1283 571 1311 q 631 1215 631 1255 q 601 1146 631 1175 q 528 1118 571 1118 z "},"Č":{"ha":1019,"x_min":65,"x_max":959,"o":"m 530 -14 q 291 48 397 -14 q 125 227 186 111 q 65 505 65 343 q 126 784 65 667 q 292 962 186 900 q 530 1025 397 1025 q 687 1001 614 1025 q 816 931 760 977 q 909 820 873 886 q 958 672 946 755 l 776 672 q 746 753 767 718 q 692 813 724 788 q 620 850 660 838 q 533 863 579 863 q 384 820 448 863 q 283 698 319 778 q 247 505 247 618 q 283 311 247 391 q 384 189 319 231 q 533 148 448 148 q 619 160 579 148 q 691 197 659 173 q 746 257 724 222 q 777 338 768 293 l 959 338 q 913 199 948 263 q 823 87 878 136 q 693 13 767 39 q 530 -14 619 -14 m 432 1314 l 528 1198 l 623 1314 l 779 1314 l 779 1310 l 599 1114 l 456 1114 l 277 1310 l 277 1314 l 432 1314 z "},"Ḉ":{"ha":1019,"x_min":65,"x_max":959,"o":"m 530 -14 q 291 48 397 -14 q 125 227 186 111 q 65 505 65 343 q 126 784 65 667 q 292 962 186 900 q 530 1025 397 1025 q 687 1001 614 1025 q 816 931 760 977 q 909 820 873 886 q 958 672 946 755 l 776 672 q 746 753 767 718 q 692 813 724 788 q 620 850 660 838 q 533 863 579 863 q 384 820 448 863 q 283 698 319 778 q 247 505 247 618 q 283 311 247 391 q 384 189 319 231 q 533 148 448 148 q 619 160 579 148 q 691 197 659 173 q 746 257 724 222 q 777 338 768 293 l 959 338 q 913 199 948 263 q 823 87 878 136 q 693 13 767 39 q 530 -14 619 -14 m 443 -286 l 443 -208 l 526 -208 q 574 -198 559 -208 q 588 -165 588 -188 q 574 -133 588 -142 q 526 -123 559 -123 l 467 -123 l 490 28 l 564 28 l 564 -2 l 562 -60 q 660 -88 626 -60 q 693 -169 693 -116 q 654 -258 693 -230 q 533 -286 614 -286 l 443 -286 m 460 1106 l 558 1314 l 730 1314 l 588 1106 l 460 1106 z "},"Ȼ":{"ha":1019,"x_min":65,"x_max":959,"o":"m 241 -129 l 667 1138 l 789 1138 l 363 -129 l 241 -129 m 530 -14 q 291 48 397 -14 q 125 227 186 111 q 65 505 65 343 q 126 784 65 667 q 292 962 186 900 q 530 1025 397 1025 q 687 1001 614 1025 q 816 931 760 977 q 909 820 873 886 q 958 672 946 755 l 776 672 q 746 753 767 718 q 692 813 724 788 q 620 850 660 838 q 533 863 579 863 q 384 820 448 863 q 283 698 319 778 q 247 505 247 618 q 283 311 247 391 q 384 189 319 231 q 533 148 448 148 q 619 160 579 148 q 691 197 659 173 q 746 257 724 222 q 777 338 768 293 l 959 338 q 913 199 948 263 q 823 87 878 136 q 693 13 767 39 q 530 -14 619 -14 z "},"Ɔ":{"ha":1019,"x_min":60,"x_max":954,"o":"m 489 1025 q 728 962 623 1025 q 894 784 833 900 q 954 506 954 668 q 893 227 954 344 q 728 48 833 111 q 489 -14 623 -14 q 333 10 406 -14 q 203 79 260 34 q 110 190 146 125 q 61 338 73 256 l 243 338 q 274 258 252 293 q 328 198 296 222 q 400 160 359 173 q 486 148 440 148 q 636 190 572 148 q 736 313 701 233 q 772 506 772 393 q 736 700 772 621 q 635 821 700 780 q 486 863 571 863 q 400 850 441 863 q 328 813 360 838 q 274 753 296 789 q 243 672 252 718 l 60 672 q 106 811 72 747 q 197 923 141 875 q 327 998 253 971 q 489 1025 400 1025 z "},"Ϲ":{"ha":1019,"x_min":65,"x_max":959,"o":"m 530 -14 q 291 48 397 -14 q 125 227 186 111 q 65 505 65 343 q 126 784 65 667 q 292 962 186 900 q 530 1025 397 1025 q 687 1001 614 1025 q 816 931 760 977 q 909 820 873 886 q 958 672 946 755 l 776 672 q 746 753 767 718 q 692 813 724 788 q 620 850 660 838 q 533 863 579 863 q 384 820 448 863 q 283 698 319 778 q 247 505 247 618 q 283 311 247 391 q 384 189 319 231 q 533 148 448 148 q 619 160 579 148 q 691 197 659 173 q 746 257 724 222 q 777 338 768 293 l 959 338 q 913 199 948 263 q 823 87 878 136 q 693 13 767 39 q 530 -14 619 -14 z "},"D":{"ha":995,"x_min":98,"x_max":930,"o":"m 439 0 l 184 0 l 184 156 l 430 156 q 608 195 537 156 q 715 313 680 235 q 751 507 751 391 q 715 699 751 621 q 610 815 680 776 q 435 854 540 854 l 179 854 l 179 1010 l 446 1010 q 705 950 597 1010 q 871 776 813 889 q 930 507 930 663 q 871 235 930 349 q 703 61 813 122 q 439 0 593 0 m 279 1010 l 279 0 l 98 0 l 98 1010 l 279 1010 z "},"Ɗ":{"ha":1234,"x_min":33,"x_max":1168,"o":"m 33 727 l 33 790 q 94 956 33 901 q 279 1010 155 1010 l 336 1010 l 336 859 l 285 859 q 220 839 241 859 q 199 778 199 819 l 199 727 l 33 727 m 678 0 l 422 0 l 422 156 l 669 156 q 847 195 776 156 q 954 313 918 235 q 989 507 989 391 q 954 699 989 621 q 848 815 918 776 q 674 854 779 854 l 418 854 l 418 1010 l 685 1010 q 944 950 836 1010 q 1110 776 1052 889 q 1168 507 1168 663 q 1110 235 1168 349 q 942 61 1052 122 q 678 0 832 0 m 517 1010 l 517 0 l 336 0 l 336 1010 l 517 1010 z "},"Ď":{"ha":995,"x_min":98,"x_max":930,"o":"m 439 0 l 184 0 l 184 156 l 430 156 q 608 195 537 156 q 715 313 680 235 q 751 507 751 391 q 715 699 751 621 q 610 815 680 776 q 435 854 540 854 l 179 854 l 179 1010 l 446 1010 q 705 950 597 1010 q 871 776 813 889 q 930 507 930 663 q 871 235 930 349 q 703 61 813 122 q 439 0 593 0 m 279 1010 l 279 0 l 98 0 l 98 1010 l 279 1010 m 314 1314 l 410 1198 l 505 1314 l 661 1314 l 661 1310 l 481 1114 l 338 1114 l 159 1310 l 159 1314 l 314 1314 z "},"Ḋ":{"ha":995,"x_min":98,"x_max":930,"o":"m 439 0 l 184 0 l 184 156 l 430 156 q 608 195 537 156 q 715 313 680 235 q 751 507 751 391 q 715 699 751 621 q 610 815 680 776 q 435 854 540 854 l 179 854 l 179 1010 l 446 1010 q 705 950 597 1010 q 871 776 813 889 q 930 507 930 663 q 871 235 930 349 q 703 61 813 122 q 439 0 593 0 m 279 1010 l 279 0 l 98 0 l 98 1010 l 279 1010 m 410 1118 q 337 1146 367 1118 q 307 1215 307 1175 q 337 1283 307 1255 q 410 1311 367 1311 q 483 1283 452 1311 q 513 1215 513 1255 q 483 1146 513 1175 q 410 1118 452 1118 z "},"Ḍ":{"ha":995,"x_min":98,"x_max":930,"o":"m 439 0 l 184 0 l 184 156 l 430 156 q 608 195 537 156 q 715 313 680 235 q 751 507 751 391 q 715 699 751 621 q 610 815 680 776 q 435 854 540 854 l 179 854 l 179 1010 l 446 1010 q 705 950 597 1010 q 871 776 813 889 q 930 507 930 663 q 871 235 930 349 q 703 61 813 122 q 439 0 593 0 m 279 1010 l 279 0 l 98 0 l 98 1010 l 279 1010 m 434 -303 q 361 -275 391 -303 q 332 -206 332 -246 q 361 -138 332 -165 q 434 -110 391 -110 q 507 -138 477 -110 q 537 -206 537 -165 q 507 -275 537 -246 q 434 -303 477 -303 z "},"Ḏ":{"ha":995,"x_min":98,"x_max":930,"o":"m 439 0 l 184 0 l 184 156 l 430 156 q 608 195 537 156 q 715 313 680 235 q 751 507 751 391 q 715 699 751 621 q 610 815 680 776 q 435 854 540 854 l 179 854 l 179 1010 l 446 1010 q 705 950 597 1010 q 871 776 813 889 q 930 507 930 663 q 871 235 930 349 q 703 61 813 122 q 439 0 593 0 m 279 1010 l 279 0 l 98 0 l 98 1010 l 279 1010 m 627 -142 l 627 -260 l 240 -260 l 240 -142 l 627 -142 z "},"Ḑ":{"ha":995,"x_min":98,"x_max":930,"o":"m 439 0 l 184 0 l 184 156 l 430 156 q 608 195 537 156 q 715 313 680 235 q 751 507 751 391 q 715 699 751 621 q 610 815 680 776 q 435 854 540 854 l 179 854 l 179 1010 l 446 1010 q 705 950 597 1010 q 871 776 813 889 q 930 507 930 663 q 871 235 930 349 q 703 61 813 122 q 439 0 593 0 m 279 1010 l 279 0 l 98 0 l 98 1010 l 279 1010 m 291 -328 l 350 -80 l 517 -80 l 417 -328 l 291 -328 z "},"Ḓ":{"ha":995,"x_min":98,"x_max":930,"o":"m 439 0 l 184 0 l 184 156 l 430 156 q 608 195 537 156 q 715 313 680 235 q 751 507 751 391 q 715 699 751 621 q 610 815 680 776 q 435 854 540 854 l 179 854 l 179 1010 l 446 1010 q 705 950 597 1010 q 871 776 813 889 q 930 507 930 663 q 871 235 930 349 q 703 61 813 122 q 439 0 593 0 m 279 1010 l 279 0 l 98 0 l 98 1010 l 279 1010 m 340 -304 l 185 -304 l 185 -300 l 363 -105 l 507 -105 l 686 -300 l 686 -304 l 531 -304 l 435 -188 l 340 -304 z "},"Ɖ":{"ha":1040,"x_min":14,"x_max":975,"o":"m 485 0 l 229 0 l 229 156 l 475 156 q 654 195 583 156 q 761 313 725 235 q 796 507 796 391 q 761 699 796 621 q 655 815 725 776 q 481 854 585 854 l 224 854 l 224 1010 l 492 1010 q 750 950 642 1010 q 917 776 859 889 q 975 507 975 663 q 917 235 975 349 q 749 61 859 122 q 485 0 639 0 m 324 1010 l 324 0 l 143 0 l 143 1010 l 324 1010 m 14 441 l 14 570 l 555 570 l 555 441 l 14 441 z "},"ǲ":{"ha":1763,"x_min":98,"x_max":1685,"o":"m 439 0 l 184 0 l 184 156 l 430 156 q 608 195 537 156 q 715 313 680 235 q 751 507 751 391 q 715 699 751 621 q 610 815 680 776 q 435 854 540 854 l 179 854 l 179 1010 l 446 1010 q 705 950 597 1010 q 871 776 813 889 q 930 507 930 663 q 871 235 930 349 q 703 61 813 122 q 439 0 593 0 m 279 1010 l 279 0 l 98 0 l 98 1010 l 279 1010 m 1074 0 l 1074 114 l 1459 598 l 1459 603 l 1083 603 l 1083 749 l 1673 749 l 1673 626 l 1303 151 l 1303 146 l 1685 146 l 1685 0 l 1074 0 z "},"ǅ":{"ha":1763,"x_min":98,"x_max":1685,"o":"m 439 0 l 184 0 l 184 156 l 430 156 q 608 195 537 156 q 715 313 680 235 q 751 507 751 391 q 715 699 751 621 q 610 815 680 776 q 435 854 540 854 l 179 854 l 179 1010 l 446 1010 q 705 950 597 1010 q 871 776 813 889 q 930 507 930 663 q 871 235 930 349 q 703 61 813 122 q 439 0 593 0 m 279 1010 l 279 0 l 98 0 l 98 1010 l 279 1010 m 1074 0 l 1074 114 l 1459 598 l 1459 603 l 1083 603 l 1083 749 l 1673 749 l 1673 626 l 1303 151 l 1303 146 l 1685 146 l 1685 0 l 1074 0 m 1280 1052 l 1375 936 l 1471 1052 l 1626 1052 l 1626 1048 l 1447 852 l 1303 852 l 1125 1048 l 1125 1052 l 1280 1052 z "},"E":{"ha":839,"x_min":98,"x_max":766,"o":"m 98 0 l 98 1010 l 764 1010 l 764 857 l 279 857 l 279 587 l 728 587 l 728 435 l 279 435 l 279 153 l 766 153 l 766 0 l 98 0 z "},"È":{"ha":839,"x_min":98,"x_max":766,"o":"m 98 0 l 98 1010 l 764 1010 l 764 857 l 279 857 l 279 587 l 728 587 l 728 435 l 279 435 l 279 153 l 766 153 l 766 0 l 98 0 m 371 1106 l 229 1314 l 401 1314 l 499 1106 l 371 1106 z "},"É":{"ha":839,"x_min":98,"x_max":766,"o":"m 98 0 l 98 1010 l 764 1010 l 764 857 l 279 857 l 279 587 l 728 587 l 728 435 l 279 435 l 279 153 l 766 153 l 766 0 l 98 0 m 365 1106 l 463 1314 l 635 1314 l 492 1106 l 365 1106 z "},"Ê":{"ha":839,"x_min":98,"x_max":766,"o":"m 98 0 l 98 1010 l 764 1010 l 764 857 l 279 857 l 279 587 l 728 587 l 728 435 l 279 435 l 279 153 l 766 153 l 766 0 l 98 0 m 336 1114 l 182 1114 l 182 1119 l 360 1314 l 503 1314 l 683 1119 l 683 1114 l 528 1114 l 432 1231 l 336 1114 z "},"Ë":{"ha":839,"x_min":98,"x_max":766,"o":"m 98 0 l 98 1010 l 764 1010 l 764 857 l 279 857 l 279 587 l 728 587 l 728 435 l 279 435 l 279 153 l 766 153 l 766 0 l 98 0 m 581 1121 q 513 1148 541 1121 q 485 1215 485 1176 q 513 1281 485 1254 q 581 1308 541 1308 q 648 1281 621 1308 q 675 1215 675 1254 q 648 1148 675 1176 q 581 1121 621 1121 m 285 1121 q 217 1148 245 1121 q 189 1215 189 1176 q 217 1281 189 1254 q 285 1308 245 1308 q 353 1281 325 1308 q 380 1215 380 1254 q 353 1148 380 1176 q 285 1121 325 1121 z "},"Ē":{"ha":839,"x_min":98,"x_max":766,"o":"m 98 0 l 98 1010 l 764 1010 l 764 857 l 279 857 l 279 587 l 728 587 l 728 435 l 279 435 l 279 153 l 766 153 l 766 0 l 98 0 m 626 1270 l 626 1152 l 239 1152 l 239 1270 l 626 1270 z "},"Ĕ":{"ha":839,"x_min":98,"x_max":766,"o":"m 98 0 l 98 1010 l 764 1010 l 764 857 l 279 857 l 279 587 l 728 587 l 728 435 l 279 435 l 279 153 l 766 153 l 766 0 l 98 0 m 432 1107 q 320 1135 370 1107 q 240 1208 270 1162 q 211 1312 211 1255 l 320 1312 q 352 1239 320 1267 q 432 1210 384 1210 q 512 1239 480 1210 q 544 1312 544 1267 l 653 1312 q 624 1208 653 1255 q 545 1135 595 1162 q 432 1107 495 1107 z "},"Ė":{"ha":839,"x_min":98,"x_max":766,"o":"m 98 0 l 98 1010 l 764 1010 l 764 857 l 279 857 l 279 587 l 728 587 l 728 435 l 279 435 l 279 153 l 766 153 l 766 0 l 98 0 m 433 1118 q 360 1146 390 1118 q 330 1215 330 1175 q 360 1283 330 1255 q 433 1311 390 1311 q 506 1283 475 1311 q 536 1215 536 1255 q 506 1146 536 1175 q 433 1118 475 1118 z "},"Ę":{"ha":839,"x_min":98,"x_max":796,"o":"m 98 0 l 98 1010 l 764 1010 l 764 857 l 279 857 l 279 587 l 728 587 l 728 435 l 279 435 l 279 153 l 766 153 l 766 0 l 98 0 m 668 -291 q 545 -255 593 -291 q 496 -153 496 -219 q 524 -61 496 -104 q 604 18 552 -18 l 766 0 q 686 -59 714 -31 q 657 -124 657 -88 q 670 -160 657 -147 q 710 -174 684 -174 q 738 -170 725 -174 q 762 -161 751 -166 l 795 -264 q 739 -283 772 -275 q 668 -291 706 -291 z "},"Ě":{"ha":839,"x_min":98,"x_max":766,"o":"m 98 0 l 98 1010 l 764 1010 l 764 857 l 279 857 l 279 587 l 728 587 l 728 435 l 279 435 l 279 153 l 766 153 l 766 0 l 98 0 m 336 1314 l 432 1198 l 528 1314 l 683 1314 l 683 1310 l 503 1114 l 360 1114 l 182 1310 l 182 1314 l 336 1314 z "},"Ȅ":{"ha":839,"x_min":94,"x_max":766,"o":"m 98 0 l 98 1010 l 764 1010 l 764 857 l 279 857 l 279 587 l 728 587 l 728 435 l 279 435 l 279 153 l 766 153 l 766 0 l 98 0 m 486 1106 l 370 1314 l 536 1314 l 614 1106 l 486 1106 m 256 1106 l 94 1314 l 269 1314 l 386 1106 l 256 1106 z "},"Ȇ":{"ha":839,"x_min":98,"x_max":766,"o":"m 98 0 l 98 1010 l 764 1010 l 764 857 l 279 857 l 279 587 l 728 587 l 728 435 l 279 435 l 279 153 l 766 153 l 766 0 l 98 0 m 433 1324 q 549 1296 498 1324 q 629 1221 600 1268 q 659 1114 659 1173 l 549 1114 q 515 1190 549 1160 q 433 1219 481 1219 q 350 1190 384 1219 q 315 1114 315 1160 l 206 1114 q 236 1221 206 1173 q 316 1296 265 1268 q 433 1324 368 1324 z "},"Ȩ":{"ha":839,"x_min":98,"x_max":766,"o":"m 98 0 l 98 1010 l 764 1010 l 764 857 l 279 857 l 279 587 l 728 587 l 728 435 l 279 435 l 279 153 l 766 153 l 766 0 l 98 0 m 351 -283 l 351 -205 l 434 -205 q 481 -196 467 -205 q 496 -163 496 -186 q 481 -131 496 -140 q 434 -121 467 -121 l 375 -121 l 398 31 l 472 31 l 472 0 l 470 -58 q 567 -86 534 -58 q 601 -167 601 -114 q 562 -256 601 -228 q 441 -283 522 -283 l 351 -283 z "},"Ḕ":{"ha":839,"x_min":98,"x_max":766,"o":"m 98 0 l 98 1010 l 764 1010 l 764 857 l 279 857 l 279 587 l 728 587 l 728 435 l 279 435 l 279 153 l 766 153 l 766 0 l 98 0 m 626 1255 l 626 1137 l 239 1137 l 239 1255 l 626 1255 m 380 1347 l 249 1533 l 406 1533 l 497 1347 l 380 1347 z "},"Ḗ":{"ha":839,"x_min":98,"x_max":766,"o":"m 98 0 l 98 1010 l 764 1010 l 764 857 l 279 857 l 279 587 l 728 587 l 728 435 l 279 435 l 279 153 l 766 153 l 766 0 l 98 0 m 626 1255 l 626 1136 l 239 1136 l 239 1255 l 626 1255 m 375 1347 l 467 1533 l 623 1533 l 491 1347 l 375 1347 z "},"Ḙ":{"ha":839,"x_min":98,"x_max":766,"o":"m 98 0 l 98 1010 l 764 1010 l 764 857 l 279 857 l 279 587 l 728 587 l 728 435 l 279 435 l 279 153 l 766 153 l 766 0 l 98 0 m 339 -304 l 184 -304 l 184 -300 l 363 -105 l 506 -105 l 686 -300 l 686 -304 l 530 -304 l 435 -188 l 339 -304 z "},"Ḛ":{"ha":839,"x_min":98,"x_max":766,"o":"m 98 0 l 98 1010 l 764 1010 l 764 857 l 279 857 l 279 587 l 728 587 l 728 435 l 279 435 l 279 153 l 766 153 l 766 0 l 98 0 m 527 -290 q 472 -280 497 -290 q 426 -257 447 -270 q 388 -234 406 -244 q 356 -224 371 -224 q 326 -242 336 -224 q 314 -286 315 -260 l 212 -286 q 248 -164 214 -208 q 342 -120 282 -120 q 396 -130 372 -120 q 440 -153 420 -140 q 478 -175 460 -165 q 513 -185 495 -185 q 544 -170 534 -185 q 555 -123 553 -155 l 656 -123 q 620 -245 655 -201 q 527 -290 584 -290 z "},"Ḝ":{"ha":839,"x_min":98,"x_max":766,"o":"m 98 0 l 98 1010 l 764 1010 l 764 857 l 279 857 l 279 587 l 728 587 l 728 435 l 279 435 l 279 153 l 766 153 l 766 0 l 98 0 m 351 -283 l 351 -205 l 434 -205 q 481 -196 467 -205 q 496 -163 496 -186 q 481 -131 496 -140 q 434 -121 467 -121 l 375 -121 l 398 31 l 472 31 l 472 0 l 470 -58 q 567 -86 534 -58 q 601 -167 601 -114 q 562 -256 601 -228 q 441 -283 522 -283 l 351 -283 m 432 1107 q 320 1135 370 1107 q 240 1208 270 1162 q 211 1312 211 1255 l 320 1312 q 352 1239 320 1267 q 432 1210 384 1210 q 512 1239 480 1210 q 544 1312 544 1267 l 653 1312 q 624 1208 653 1255 q 545 1135 595 1162 q 432 1107 495 1107 z "},"Ẹ":{"ha":839,"x_min":98,"x_max":766,"o":"m 98 0 l 98 1010 l 764 1010 l 764 857 l 279 857 l 279 587 l 728 587 l 728 435 l 279 435 l 279 153 l 766 153 l 766 0 l 98 0 m 433 -303 q 361 -275 391 -303 q 331 -206 331 -246 q 361 -138 331 -165 q 433 -110 391 -110 q 506 -138 476 -110 q 536 -206 536 -165 q 506 -275 536 -246 q 433 -303 476 -303 z "},"Ẻ":{"ha":839,"x_min":98,"x_max":766,"o":"m 98 0 l 98 1010 l 764 1010 l 764 857 l 279 857 l 279 587 l 728 587 l 728 435 l 279 435 l 279 153 l 766 153 l 766 0 l 98 0 m 483 1106 l 371 1106 l 422 1198 q 424 1213 427 1208 q 411 1217 421 1217 l 308 1217 l 308 1314 l 412 1314 q 494 1300 464 1314 q 537 1264 525 1286 q 545 1214 549 1242 q 519 1159 540 1187 l 483 1106 z "},"Ẽ":{"ha":839,"x_min":98,"x_max":766,"o":"m 98 0 l 98 1010 l 764 1010 l 764 857 l 279 857 l 279 587 l 728 587 l 728 435 l 279 435 l 279 153 l 766 153 l 766 0 l 98 0 m 526 1129 q 471 1139 496 1129 q 425 1162 446 1149 q 387 1184 404 1175 q 355 1194 370 1194 q 324 1177 334 1194 q 313 1133 314 1159 l 210 1133 q 247 1255 212 1211 q 340 1299 281 1299 q 395 1289 371 1299 q 439 1266 419 1279 q 476 1243 459 1253 q 511 1234 494 1234 q 542 1249 532 1234 q 554 1295 552 1264 l 655 1295 q 618 1173 654 1217 q 526 1129 583 1129 z "},"Ế":{"ha":839,"x_min":98,"x_max":777,"o":"m 98 0 l 98 1010 l 764 1010 l 764 857 l 279 857 l 279 587 l 728 587 l 728 435 l 279 435 l 279 153 l 766 153 l 766 0 l 98 0 m 339 1097 l 184 1097 l 184 1101 l 363 1297 l 506 1297 l 686 1101 l 686 1097 l 530 1097 l 435 1213 l 339 1097 m 531 1344 l 622 1529 l 777 1529 l 646 1344 l 531 1344 z "},"Ề":{"ha":839,"x_min":98,"x_max":766,"o":"m 98 0 l 98 1010 l 764 1010 l 764 857 l 279 857 l 279 587 l 728 587 l 728 435 l 279 435 l 279 153 l 766 153 l 766 0 l 98 0 m 339 1097 l 184 1097 l 184 1101 l 363 1297 l 506 1297 l 686 1101 l 686 1097 l 530 1097 l 435 1213 l 339 1097 m 582 1344 l 452 1529 l 606 1529 l 697 1344 l 582 1344 z "},"Ể":{"ha":839,"x_min":98,"x_max":766,"o":"m 98 0 l 98 1010 l 764 1010 l 764 857 l 279 857 l 279 587 l 728 587 l 728 435 l 279 435 l 279 153 l 766 153 l 766 0 l 98 0 m 339 1097 l 184 1097 l 184 1101 l 363 1297 l 506 1297 l 686 1101 l 686 1097 l 530 1097 l 435 1213 l 339 1097 m 631 1344 l 530 1344 l 573 1422 q 575 1436 578 1432 q 563 1440 572 1440 l 469 1440 l 469 1529 l 564 1529 q 656 1508 626 1529 q 687 1453 686 1486 q 663 1385 688 1420 l 631 1344 z "},"Ễ":{"ha":839,"x_min":98,"x_max":766,"o":"m 98 0 l 98 1010 l 764 1010 l 764 857 l 279 857 l 279 587 l 728 587 l 728 435 l 279 435 l 279 153 l 766 153 l 766 0 l 98 0 m 339 1097 l 184 1097 l 184 1101 l 363 1297 l 506 1297 l 686 1101 l 686 1097 l 530 1097 l 435 1213 l 339 1097 m 527 1357 q 472 1366 497 1357 q 427 1388 448 1375 q 389 1409 406 1400 q 356 1417 371 1417 q 326 1401 336 1417 q 315 1360 316 1384 l 212 1360 q 248 1473 214 1432 q 342 1514 283 1514 q 397 1505 373 1514 q 441 1484 421 1496 q 478 1463 460 1472 q 513 1454 496 1454 q 544 1468 534 1454 q 556 1512 553 1482 l 656 1512 q 620 1398 655 1439 q 527 1357 584 1357 z "},"Ệ":{"ha":839,"x_min":98,"x_max":766,"o":"m 98 0 l 98 1010 l 764 1010 l 764 857 l 279 857 l 279 587 l 728 587 l 728 435 l 279 435 l 279 153 l 766 153 l 766 0 l 98 0 m 336 1114 l 182 1114 l 182 1119 l 360 1314 l 503 1314 l 683 1119 l 683 1114 l 528 1114 l 432 1231 l 336 1114 m 433 -303 q 361 -275 391 -303 q 331 -206 331 -246 q 361 -138 331 -165 q 433 -110 391 -110 q 506 -138 476 -110 q 536 -206 536 -165 q 506 -275 536 -246 q 433 -303 476 -303 z "},"Ɇ":{"ha":839,"x_min":98,"x_max":766,"o":"m 214 -129 l 581 1138 l 692 1138 l 327 -129 l 214 -129 m 98 0 l 98 1010 l 764 1010 l 764 857 l 279 857 l 279 587 l 728 587 l 728 435 l 279 435 l 279 153 l 766 153 l 766 0 l 98 0 z "},"Ǝ":{"ha":839,"x_min":72,"x_max":741,"o":"m 741 1010 l 741 0 l 75 0 l 75 153 l 560 153 l 560 424 l 111 424 l 111 575 l 560 575 l 560 857 l 72 857 l 72 1010 l 741 1010 z "},"Ε":{"ha":839,"x_min":98,"x_max":766,"o":"m 98 0 l 98 1010 l 764 1010 l 764 857 l 279 857 l 279 587 l 728 587 l 728 435 l 279 435 l 279 153 l 766 153 l 766 0 l 98 0 z "},"Έ":{"ha":1066,"x_min":51,"x_max":994,"o":"m 325 0 l 325 1010 l 991 1010 l 991 857 l 506 857 l 506 587 l 956 587 l 956 435 l 506 435 l 506 153 l 994 153 l 994 0 l 325 0 m 51 803 l 74 1010 l 237 1010 l 159 803 l 51 803 z "},"Ἐ":{"ha":1082,"x_min":51,"x_max":1010,"o":"m 342 0 l 342 1010 l 1008 1010 l 1008 857 l 523 857 l 523 587 l 972 587 l 972 435 l 523 435 l 523 153 l 1010 153 l 1010 0 l 342 0 m 78 806 l 69 806 l 69 861 l 79 861 q 132 871 114 861 q 149 905 149 882 q 132 933 149 924 q 82 943 115 943 l 51 943 l 51 1031 l 78 1031 q 207 1002 162 1031 q 251 919 251 972 q 206 835 251 864 q 78 806 161 806 z "},"Ἑ":{"ha":1095,"x_min":51,"x_max":1022,"o":"m 353 0 l 353 1010 l 1020 1010 l 1020 857 l 534 857 l 534 587 l 984 587 l 984 435 l 534 435 l 534 153 l 1022 153 l 1022 0 l 353 0 m 224 791 q 96 820 140 791 q 51 904 51 849 q 95 987 51 958 q 224 1016 140 1016 l 251 1016 l 251 928 l 220 928 q 170 919 186 928 q 153 890 153 909 q 170 857 153 867 q 223 846 188 846 l 233 846 l 233 791 l 224 791 z "},"Ἒ":{"ha":1318,"x_min":51,"x_max":1246,"o":"m 577 0 l 577 1010 l 1244 1010 l 1244 857 l 758 857 l 758 587 l 1208 587 l 1208 435 l 758 435 l 758 153 l 1246 153 l 1246 0 l 577 0 m 78 791 l 69 791 l 69 846 l 79 846 q 132 857 114 846 q 149 890 149 867 q 132 919 149 909 q 82 928 115 928 l 51 928 l 51 1016 l 78 1016 q 207 987 162 1016 q 251 904 251 958 q 206 820 251 849 q 78 791 161 791 m 450 798 l 349 798 l 276 1010 l 428 1010 l 450 798 z "},"Ἓ":{"ha":1340,"x_min":51,"x_max":1267,"o":"m 599 0 l 599 1010 l 1265 1010 l 1265 857 l 780 857 l 780 587 l 1230 587 l 1230 435 l 780 435 l 780 153 l 1267 153 l 1267 0 l 599 0 m 224 791 q 96 820 140 791 q 51 904 51 849 q 95 987 51 958 q 224 1016 140 1016 l 251 1016 l 251 928 l 220 928 q 170 919 186 928 q 153 890 153 909 q 170 857 153 867 q 223 846 188 846 l 233 846 l 233 791 l 224 791 m 472 798 l 372 798 l 298 1010 l 450 1010 l 472 798 z "},"Ἔ":{"ha":1324,"x_min":51,"x_max":1253,"o":"m 584 0 l 584 1010 l 1251 1010 l 1251 857 l 765 857 l 765 587 l 1215 587 l 1215 435 l 765 435 l 765 153 l 1253 153 l 1253 0 l 584 0 m 78 791 l 69 791 l 69 846 l 79 846 q 132 857 114 846 q 149 890 149 867 q 132 919 149 909 q 82 928 115 928 l 51 928 l 51 1016 l 78 1016 q 207 987 162 1016 q 251 904 251 958 q 206 820 251 849 q 78 791 161 791 m 328 798 l 350 1010 l 502 1010 l 429 798 l 328 798 z "},"Ἕ":{"ha":1339,"x_min":51,"x_max":1267,"o":"m 599 0 l 599 1010 l 1265 1010 l 1265 857 l 780 857 l 780 587 l 1230 587 l 1230 435 l 780 435 l 780 153 l 1267 153 l 1267 0 l 599 0 m 224 791 q 96 820 140 791 q 51 904 51 849 q 95 987 51 958 q 224 1016 140 1016 l 251 1016 l 251 928 l 220 928 q 170 919 186 928 q 153 890 153 909 q 170 857 153 867 q 223 846 188 846 l 233 846 l 233 791 l 224 791 m 338 798 l 360 1010 l 512 1010 l 439 798 l 338 798 z "},"Ὲ":{"ha":1038,"x_min":-64,"x_max":965,"o":"m 296 0 l 296 1010 l 963 1010 l 963 857 l 477 857 l 477 587 l 927 587 l 927 435 l 477 435 l 477 153 l 965 153 l 965 0 l 296 0 m 123 842 l 14 842 l -64 1049 l 100 1049 l 123 842 z "},"Έ":{"ha":1066,"x_min":51,"x_max":994,"o":"m 325 0 l 325 1010 l 991 1010 l 991 857 l 506 857 l 506 587 l 956 587 l 956 435 l 506 435 l 506 153 l 994 153 l 994 0 l 325 0 m 51 803 l 74 1010 l 237 1010 l 159 803 l 51 803 z "},"Е":{"ha":839,"x_min":98,"x_max":766,"o":"m 98 0 l 98 1010 l 764 1010 l 764 857 l 279 857 l 279 587 l 728 587 l 728 435 l 279 435 l 279 153 l 766 153 l 766 0 l 98 0 z "},"Ѐ":{"ha":839,"x_min":98,"x_max":766,"o":"m 98 0 l 98 1010 l 764 1010 l 764 857 l 279 857 l 279 587 l 728 587 l 728 435 l 279 435 l 279 153 l 766 153 l 766 0 l 98 0 m 371 1106 l 229 1314 l 401 1314 l 499 1106 l 371 1106 z "},"Ё":{"ha":839,"x_min":98,"x_max":766,"o":"m 98 0 l 98 1010 l 764 1010 l 764 857 l 279 857 l 279 587 l 728 587 l 728 435 l 279 435 l 279 153 l 766 153 l 766 0 l 98 0 m 581 1121 q 513 1148 541 1121 q 485 1215 485 1176 q 513 1281 485 1254 q 581 1308 541 1308 q 648 1281 621 1308 q 675 1215 675 1254 q 648 1148 675 1176 q 581 1121 621 1121 m 285 1121 q 217 1148 245 1121 q 189 1215 189 1176 q 217 1281 189 1254 q 285 1308 245 1308 q 353 1281 325 1308 q 380 1215 380 1254 q 353 1148 380 1176 q 285 1121 325 1121 z "},"Ӗ":{"ha":839,"x_min":98,"x_max":766,"o":"m 98 0 l 98 1010 l 764 1010 l 764 857 l 279 857 l 279 587 l 728 587 l 728 435 l 279 435 l 279 153 l 766 153 l 766 0 l 98 0 m 432 1107 q 320 1135 370 1107 q 240 1208 270 1162 q 211 1312 211 1255 l 320 1312 q 352 1239 320 1267 q 432 1210 384 1210 q 512 1239 480 1210 q 544 1312 544 1267 l 653 1312 q 624 1208 653 1255 q 545 1135 595 1162 q 432 1107 495 1107 z "},"F":{"ha":812,"x_min":98,"x_max":752,"o":"m 98 0 l 98 1010 l 752 1010 l 752 857 l 279 857 l 279 560 l 709 560 l 709 409 l 279 409 l 279 0 l 98 0 z "},"Ƒ":{"ha":812,"x_min":-45,"x_max":752,"o":"m -45 -283 l -45 -141 q -16 -143 -32 -142 q 13 -144 0 -144 q 79 -129 61 -144 q 98 -81 98 -114 l 98 86 l 279 86 l 279 -90 q 221 -240 279 -189 q 50 -291 163 -291 q -4 -289 21 -291 q -45 -283 -28 -287 m 98 0 l 98 1010 l 752 1010 l 752 857 l 279 857 l 279 560 l 709 560 l 709 409 l 279 409 l 279 0 l 98 0 z "},"Ḟ":{"ha":812,"x_min":98,"x_max":752,"o":"m 98 0 l 98 1010 l 752 1010 l 752 857 l 279 857 l 279 560 l 709 560 l 709 409 l 279 409 l 279 0 l 98 0 m 425 1118 q 353 1146 382 1118 q 323 1215 323 1175 q 353 1283 323 1255 q 425 1311 382 1311 q 498 1283 468 1311 q 528 1215 528 1255 q 498 1146 528 1175 q 425 1118 468 1118 z "},"Ⅎ":{"ha":812,"x_min":60,"x_max":714,"o":"m 714 1010 l 714 0 l 60 0 l 60 153 l 534 153 l 534 450 l 103 450 l 103 602 l 534 602 l 534 1010 l 714 1010 z "},"G":{"ha":1036,"x_min":65,"x_max":966,"o":"m 534 -14 q 289 50 395 -14 q 124 230 184 113 q 65 504 65 346 q 126 783 65 666 q 292 962 186 899 q 530 1025 397 1025 q 686 1000 613 1025 q 816 930 759 975 q 909 822 873 884 q 958 685 946 760 l 773 685 q 740 759 762 726 q 688 815 719 791 q 618 850 657 838 q 532 863 579 863 q 385 821 449 863 q 283 699 320 779 q 247 505 247 619 q 283 312 247 392 q 385 190 319 233 q 536 148 450 148 q 670 178 613 148 q 759 262 727 208 q 790 391 790 317 l 833 386 l 556 386 l 556 528 l 966 528 l 966 406 q 910 183 966 278 q 757 37 854 89 q 534 -14 660 -14 z "},"Ǥ":{"ha":1036,"x_min":65,"x_max":1027,"o":"m 534 -14 q 289 50 395 -14 q 124 230 184 113 q 65 504 65 346 q 126 783 65 666 q 292 962 186 899 q 530 1025 397 1025 q 686 1000 613 1025 q 816 930 759 975 q 909 822 873 884 q 958 685 946 760 l 773 685 q 740 759 762 726 q 688 815 719 791 q 618 850 657 838 q 532 863 579 863 q 385 821 449 863 q 283 699 320 779 q 247 505 247 619 q 283 312 247 392 q 385 190 319 233 q 536 148 450 148 q 670 178 613 148 q 759 262 727 208 q 790 391 790 317 l 833 386 l 556 386 l 556 528 l 966 528 l 966 406 q 910 183 966 278 q 757 37 854 89 q 534 -14 660 -14 m 556 235 l 556 317 l 1027 317 l 1027 235 l 556 235 z "},"Ɠ":{"ha":1036,"x_min":65,"x_max":1107,"o":"m 785 685 l 785 941 q 843 1090 785 1039 q 1013 1141 900 1141 q 1066 1139 1042 1141 q 1107 1133 1090 1137 l 1107 1000 q 1078 1002 1094 1001 q 1048 1003 1062 1003 q 979 988 1000 1003 q 958 939 958 972 l 958 685 l 785 685 m 534 -14 q 289 50 395 -14 q 124 230 184 113 q 65 504 65 346 q 126 783 65 666 q 292 962 186 899 q 530 1025 397 1025 q 686 1000 613 1025 q 816 930 759 975 q 909 822 873 884 q 958 685 946 760 l 773 685 q 740 759 762 726 q 688 815 719 791 q 618 850 657 838 q 532 863 579 863 q 385 821 449 863 q 283 699 320 779 q 247 505 247 619 q 283 312 247 392 q 385 190 319 233 q 536 148 450 148 q 670 178 613 148 q 759 262 727 208 q 790 391 790 317 l 833 386 l 556 386 l 556 528 l 966 528 l 966 406 q 910 183 966 278 q 757 37 854 89 q 534 -14 660 -14 z "},"Ĝ":{"ha":1036,"x_min":65,"x_max":966,"o":"m 534 -14 q 289 50 395 -14 q 124 230 184 113 q 65 504 65 346 q 126 783 65 666 q 292 962 186 899 q 530 1025 397 1025 q 686 1000 613 1025 q 816 930 759 975 q 909 822 873 884 q 958 685 946 760 l 773 685 q 740 759 762 726 q 688 815 719 791 q 618 850 657 838 q 532 863 579 863 q 385 821 449 863 q 283 699 320 779 q 247 505 247 619 q 283 312 247 392 q 385 190 319 233 q 536 148 450 148 q 670 178 613 148 q 759 262 727 208 q 790 391 790 317 l 833 386 l 556 386 l 556 528 l 966 528 l 966 406 q 910 183 966 278 q 757 37 854 89 q 534 -14 660 -14 m 430 1114 l 275 1114 l 275 1119 l 454 1314 l 597 1314 l 777 1119 l 777 1114 l 621 1114 l 526 1231 l 430 1114 z "},"Ğ":{"ha":1036,"x_min":65,"x_max":966,"o":"m 534 -14 q 289 50 395 -14 q 124 230 184 113 q 65 504 65 346 q 126 783 65 666 q 292 962 186 899 q 530 1025 397 1025 q 686 1000 613 1025 q 816 930 759 975 q 909 822 873 884 q 958 685 946 760 l 773 685 q 740 759 762 726 q 688 815 719 791 q 618 850 657 838 q 532 863 579 863 q 385 821 449 863 q 283 699 320 779 q 247 505 247 619 q 283 312 247 392 q 385 190 319 233 q 536 148 450 148 q 670 178 613 148 q 759 262 727 208 q 790 391 790 317 l 833 386 l 556 386 l 556 528 l 966 528 l 966 406 q 910 183 966 278 q 757 37 854 89 q 534 -14 660 -14 m 526 1107 q 413 1135 463 1107 q 334 1208 363 1162 q 304 1312 304 1255 l 414 1312 q 446 1239 414 1267 q 526 1210 477 1210 q 606 1239 574 1210 q 637 1312 637 1267 l 747 1312 q 718 1208 747 1255 q 638 1135 688 1162 q 526 1107 589 1107 z "},"Ġ":{"ha":1036,"x_min":65,"x_max":966,"o":"m 534 -14 q 289 50 395 -14 q 124 230 184 113 q 65 504 65 346 q 126 783 65 666 q 292 962 186 899 q 530 1025 397 1025 q 686 1000 613 1025 q 816 930 759 975 q 909 822 873 884 q 958 685 946 760 l 773 685 q 740 759 762 726 q 688 815 719 791 q 618 850 657 838 q 532 863 579 863 q 385 821 449 863 q 283 699 320 779 q 247 505 247 619 q 283 312 247 392 q 385 190 319 233 q 536 148 450 148 q 670 178 613 148 q 759 262 727 208 q 790 391 790 317 l 833 386 l 556 386 l 556 528 l 966 528 l 966 406 q 910 183 966 278 q 757 37 854 89 q 534 -14 660 -14 m 526 1118 q 453 1146 483 1118 q 423 1215 423 1175 q 453 1283 423 1255 q 526 1311 483 1311 q 598 1283 568 1311 q 629 1215 629 1255 q 598 1146 629 1175 q 526 1118 568 1118 z "},"Ģ":{"ha":1036,"x_min":65,"x_max":966,"o":"m 534 -14 q 289 50 395 -14 q 124 230 184 113 q 65 504 65 346 q 126 783 65 666 q 292 962 186 899 q 530 1025 397 1025 q 686 1000 613 1025 q 816 930 759 975 q 909 822 873 884 q 958 685 946 760 l 773 685 q 740 759 762 726 q 688 815 719 791 q 618 850 657 838 q 532 863 579 863 q 385 821 449 863 q 283 699 320 779 q 247 505 247 619 q 283 312 247 392 q 385 190 319 233 q 536 148 450 148 q 670 178 613 148 q 759 262 727 208 q 790 391 790 317 l 833 386 l 556 386 l 556 528 l 966 528 l 966 406 q 910 183 966 278 q 757 37 854 89 q 534 -14 660 -14 m 381 -328 l 440 -80 l 607 -80 l 507 -328 l 381 -328 z "},"Ǧ":{"ha":1036,"x_min":65,"x_max":966,"o":"m 534 -14 q 289 50 395 -14 q 124 230 184 113 q 65 504 65 346 q 126 783 65 666 q 292 962 186 899 q 530 1025 397 1025 q 686 1000 613 1025 q 816 930 759 975 q 909 822 873 884 q 958 685 946 760 l 773 685 q 740 759 762 726 q 688 815 719 791 q 618 850 657 838 q 532 863 579 863 q 385 821 449 863 q 283 699 320 779 q 247 505 247 619 q 283 312 247 392 q 385 190 319 233 q 536 148 450 148 q 670 178 613 148 q 759 262 727 208 q 790 391 790 317 l 833 386 l 556 386 l 556 528 l 966 528 l 966 406 q 910 183 966 278 q 757 37 854 89 q 534 -14 660 -14 m 430 1314 l 526 1198 l 621 1314 l 777 1314 l 777 1310 l 597 1114 l 454 1114 l 275 1310 l 275 1314 l 430 1314 z "},"Ǵ":{"ha":1036,"x_min":65,"x_max":966,"o":"m 534 -14 q 289 50 395 -14 q 124 230 184 113 q 65 504 65 346 q 126 783 65 666 q 292 962 186 899 q 530 1025 397 1025 q 686 1000 613 1025 q 816 930 759 975 q 909 822 873 884 q 958 685 946 760 l 773 685 q 740 759 762 726 q 688 815 719 791 q 618 850 657 838 q 532 863 579 863 q 385 821 449 863 q 283 699 320 779 q 247 505 247 619 q 283 312 247 392 q 385 190 319 233 q 536 148 450 148 q 670 178 613 148 q 759 262 727 208 q 790 391 790 317 l 833 386 l 556 386 l 556 528 l 966 528 l 966 406 q 910 183 966 278 q 757 37 854 89 q 534 -14 660 -14 m 458 1106 l 555 1314 l 728 1314 l 585 1106 l 458 1106 z "},"Ḡ":{"ha":1036,"x_min":65,"x_max":966,"o":"m 534 -14 q 289 50 395 -14 q 124 230 184 113 q 65 504 65 346 q 126 783 65 666 q 292 962 186 899 q 530 1025 397 1025 q 686 1000 613 1025 q 816 930 759 975 q 909 822 873 884 q 958 685 946 760 l 773 685 q 740 759 762 726 q 688 815 719 791 q 618 850 657 838 q 532 863 579 863 q 385 821 449 863 q 283 699 320 779 q 247 505 247 619 q 283 312 247 392 q 385 190 319 233 q 536 148 450 148 q 670 178 613 148 q 759 262 727 208 q 790 391 790 317 l 833 386 l 556 386 l 556 528 l 966 528 l 966 406 q 910 183 966 278 q 757 37 854 89 q 534 -14 660 -14 m 719 1270 l 719 1152 l 332 1152 l 332 1270 l 719 1270 z "},"":{"ha":1050,"x_min":65,"x_max":966,"o":"m 517 -14 q 286 50 388 -14 q 124 230 184 113 q 65 504 65 346 q 126 783 65 666 q 292 962 186 899 q 530 1025 397 1025 q 686 1000 613 1025 q 816 930 759 975 q 909 822 873 884 q 958 685 946 760 l 773 685 q 740 759 762 726 q 688 815 719 791 q 618 850 657 838 q 532 863 579 863 q 385 821 449 863 q 283 699 320 779 q 247 505 247 619 q 283 312 247 392 q 386 190 320 233 q 538 148 451 148 q 672 179 615 148 q 760 267 729 210 q 791 403 791 324 l 839 403 l 839 319 q 821 194 839 254 q 764 87 802 134 q 664 13 725 40 q 517 -14 603 -14 m 841 0 l 816 235 l 816 386 l 556 386 l 556 528 l 966 528 l 966 0 l 841 0 z "},"":{"ha":1050,"x_min":65,"x_max":1027,"o":"m 517 -14 q 286 50 388 -14 q 124 230 184 113 q 65 504 65 346 q 126 783 65 666 q 292 962 186 899 q 530 1025 397 1025 q 686 1000 613 1025 q 816 930 759 975 q 909 822 873 884 q 958 685 946 760 l 773 685 q 740 759 762 726 q 688 815 719 791 q 618 850 657 838 q 532 863 579 863 q 385 821 449 863 q 283 699 320 779 q 247 505 247 619 q 283 312 247 392 q 386 190 320 233 q 538 148 451 148 q 672 179 615 148 q 760 267 729 210 q 791 403 791 324 l 839 403 l 839 319 q 821 194 839 254 q 764 87 802 134 q 664 13 725 40 q 517 -14 603 -14 m 841 0 l 816 235 l 816 386 l 556 386 l 556 528 l 966 528 l 966 0 l 841 0 m 556 235 l 556 317 l 1027 317 l 1027 235 l 556 235 z "},"":{"ha":1050,"x_min":65,"x_max":1107,"o":"m 785 685 l 785 941 q 843 1090 785 1039 q 1013 1141 900 1141 q 1066 1139 1042 1141 q 1107 1133 1090 1137 l 1107 1000 q 1078 1002 1094 1001 q 1048 1003 1062 1003 q 979 988 1000 1003 q 958 939 958 972 l 958 685 l 785 685 m 517 -14 q 286 50 388 -14 q 124 230 184 113 q 65 504 65 346 q 126 783 65 666 q 292 962 186 899 q 530 1025 397 1025 q 686 1000 613 1025 q 816 930 759 975 q 909 822 873 884 q 958 685 946 760 l 773 685 q 740 759 762 726 q 688 815 719 791 q 618 850 657 838 q 532 863 579 863 q 385 821 449 863 q 283 699 320 779 q 247 505 247 619 q 283 312 247 392 q 386 190 320 233 q 538 148 451 148 q 672 179 615 148 q 760 267 729 210 q 791 403 791 324 l 839 403 l 839 319 q 821 194 839 254 q 764 87 802 134 q 664 13 725 40 q 517 -14 603 -14 m 841 0 l 816 235 l 816 386 l 556 386 l 556 528 l 966 528 l 966 0 l 841 0 z "},"":{"ha":1050,"x_min":65,"x_max":966,"o":"m 517 -14 q 286 50 388 -14 q 124 230 184 113 q 65 504 65 346 q 126 783 65 666 q 292 962 186 899 q 530 1025 397 1025 q 686 1000 613 1025 q 816 930 759 975 q 909 822 873 884 q 958 685 946 760 l 773 685 q 740 759 762 726 q 688 815 719 791 q 618 850 657 838 q 532 863 579 863 q 385 821 449 863 q 283 699 320 779 q 247 505 247 619 q 283 312 247 392 q 386 190 320 233 q 538 148 451 148 q 672 179 615 148 q 760 267 729 210 q 791 403 791 324 l 839 403 l 839 319 q 821 194 839 254 q 764 87 802 134 q 664 13 725 40 q 517 -14 603 -14 m 841 0 l 816 235 l 816 386 l 556 386 l 556 528 l 966 528 l 966 0 l 841 0 m 430 1114 l 275 1114 l 275 1119 l 454 1314 l 597 1314 l 777 1119 l 777 1114 l 621 1114 l 526 1231 l 430 1114 z "},"":{"ha":1050,"x_min":65,"x_max":966,"o":"m 517 -14 q 286 50 388 -14 q 124 230 184 113 q 65 504 65 346 q 126 783 65 666 q 292 962 186 899 q 530 1025 397 1025 q 686 1000 613 1025 q 816 930 759 975 q 909 822 873 884 q 958 685 946 760 l 773 685 q 740 759 762 726 q 688 815 719 791 q 618 850 657 838 q 532 863 579 863 q 385 821 449 863 q 283 699 320 779 q 247 505 247 619 q 283 312 247 392 q 386 190 320 233 q 538 148 451 148 q 672 179 615 148 q 760 267 729 210 q 791 403 791 324 l 839 403 l 839 319 q 821 194 839 254 q 764 87 802 134 q 664 13 725 40 q 517 -14 603 -14 m 841 0 l 816 235 l 816 386 l 556 386 l 556 528 l 966 528 l 966 0 l 841 0 m 526 1107 q 413 1135 463 1107 q 334 1208 363 1162 q 304 1312 304 1255 l 414 1312 q 446 1239 414 1267 q 526 1210 477 1210 q 606 1239 574 1210 q 637 1312 637 1267 l 747 1312 q 718 1208 747 1255 q 638 1135 688 1162 q 526 1107 589 1107 z "},"":{"ha":1050,"x_min":65,"x_max":966,"o":"m 517 -14 q 286 50 388 -14 q 124 230 184 113 q 65 504 65 346 q 126 783 65 666 q 292 962 186 899 q 530 1025 397 1025 q 686 1000 613 1025 q 816 930 759 975 q 909 822 873 884 q 958 685 946 760 l 773 685 q 740 759 762 726 q 688 815 719 791 q 618 850 657 838 q 532 863 579 863 q 385 821 449 863 q 283 699 320 779 q 247 505 247 619 q 283 312 247 392 q 386 190 320 233 q 538 148 451 148 q 672 179 615 148 q 760 267 729 210 q 791 403 791 324 l 839 403 l 839 319 q 821 194 839 254 q 764 87 802 134 q 664 13 725 40 q 517 -14 603 -14 m 841 0 l 816 235 l 816 386 l 556 386 l 556 528 l 966 528 l 966 0 l 841 0 m 526 1118 q 453 1146 483 1118 q 423 1215 423 1175 q 453 1283 423 1255 q 526 1311 483 1311 q 598 1283 568 1311 q 629 1215 629 1255 q 598 1146 629 1175 q 526 1118 568 1118 z "},"":{"ha":1050,"x_min":65,"x_max":966,"o":"m 517 -14 q 286 50 388 -14 q 124 230 184 113 q 65 504 65 346 q 126 783 65 666 q 292 962 186 899 q 530 1025 397 1025 q 686 1000 613 1025 q 816 930 759 975 q 909 822 873 884 q 958 685 946 760 l 773 685 q 740 759 762 726 q 688 815 719 791 q 618 850 657 838 q 532 863 579 863 q 385 821 449 863 q 283 699 320 779 q 247 505 247 619 q 283 312 247 392 q 386 190 320 233 q 538 148 451 148 q 672 179 615 148 q 760 267 729 210 q 791 403 791 324 l 839 403 l 839 319 q 821 194 839 254 q 764 87 802 134 q 664 13 725 40 q 517 -14 603 -14 m 841 0 l 816 235 l 816 386 l 556 386 l 556 528 l 966 528 l 966 0 l 841 0 m 381 -328 l 440 -80 l 607 -80 l 507 -328 l 381 -328 z "},"":{"ha":1050,"x_min":65,"x_max":966,"o":"m 517 -14 q 286 50 388 -14 q 124 230 184 113 q 65 504 65 346 q 126 783 65 666 q 292 962 186 899 q 530 1025 397 1025 q 686 1000 613 1025 q 816 930 759 975 q 909 822 873 884 q 958 685 946 760 l 773 685 q 740 759 762 726 q 688 815 719 791 q 618 850 657 838 q 532 863 579 863 q 385 821 449 863 q 283 699 320 779 q 247 505 247 619 q 283 312 247 392 q 386 190 320 233 q 538 148 451 148 q 672 179 615 148 q 760 267 729 210 q 791 403 791 324 l 839 403 l 839 319 q 821 194 839 254 q 764 87 802 134 q 664 13 725 40 q 517 -14 603 -14 m 841 0 l 816 235 l 816 386 l 556 386 l 556 528 l 966 528 l 966 0 l 841 0 m 430 1314 l 526 1198 l 621 1314 l 777 1314 l 777 1310 l 597 1114 l 454 1114 l 275 1310 l 275 1314 l 430 1314 z "},"":{"ha":1050,"x_min":65,"x_max":966,"o":"m 517 -14 q 286 50 388 -14 q 124 230 184 113 q 65 504 65 346 q 126 783 65 666 q 292 962 186 899 q 530 1025 397 1025 q 686 1000 613 1025 q 816 930 759 975 q 909 822 873 884 q 958 685 946 760 l 773 685 q 740 759 762 726 q 688 815 719 791 q 618 850 657 838 q 532 863 579 863 q 385 821 449 863 q 283 699 320 779 q 247 505 247 619 q 283 312 247 392 q 386 190 320 233 q 538 148 451 148 q 672 179 615 148 q 760 267 729 210 q 791 403 791 324 l 839 403 l 839 319 q 821 194 839 254 q 764 87 802 134 q 664 13 725 40 q 517 -14 603 -14 m 841 0 l 816 235 l 816 386 l 556 386 l 556 528 l 966 528 l 966 0 l 841 0 m 458 1106 l 556 1314 l 728 1314 l 586 1106 l 458 1106 z "},"":{"ha":1050,"x_min":65,"x_max":966,"o":"m 517 -14 q 286 50 388 -14 q 124 230 184 113 q 65 504 65 346 q 126 783 65 666 q 292 962 186 899 q 530 1025 397 1025 q 686 1000 613 1025 q 816 930 759 975 q 909 822 873 884 q 958 685 946 760 l 773 685 q 740 759 762 726 q 688 815 719 791 q 618 850 657 838 q 532 863 579 863 q 385 821 449 863 q 283 699 320 779 q 247 505 247 619 q 283 312 247 392 q 386 190 320 233 q 538 148 451 148 q 672 179 615 148 q 760 267 729 210 q 791 403 791 324 l 839 403 l 839 319 q 821 194 839 254 q 764 87 802 134 q 664 13 725 40 q 517 -14 603 -14 m 841 0 l 816 235 l 816 386 l 556 386 l 556 528 l 966 528 l 966 0 l 841 0 m 720 1270 l 720 1152 l 333 1152 l 333 1270 l 720 1270 z "},"H":{"ha":1026,"x_min":98,"x_max":928,"o":"m 98 0 l 98 1010 l 279 1010 l 279 593 l 747 593 l 747 1010 l 928 1010 l 928 0 l 747 0 l 747 440 l 279 440 l 279 0 l 98 0 z "},"Ḩ":{"ha":1026,"x_min":98,"x_max":928,"o":"m 98 0 l 98 1010 l 279 1010 l 279 593 l 747 593 l 747 1010 l 928 1010 l 928 0 l 747 0 l 747 440 l 279 440 l 279 0 l 98 0 m 105 -283 l 105 -205 l 189 -205 q 236 -196 222 -205 q 250 -163 250 -186 q 236 -131 250 -140 q 189 -121 222 -121 l 130 -121 l 153 31 l 227 31 l 227 0 l 224 -58 q 322 -86 288 -58 q 355 -167 355 -114 q 316 -256 355 -228 q 195 -283 277 -283 l 105 -283 z "},"Ĥ":{"ha":1026,"x_min":98,"x_max":928,"o":"m 98 0 l 98 1010 l 279 1010 l 279 593 l 747 593 l 747 1010 l 928 1010 l 928 0 l 747 0 l 747 440 l 279 440 l 279 0 l 98 0 m 417 1114 l 262 1114 l 262 1119 l 441 1314 l 584 1314 l 764 1119 l 764 1114 l 608 1114 l 513 1231 l 417 1114 z "},"Ȟ":{"ha":1026,"x_min":98,"x_max":928,"o":"m 98 0 l 98 1010 l 279 1010 l 279 593 l 747 593 l 747 1010 l 928 1010 l 928 0 l 747 0 l 747 440 l 279 440 l 279 0 l 98 0 m 417 1314 l 513 1198 l 608 1314 l 764 1314 l 764 1310 l 584 1114 l 441 1114 l 262 1310 l 262 1314 l 417 1314 z "},"Ḣ":{"ha":1026,"x_min":98,"x_max":928,"o":"m 98 0 l 98 1010 l 279 1010 l 279 593 l 747 593 l 747 1010 l 928 1010 l 928 0 l 747 0 l 747 440 l 279 440 l 279 0 l 98 0 m 513 1118 q 440 1146 470 1118 q 410 1215 410 1175 q 440 1283 410 1255 q 513 1311 470 1311 q 586 1283 555 1311 q 616 1215 616 1255 q 586 1146 616 1175 q 513 1118 555 1118 z "},"Ḥ":{"ha":1026,"x_min":98,"x_max":928,"o":"m 98 0 l 98 1010 l 279 1010 l 279 593 l 747 593 l 747 1010 l 928 1010 l 928 0 l 747 0 l 747 440 l 279 440 l 279 0 l 98 0 m 513 -303 q 441 -275 471 -303 q 411 -206 411 -246 q 441 -138 411 -165 q 513 -110 471 -110 q 586 -138 556 -110 q 616 -206 616 -165 q 586 -275 616 -246 q 513 -303 556 -303 z "},"Ḧ":{"ha":1026,"x_min":98,"x_max":928,"o":"m 98 0 l 98 1010 l 279 1010 l 279 593 l 747 593 l 747 1010 l 928 1010 l 928 0 l 747 0 l 747 440 l 279 440 l 279 0 l 98 0 m 661 1121 q 593 1148 621 1121 q 565 1215 565 1176 q 593 1281 565 1254 q 661 1308 621 1308 q 728 1281 701 1308 q 755 1215 755 1254 q 728 1148 755 1176 q 661 1121 701 1121 m 365 1121 q 297 1148 325 1121 q 269 1215 269 1176 q 297 1281 269 1254 q 365 1308 325 1308 q 433 1281 405 1308 q 460 1215 460 1254 q 433 1148 460 1176 q 365 1121 405 1121 z "},"Ḫ":{"ha":1026,"x_min":98,"x_max":928,"o":"m 98 0 l 98 1010 l 279 1010 l 279 593 l 747 593 l 747 1010 l 928 1010 l 928 0 l 747 0 l 747 440 l 279 440 l 279 0 l 98 0 m 514 -311 q 402 -283 452 -311 q 322 -210 352 -256 q 293 -106 293 -163 l 402 -106 q 434 -179 402 -151 q 514 -208 466 -208 q 594 -179 562 -208 q 626 -106 626 -151 l 735 -106 q 706 -210 735 -163 q 627 -283 677 -256 q 514 -311 577 -311 z "},"Ħ":{"ha":1096,"x_min":51,"x_max":1045,"o":"m 1045 820 l 1045 707 l 51 707 l 51 820 l 1045 820 m 133 0 l 133 1010 l 314 1010 l 314 593 l 783 593 l 783 1010 l 964 1010 l 964 0 l 783 0 l 783 440 l 314 440 l 314 0 l 133 0 z "},"Ӈ":{"ha":1026,"x_min":98,"x_max":928,"o":"m 604 -283 l 604 -141 q 634 -143 618 -142 q 663 -144 650 -144 q 729 -129 711 -144 q 747 -81 747 -114 l 747 86 l 928 86 l 928 -90 q 870 -240 928 -189 q 699 -291 812 -291 q 647 -289 671 -291 q 604 -283 622 -287 m 98 0 l 98 1010 l 279 1010 l 279 593 l 747 593 l 747 1010 l 928 1010 l 928 0 l 747 0 l 747 440 l 279 440 l 279 0 l 98 0 z "},"Ң":{"ha":1058,"x_min":98,"x_max":1033,"o":"m 98 0 l 98 1010 l 279 1010 l 279 593 l 747 593 l 747 1010 l 928 1010 l 928 0 l 747 0 l 747 440 l 279 440 l 279 0 l 98 0 m 854 -217 l 854 0 l 799 0 l 799 147 l 1032 147 l 1026 -217 l 854 -217 z "},"Ӊ":{"ha":1026,"x_min":98,"x_max":1058,"o":"m 98 0 l 98 1010 l 279 1010 l 279 593 l 747 593 l 747 1010 l 928 1010 l 928 0 l 747 0 l 747 440 l 279 440 l 279 0 l 98 0 m 781 -217 l 848 0 l 796 0 l 796 144 l 1058 144 l 947 -217 l 781 -217 z "},"Ҥ":{"ha":1377,"x_min":98,"x_max":1326,"o":"m 1326 1010 l 1326 861 l 890 861 l 751 1010 l 1326 1010 m 98 0 l 98 1010 l 279 1010 l 279 593 l 747 593 l 747 1010 l 928 1010 l 928 0 l 747 0 l 747 440 l 279 440 l 279 0 l 98 0 z "},"Ƕ":{"ha":1537,"x_min":98,"x_max":1448,"o":"m 1100 -14 q 914 26 994 -14 q 791 140 835 65 q 747 321 747 215 l 747 431 l 279 431 l 279 0 l 98 0 l 98 1010 l 279 1010 l 279 585 l 747 585 l 747 1010 l 929 1010 l 929 323 q 949 222 929 263 q 1008 161 970 181 q 1100 140 1046 140 q 1192 161 1154 140 q 1249 222 1229 181 q 1269 323 1269 263 l 1269 739 l 1448 739 l 1448 321 q 1404 139 1448 214 q 1283 25 1361 64 q 1100 -14 1204 -14 z "},"Η":{"ha":1026,"x_min":98,"x_max":928,"o":"m 98 0 l 98 1010 l 279 1010 l 279 593 l 747 593 l 747 1010 l 928 1010 l 928 0 l 747 0 l 747 440 l 279 440 l 279 0 l 98 0 z "},"Ή":{"ha":1253,"x_min":51,"x_max":1156,"o":"m 325 0 l 325 1010 l 506 1010 l 506 593 l 975 593 l 975 1010 l 1156 1010 l 1156 0 l 975 0 l 975 440 l 506 440 l 506 0 l 325 0 m 51 803 l 74 1010 l 237 1010 l 159 803 l 51 803 z "},"Ἠ":{"ha":1270,"x_min":51,"x_max":1173,"o":"m 342 0 l 342 1010 l 523 1010 l 523 593 l 991 593 l 991 1010 l 1173 1010 l 1173 0 l 991 0 l 991 440 l 523 440 l 523 0 l 342 0 m 78 806 l 69 806 l 69 861 l 79 861 q 132 871 114 861 q 149 905 149 882 q 132 933 149 924 q 82 943 115 943 l 51 943 l 51 1031 l 78 1031 q 207 1002 162 1031 q 251 919 251 972 q 206 835 251 864 q 78 806 161 806 z "},"Ἡ":{"ha":1282,"x_min":51,"x_max":1184,"o":"m 353 0 l 353 1010 l 534 1010 l 534 593 l 1003 593 l 1003 1010 l 1184 1010 l 1184 0 l 1003 0 l 1003 440 l 534 440 l 534 0 l 353 0 m 224 791 q 96 820 140 791 q 51 904 51 849 q 95 987 51 958 q 224 1016 140 1016 l 251 1016 l 251 928 l 220 928 q 170 919 186 928 q 153 890 153 909 q 170 857 153 867 q 223 846 188 846 l 233 846 l 233 791 l 224 791 z "},"Ἢ":{"ha":1506,"x_min":51,"x_max":1408,"o":"m 577 0 l 577 1010 l 758 1010 l 758 593 l 1227 593 l 1227 1010 l 1408 1010 l 1408 0 l 1227 0 l 1227 440 l 758 440 l 758 0 l 577 0 m 78 791 l 69 791 l 69 846 l 79 846 q 132 857 114 846 q 149 890 149 867 q 132 919 149 909 q 82 928 115 928 l 51 928 l 51 1016 l 78 1016 q 207 987 162 1016 q 251 904 251 958 q 206 820 251 849 q 78 791 161 791 m 450 798 l 349 798 l 276 1010 l 428 1010 l 450 798 z "},"Ἣ":{"ha":1527,"x_min":51,"x_max":1430,"o":"m 599 0 l 599 1010 l 780 1010 l 780 593 l 1249 593 l 1249 1010 l 1430 1010 l 1430 0 l 1249 0 l 1249 440 l 780 440 l 780 0 l 599 0 m 224 791 q 96 820 140 791 q 51 904 51 849 q 95 987 51 958 q 224 1016 140 1016 l 251 1016 l 251 928 l 220 928 q 170 919 186 928 q 153 890 153 909 q 170 857 153 867 q 223 846 188 846 l 233 846 l 233 791 l 224 791 m 472 798 l 372 798 l 298 1010 l 450 1010 l 472 798 z "},"Ἤ":{"ha":1512,"x_min":51,"x_max":1415,"o":"m 584 0 l 584 1010 l 765 1010 l 765 593 l 1234 593 l 1234 1010 l 1415 1010 l 1415 0 l 1234 0 l 1234 440 l 765 440 l 765 0 l 584 0 m 78 791 l 69 791 l 69 846 l 79 846 q 132 857 114 846 q 149 890 149 867 q 132 919 149 909 q 82 928 115 928 l 51 928 l 51 1016 l 78 1016 q 207 987 162 1016 q 251 904 251 958 q 206 820 251 849 q 78 791 161 791 m 328 798 l 350 1010 l 502 1010 l 429 798 l 328 798 z "},"Ἥ":{"ha":1527,"x_min":51,"x_max":1430,"o":"m 599 0 l 599 1010 l 780 1010 l 780 593 l 1249 593 l 1249 1010 l 1430 1010 l 1430 0 l 1249 0 l 1249 440 l 780 440 l 780 0 l 599 0 m 224 791 q 96 820 140 791 q 51 904 51 849 q 95 987 51 958 q 224 1016 140 1016 l 251 1016 l 251 928 l 220 928 q 170 919 186 928 q 153 890 153 909 q 170 857 153 867 q 223 846 188 846 l 233 846 l 233 791 l 224 791 m 338 798 l 360 1010 l 512 1010 l 439 798 l 338 798 z "},"Ἦ":{"ha":1395,"x_min":51,"x_max":1297,"o":"m 467 0 l 467 1010 l 648 1010 l 648 593 l 1116 593 l 1116 1010 l 1297 1010 l 1297 0 l 1116 0 l 1116 440 l 648 440 l 648 0 l 467 0 m 198 802 l 190 802 l 190 856 l 199 856 q 252 867 234 856 q 269 900 269 878 q 253 929 269 919 q 203 939 236 939 l 172 939 l 172 1026 l 198 1026 q 327 997 283 1026 q 371 914 371 968 q 327 830 371 859 q 198 802 282 802 m 363 1086 q 309 1096 334 1086 q 263 1118 284 1105 q 225 1139 243 1130 q 193 1149 208 1149 q 164 1132 174 1149 q 153 1090 154 1114 l 51 1090 q 87 1206 53 1164 q 180 1249 121 1249 q 234 1239 210 1249 q 277 1217 258 1230 q 314 1196 297 1205 q 349 1186 332 1186 q 379 1201 370 1186 q 392 1245 389 1215 l 492 1245 q 455 1129 490 1171 q 363 1086 420 1086 z "},"Ἧ":{"ha":1407,"x_min":51,"x_max":1309,"o":"m 478 0 l 478 1010 l 659 1010 l 659 593 l 1128 593 l 1128 1010 l 1309 1010 l 1309 0 l 1128 0 l 1128 440 l 659 440 l 659 0 l 478 0 m 345 789 q 216 818 260 789 q 172 901 172 846 q 216 984 172 955 q 345 1013 260 1013 l 371 1013 l 371 926 l 340 926 q 290 916 307 926 q 273 887 273 906 q 291 854 273 865 q 343 843 309 843 l 353 843 l 353 789 l 345 789 m 363 1074 q 309 1083 334 1074 q 263 1105 284 1093 q 225 1126 243 1117 q 193 1136 208 1136 q 164 1119 174 1136 q 153 1077 154 1101 l 51 1077 q 87 1193 53 1151 q 180 1236 121 1236 q 234 1226 210 1236 q 277 1204 258 1217 q 314 1183 297 1192 q 349 1173 332 1173 q 379 1188 370 1173 q 392 1232 389 1202 l 492 1232 q 455 1116 490 1158 q 363 1074 420 1074 z "},"Ὴ":{"ha":1225,"x_min":-64,"x_max":1127,"o":"m 296 0 l 296 1010 l 477 1010 l 477 593 l 946 593 l 946 1010 l 1127 1010 l 1127 0 l 946 0 l 946 440 l 477 440 l 477 0 l 296 0 m 123 842 l 14 842 l -64 1049 l 100 1049 l 123 842 z "},"Ή":{"ha":1253,"x_min":51,"x_max":1156,"o":"m 325 0 l 325 1010 l 506 1010 l 506 593 l 975 593 l 975 1010 l 1156 1010 l 1156 0 l 975 0 l 975 440 l 506 440 l 506 0 l 325 0 m 51 803 l 74 1010 l 237 1010 l 159 803 l 51 803 z "},"Н":{"ha":1026,"x_min":98,"x_max":928,"o":"m 98 0 l 98 1010 l 279 1010 l 279 593 l 747 593 l 747 1010 l 928 1010 l 928 0 l 747 0 l 747 440 l 279 440 l 279 0 l 98 0 z "},"ᾘ":{"ha":1270,"x_min":51,"x_max":1173,"o":"m 342 0 l 342 1010 l 523 1010 l 523 593 l 991 593 l 991 1010 l 1173 1010 l 1173 0 l 991 0 l 991 440 l 523 440 l 523 0 l 342 0 m 814 -332 q 720 -299 751 -332 q 688 -205 688 -265 l 688 -80 l 825 -80 l 825 -197 q 832 -232 825 -221 q 861 -242 840 -242 q 876 -241 868 -242 q 893 -240 883 -241 l 893 -326 q 855 -331 878 -329 q 814 -332 833 -332 m 78 806 l 69 806 l 69 861 l 79 861 q 132 871 114 861 q 149 905 149 882 q 132 933 149 924 q 82 943 115 943 l 51 943 l 51 1031 l 78 1031 q 207 1002 162 1031 q 251 919 251 972 q 206 835 251 864 q 78 806 161 806 z "},"ᾙ":{"ha":1282,"x_min":51,"x_max":1184,"o":"m 353 0 l 353 1010 l 534 1010 l 534 593 l 1003 593 l 1003 1010 l 1184 1010 l 1184 0 l 1003 0 l 1003 440 l 534 440 l 534 0 l 353 0 m 826 -332 q 732 -299 764 -332 q 700 -205 700 -265 l 700 -80 l 837 -80 l 837 -197 q 844 -232 837 -221 q 873 -242 852 -242 q 888 -241 880 -242 q 905 -240 895 -241 l 905 -326 q 867 -331 890 -329 q 826 -332 845 -332 m 224 791 q 96 820 140 791 q 51 904 51 849 q 95 987 51 958 q 224 1016 140 1016 l 251 1016 l 251 928 l 220 928 q 170 919 186 928 q 153 890 153 909 q 170 857 153 867 q 223 846 188 846 l 233 846 l 233 791 l 224 791 z "},"ᾚ":{"ha":1506,"x_min":51,"x_max":1408,"o":"m 577 0 l 577 1010 l 758 1010 l 758 593 l 1227 593 l 1227 1010 l 1408 1010 l 1408 0 l 1227 0 l 1227 440 l 758 440 l 758 0 l 577 0 m 1050 -332 q 956 -299 987 -332 q 924 -205 924 -265 l 924 -80 l 1061 -80 l 1061 -197 q 1068 -232 1061 -221 q 1097 -242 1076 -242 q 1112 -241 1104 -242 q 1129 -240 1119 -241 l 1129 -326 q 1091 -331 1114 -329 q 1050 -332 1069 -332 m 78 791 l 69 791 l 69 846 l 79 846 q 132 857 114 846 q 149 890 149 867 q 132 919 149 909 q 82 928 115 928 l 51 928 l 51 1016 l 78 1016 q 207 987 162 1016 q 251 904 251 958 q 206 820 251 849 q 78 791 161 791 m 450 798 l 349 798 l 276 1010 l 428 1010 l 450 798 z "},"ᾛ":{"ha":1527,"x_min":51,"x_max":1430,"o":"m 599 0 l 599 1010 l 780 1010 l 780 593 l 1249 593 l 1249 1010 l 1430 1010 l 1430 0 l 1249 0 l 1249 440 l 780 440 l 780 0 l 599 0 m 1072 -332 q 977 -299 1009 -332 q 945 -205 945 -265 l 945 -80 l 1082 -80 l 1082 -197 q 1090 -232 1082 -221 q 1119 -242 1097 -242 q 1133 -241 1126 -242 q 1151 -240 1141 -241 l 1151 -326 q 1113 -331 1135 -329 q 1072 -332 1090 -332 m 224 791 q 96 820 140 791 q 51 904 51 849 q 95 987 51 958 q 224 1016 140 1016 l 251 1016 l 251 928 l 220 928 q 170 919 186 928 q 153 890 153 909 q 170 857 153 867 q 223 846 188 846 l 233 846 l 233 791 l 224 791 m 472 798 l 372 798 l 298 1010 l 450 1010 l 472 798 z "},"ᾜ":{"ha":1512,"x_min":51,"x_max":1415,"o":"m 584 0 l 584 1010 l 765 1010 l 765 593 l 1234 593 l 1234 1010 l 1415 1010 l 1415 0 l 1234 0 l 1234 440 l 765 440 l 765 0 l 584 0 m 1057 -332 q 962 -299 994 -332 q 930 -205 930 -265 l 930 -80 l 1067 -80 l 1067 -197 q 1075 -232 1067 -221 q 1104 -242 1082 -242 q 1118 -241 1111 -242 q 1136 -240 1126 -241 l 1136 -326 q 1098 -331 1120 -329 q 1057 -332 1076 -332 m 78 791 l 69 791 l 69 846 l 79 846 q 132 857 114 846 q 149 890 149 867 q 132 919 149 909 q 82 928 115 928 l 51 928 l 51 1016 l 78 1016 q 207 987 162 1016 q 251 904 251 958 q 206 820 251 849 q 78 791 161 791 m 328 798 l 350 1010 l 502 1010 l 429 798 l 328 798 z "},"ᾝ":{"ha":1527,"x_min":51,"x_max":1430,"o":"m 599 0 l 599 1010 l 780 1010 l 780 593 l 1249 593 l 1249 1010 l 1430 1010 l 1430 0 l 1249 0 l 1249 440 l 780 440 l 780 0 l 599 0 m 1071 -332 q 977 -299 1008 -332 q 945 -205 945 -265 l 945 -80 l 1082 -80 l 1082 -197 q 1089 -232 1082 -221 q 1118 -242 1097 -242 q 1133 -241 1125 -242 q 1150 -240 1140 -241 l 1150 -326 q 1112 -331 1135 -329 q 1071 -332 1090 -332 m 224 791 q 96 820 140 791 q 51 904 51 849 q 95 987 51 958 q 224 1016 140 1016 l 251 1016 l 251 928 l 220 928 q 170 919 186 928 q 153 890 153 909 q 170 857 153 867 q 223 846 188 846 l 233 846 l 233 791 l 224 791 m 338 798 l 360 1010 l 512 1010 l 439 798 l 338 798 z "},"ᾞ":{"ha":1395,"x_min":51,"x_max":1297,"o":"m 467 0 l 467 1010 l 648 1010 l 648 593 l 1116 593 l 1116 1010 l 1297 1010 l 1297 0 l 1116 0 l 1116 440 l 648 440 l 648 0 l 467 0 m 939 -332 q 845 -299 877 -332 q 813 -205 813 -265 l 813 -80 l 950 -80 l 950 -197 q 958 -232 950 -221 q 987 -242 965 -242 q 1001 -241 994 -242 q 1019 -240 1008 -241 l 1019 -326 q 981 -331 1003 -329 q 939 -332 958 -332 m 198 802 l 190 802 l 190 856 l 199 856 q 252 867 234 856 q 269 900 269 878 q 253 929 269 919 q 203 939 236 939 l 172 939 l 172 1026 l 198 1026 q 327 997 283 1026 q 371 914 371 968 q 327 830 371 859 q 198 802 282 802 m 363 1086 q 309 1096 334 1086 q 263 1118 284 1105 q 225 1139 243 1130 q 193 1149 208 1149 q 164 1132 174 1149 q 153 1090 154 1114 l 51 1090 q 87 1206 53 1164 q 180 1249 121 1249 q 234 1239 210 1249 q 277 1217 258 1230 q 314 1196 297 1205 q 349 1186 332 1186 q 379 1201 370 1186 q 392 1245 389 1215 l 492 1245 q 455 1129 490 1171 q 363 1086 420 1086 z "},"ᾟ":{"ha":1407,"x_min":51,"x_max":1309,"o":"m 478 0 l 478 1010 l 659 1010 l 659 593 l 1128 593 l 1128 1010 l 1309 1010 l 1309 0 l 1128 0 l 1128 440 l 659 440 l 659 0 l 478 0 m 951 -332 q 857 -299 888 -332 q 825 -205 825 -265 l 825 -80 l 962 -80 l 962 -197 q 969 -232 962 -221 q 998 -242 977 -242 q 1013 -241 1005 -242 q 1030 -240 1020 -241 l 1030 -326 q 992 -331 1015 -329 q 951 -332 970 -332 m 345 789 q 216 818 260 789 q 172 901 172 846 q 216 984 172 955 q 345 1013 260 1013 l 371 1013 l 371 926 l 340 926 q 290 916 307 926 q 273 887 273 906 q 291 854 273 865 q 343 843 309 843 l 353 843 l 353 789 l 345 789 m 363 1074 q 309 1083 334 1074 q 263 1105 284 1093 q 225 1126 243 1117 q 193 1136 208 1136 q 164 1119 174 1136 q 153 1077 154 1101 l 51 1077 q 87 1193 53 1151 q 180 1236 121 1236 q 234 1226 210 1236 q 277 1204 258 1217 q 314 1183 297 1192 q 349 1173 332 1173 q 379 1188 370 1173 q 392 1232 389 1202 l 492 1232 q 455 1116 490 1158 q 363 1074 420 1074 z "},"ῌ":{"ha":1026,"x_min":98,"x_max":928,"o":"m 98 0 l 98 1010 l 279 1010 l 279 593 l 747 593 l 747 1010 l 928 1010 l 928 0 l 747 0 l 747 440 l 279 440 l 279 0 l 98 0 m 570 -332 q 476 -299 508 -332 q 444 -205 444 -265 l 444 -80 l 581 -80 l 581 -197 q 589 -232 581 -221 q 618 -242 596 -242 q 632 -241 625 -242 q 650 -240 640 -241 l 650 -326 q 612 -331 634 -329 q 570 -332 589 -332 z "},"I":{"ha":376,"x_min":98,"x_max":279,"o":"m 279 1010 l 279 0 l 98 0 l 98 1010 l 279 1010 z "},"":{"ha":752,"x_min":98,"x_max":654,"o":"m 279 1010 l 279 0 l 98 0 l 98 1010 l 279 1010 m 654 1010 l 654 0 l 473 0 l 473 1010 l 654 1010 z "},"Ï":{"ha":376,"x_min":-55,"x_max":432,"o":"m 279 1010 l 279 0 l 98 0 l 98 1010 l 279 1010 m 336 1121 q 269 1148 296 1121 q 241 1215 241 1176 q 269 1281 241 1254 q 336 1308 296 1308 q 404 1281 376 1308 q 431 1215 431 1254 q 404 1148 431 1176 q 336 1121 376 1121 m 41 1121 q -27 1148 1 1121 q -55 1215 -55 1176 q -27 1281 -55 1254 q 41 1308 1 1308 q 109 1281 81 1308 q 136 1215 136 1254 q 109 1148 136 1176 q 41 1121 81 1121 z "},"Ḯ":{"ha":376,"x_min":-55,"x_max":432,"o":"m 279 1010 l 279 0 l 98 0 l 98 1010 l 279 1010 m 336 1102 q 269 1129 296 1102 q 241 1196 241 1157 q 269 1262 241 1235 q 336 1289 296 1289 q 404 1262 376 1289 q 431 1196 431 1235 q 404 1129 431 1157 q 336 1102 376 1102 m 41 1102 q -27 1129 1 1102 q -55 1196 -55 1157 q -27 1262 -55 1235 q 41 1289 1 1289 q 109 1262 81 1289 q 136 1196 136 1235 q 109 1129 136 1157 q 41 1102 81 1102 m 128 1348 l 220 1533 l 376 1533 l 244 1348 l 128 1348 z "},"Ɨ":{"ha":486,"x_min":11,"x_max":475,"o":"m 334 1010 l 334 0 l 153 0 l 153 1010 l 334 1010 m 11 482 l 11 570 l 475 570 l 475 482 l 11 482 z "},"Ḭ":{"ha":376,"x_min":-33,"x_max":412,"o":"m 279 1010 l 279 0 l 98 0 l 98 1010 l 279 1010 m 282 -290 q 227 -280 252 -290 q 181 -257 202 -270 q 143 -234 161 -244 q 111 -224 126 -224 q 81 -242 91 -224 q 69 -286 71 -260 l -33 -286 q 3 -164 -31 -208 q 97 -120 37 -120 q 152 -130 127 -120 q 196 -153 176 -140 q 233 -175 216 -165 q 268 -185 250 -185 q 299 -170 289 -185 q 311 -123 309 -155 l 412 -123 q 375 -245 410 -201 q 282 -290 339 -290 z "},"Ì":{"ha":376,"x_min":-14,"x_max":279,"o":"m 279 1010 l 279 0 l 98 0 l 98 1010 l 279 1010 m 127 1106 l -15 1314 l 157 1314 l 255 1106 l 127 1106 z "},"Í":{"ha":376,"x_min":98,"x_max":391,"o":"m 279 1010 l 279 0 l 98 0 l 98 1010 l 279 1010 m 121 1106 l 218 1314 l 391 1314 l 248 1106 l 121 1106 z "},"Î":{"ha":376,"x_min":-62,"x_max":439,"o":"m 279 1010 l 279 0 l 98 0 l 98 1010 l 279 1010 m 92 1114 l -62 1114 l -62 1119 l 116 1314 l 259 1314 l 439 1119 l 439 1114 l 283 1114 l 188 1231 l 92 1114 z "},"Ĩ":{"ha":376,"x_min":-34,"x_max":411,"o":"m 279 1010 l 279 0 l 98 0 l 98 1010 l 279 1010 m 281 1129 q 227 1139 252 1129 q 181 1162 201 1149 q 143 1184 160 1175 q 111 1194 125 1194 q 80 1177 90 1194 q 68 1133 70 1159 l -34 1133 q 2 1255 -32 1211 q 96 1299 37 1299 q 151 1289 127 1299 q 195 1266 175 1279 q 232 1243 215 1253 q 267 1234 250 1234 q 298 1249 288 1234 q 310 1295 308 1264 l 411 1295 q 374 1173 410 1217 q 281 1129 338 1129 z "},"Ī":{"ha":376,"x_min":-5,"x_max":382,"o":"m 279 1010 l 279 0 l 98 0 l 98 1010 l 279 1010 m 382 1270 l 382 1152 l -5 1152 l -5 1270 l 382 1270 z "},"Ĭ":{"ha":376,"x_min":-33,"x_max":410,"o":"m 279 1010 l 279 0 l 98 0 l 98 1010 l 279 1010 m 188 1107 q 76 1135 125 1107 q -4 1208 26 1162 q -33 1312 -33 1255 l 76 1312 q 108 1239 76 1267 q 188 1210 140 1210 q 268 1239 236 1210 q 300 1312 300 1267 l 409 1312 q 380 1208 409 1255 q 301 1135 351 1162 q 188 1107 251 1107 z "},"Į":{"ha":376,"x_min":9,"x_max":308,"o":"m 279 1010 l 279 0 l 98 0 l 98 1010 l 279 1010 m 180 -291 q 57 -255 105 -291 q 9 -153 9 -219 q 37 -61 9 -104 q 116 18 64 -18 l 279 0 q 198 -59 227 -31 q 170 -124 170 -88 q 183 -160 170 -147 q 222 -174 196 -174 q 251 -170 237 -174 q 275 -161 264 -166 l 308 -264 q 252 -283 285 -275 q 180 -291 218 -291 z "},"İ":{"ha":376,"x_min":85,"x_max":291,"o":"m 279 1010 l 279 0 l 98 0 l 98 1010 l 279 1010 m 189 1118 q 116 1146 146 1118 q 86 1215 86 1175 q 116 1283 86 1255 q 189 1311 146 1311 q 261 1283 231 1311 q 292 1215 292 1255 q 261 1146 292 1175 q 189 1118 231 1118 z "},"Ǐ":{"ha":376,"x_min":-62,"x_max":439,"o":"m 279 1010 l 279 0 l 98 0 l 98 1010 l 279 1010 m 92 1314 l 188 1198 l 283 1314 l 439 1314 l 439 1310 l 259 1114 l 116 1114 l -62 1310 l -62 1314 l 92 1314 z "},"Ȉ":{"ha":376,"x_min":-150,"x_max":370,"o":"m 279 1010 l 279 0 l 98 0 l 98 1010 l 279 1010 m 241 1106 l 126 1314 l 292 1314 l 370 1106 l 241 1106 m 12 1106 l -150 1314 l 25 1314 l 142 1106 l 12 1106 z "},"Ȋ":{"ha":376,"x_min":-38,"x_max":414,"o":"m 279 1010 l 279 0 l 98 0 l 98 1010 l 279 1010 m 189 1324 q 304 1296 254 1324 q 385 1221 355 1268 q 414 1114 414 1173 l 305 1114 q 271 1190 305 1160 q 189 1219 237 1219 q 105 1190 140 1219 q 71 1114 71 1160 l -38 1114 q -8 1221 -38 1173 q 72 1296 21 1268 q 189 1324 123 1324 z "},"Ỉ":{"ha":376,"x_min":64,"x_max":305,"o":"m 279 1010 l 279 0 l 98 0 l 98 1010 l 279 1010 m 239 1106 l 127 1106 l 178 1198 q 180 1213 182 1208 q 167 1217 177 1217 l 64 1217 l 64 1314 l 168 1314 q 250 1300 220 1314 q 293 1264 281 1286 q 300 1214 305 1242 q 275 1159 296 1187 l 239 1106 z "},"Ị":{"ha":376,"x_min":86,"x_max":292,"o":"m 279 1010 l 279 0 l 98 0 l 98 1010 l 279 1010 m 189 -303 q 116 -275 146 -303 q 86 -206 86 -246 q 116 -138 86 -165 q 189 -110 146 -110 q 261 -138 231 -110 q 292 -206 292 -165 q 261 -275 292 -246 q 189 -303 231 -303 z "},"Ɩ":{"ha":401,"x_min":90,"x_max":388,"o":"m 298 -4 q 140 43 191 -4 q 90 186 90 91 l 90 1010 l 264 1010 l 264 212 q 278 155 264 172 q 325 138 291 138 q 349 139 340 138 q 365 141 357 140 l 388 7 q 349 0 372 3 q 298 -4 326 -4 z "},"Ι":{"ha":376,"x_min":98,"x_max":279,"o":"m 279 1010 l 279 0 l 98 0 l 98 1010 l 279 1010 z "},"Ί":{"ha":603,"x_min":51,"x_max":506,"o":"m 506 1010 l 506 0 l 325 0 l 325 1010 l 506 1010 m 51 803 l 74 1010 l 237 1010 l 159 803 l 51 803 z "},"Ϊ":{"ha":376,"x_min":-55,"x_max":432,"o":"m 279 1010 l 279 0 l 98 0 l 98 1010 l 279 1010 m 336 1121 q 269 1148 296 1121 q 241 1215 241 1176 q 269 1281 241 1254 q 336 1308 296 1308 q 404 1281 376 1308 q 431 1215 431 1254 q 404 1148 431 1176 q 336 1121 376 1121 m 41 1121 q -27 1148 1 1121 q -55 1215 -55 1176 q -27 1281 -55 1254 q 41 1308 1 1308 q 109 1281 81 1308 q 136 1215 136 1254 q 109 1148 136 1176 q 41 1121 81 1121 z "},"Ἰ":{"ha":620,"x_min":51,"x_max":522,"o":"m 523 1010 l 523 0 l 342 0 l 342 1010 l 523 1010 m 78 806 l 69 806 l 69 861 l 79 861 q 132 871 114 861 q 149 905 149 882 q 132 933 149 924 q 82 943 115 943 l 51 943 l 51 1031 l 78 1031 q 207 1002 162 1031 q 251 919 251 972 q 206 835 251 864 q 78 806 161 806 z "},"Ἱ":{"ha":632,"x_min":51,"x_max":534,"o":"m 534 1010 l 534 0 l 353 0 l 353 1010 l 534 1010 m 224 791 q 96 820 140 791 q 51 904 51 849 q 95 987 51 958 q 224 1016 140 1016 l 251 1016 l 251 928 l 220 928 q 170 919 186 928 q 153 890 153 909 q 170 857 153 867 q 223 846 188 846 l 233 846 l 233 791 l 224 791 z "},"Ἲ":{"ha":856,"x_min":51,"x_max":758,"o":"m 758 1010 l 758 0 l 577 0 l 577 1010 l 758 1010 m 78 791 l 69 791 l 69 846 l 79 846 q 132 857 114 846 q 149 890 149 867 q 132 919 149 909 q 82 928 115 928 l 51 928 l 51 1016 l 78 1016 q 207 987 162 1016 q 251 904 251 958 q 206 820 251 849 q 78 791 161 791 m 450 798 l 349 798 l 276 1010 l 428 1010 l 450 798 z "},"Ἳ":{"ha":878,"x_min":51,"x_max":780,"o":"m 780 1010 l 780 0 l 599 0 l 599 1010 l 780 1010 m 224 791 q 96 820 140 791 q 51 904 51 849 q 95 987 51 958 q 224 1016 140 1016 l 251 1016 l 251 928 l 220 928 q 170 919 186 928 q 153 890 153 909 q 170 857 153 867 q 223 846 188 846 l 233 846 l 233 791 l 224 791 m 472 798 l 372 798 l 298 1010 l 450 1010 l 472 798 z "},"Ἴ":{"ha":862,"x_min":51,"x_max":764,"o":"m 765 1010 l 765 0 l 584 0 l 584 1010 l 765 1010 m 78 791 l 69 791 l 69 846 l 79 846 q 132 857 114 846 q 149 890 149 867 q 132 919 149 909 q 82 928 115 928 l 51 928 l 51 1016 l 78 1016 q 207 987 162 1016 q 251 904 251 958 q 206 820 251 849 q 78 791 161 791 m 328 798 l 350 1010 l 502 1010 l 429 798 l 328 798 z "},"Ἵ":{"ha":877,"x_min":51,"x_max":779,"o":"m 780 1010 l 780 0 l 599 0 l 599 1010 l 780 1010 m 224 791 q 96 820 140 791 q 51 904 51 849 q 95 987 51 958 q 224 1016 140 1016 l 251 1016 l 251 928 l 220 928 q 170 919 186 928 q 153 890 153 909 q 170 857 153 867 q 223 846 188 846 l 233 846 l 233 791 l 224 791 m 338 798 l 360 1010 l 512 1010 l 439 798 l 338 798 z "},"Ἶ":{"ha":745,"x_min":51,"x_max":648,"o":"m 648 1010 l 648 0 l 467 0 l 467 1010 l 648 1010 m 198 802 l 190 802 l 190 856 l 199 856 q 252 867 234 856 q 269 900 269 878 q 253 929 269 919 q 203 939 236 939 l 172 939 l 172 1026 l 198 1026 q 327 997 283 1026 q 371 914 371 968 q 327 830 371 859 q 198 802 282 802 m 363 1086 q 309 1096 334 1086 q 263 1118 284 1105 q 225 1139 243 1130 q 193 1149 208 1149 q 164 1132 174 1149 q 153 1090 154 1114 l 51 1090 q 87 1206 53 1164 q 180 1249 121 1249 q 234 1239 210 1249 q 277 1217 258 1230 q 314 1196 297 1205 q 349 1186 332 1186 q 379 1201 370 1186 q 392 1245 389 1215 l 492 1245 q 455 1129 490 1171 q 363 1086 420 1086 z "},"Ἷ":{"ha":756,"x_min":51,"x_max":659,"o":"m 659 1010 l 659 0 l 478 0 l 478 1010 l 659 1010 m 345 789 q 216 818 260 789 q 172 901 172 846 q 216 984 172 955 q 345 1013 260 1013 l 371 1013 l 371 926 l 340 926 q 290 916 307 926 q 273 887 273 906 q 291 854 273 865 q 343 843 309 843 l 353 843 l 353 789 l 345 789 m 363 1074 q 309 1083 334 1074 q 263 1105 284 1093 q 225 1126 243 1117 q 193 1136 208 1136 q 164 1119 174 1136 q 153 1077 154 1101 l 51 1077 q 87 1193 53 1151 q 180 1236 121 1236 q 234 1226 210 1236 q 277 1204 258 1217 q 314 1183 297 1192 q 349 1173 332 1173 q 379 1188 370 1173 q 392 1232 389 1202 l 492 1232 q 455 1116 490 1158 q 363 1074 420 1074 z "},"Ῐ":{"ha":376,"x_min":-33,"x_max":410,"o":"m 279 1010 l 279 0 l 98 0 l 98 1010 l 279 1010 m 188 1107 q 76 1135 125 1107 q -4 1208 26 1162 q -33 1312 -33 1255 l 76 1312 q 108 1239 76 1267 q 188 1210 140 1210 q 268 1239 236 1210 q 300 1312 300 1267 l 409 1312 q 380 1208 409 1255 q 301 1135 351 1162 q 188 1107 251 1107 z "},"Ῑ":{"ha":376,"x_min":-5,"x_max":382,"o":"m 279 1010 l 279 0 l 98 0 l 98 1010 l 279 1010 m 382 1270 l 382 1152 l -5 1152 l -5 1270 l 382 1270 z "},"Ὶ":{"ha":575,"x_min":-64,"x_max":477,"o":"m 477 1010 l 477 0 l 296 0 l 296 1010 l 477 1010 m 123 842 l 14 842 l -64 1049 l 100 1049 l 123 842 z "},"Ί":{"ha":603,"x_min":51,"x_max":506,"o":"m 506 1010 l 506 0 l 325 0 l 325 1010 l 506 1010 m 51 803 l 74 1010 l 237 1010 l 159 803 l 51 803 z "},"І":{"ha":376,"x_min":98,"x_max":279,"o":"m 279 1010 l 279 0 l 98 0 l 98 1010 l 279 1010 z "},"Ї":{"ha":376,"x_min":-55,"x_max":432,"o":"m 279 1010 l 279 0 l 98 0 l 98 1010 l 279 1010 m 336 1121 q 269 1148 296 1121 q 241 1215 241 1176 q 269 1281 241 1254 q 336 1308 296 1308 q 404 1281 376 1308 q 431 1215 431 1254 q 404 1148 431 1176 q 336 1121 376 1121 m 41 1121 q -27 1148 1 1121 q -55 1215 -55 1176 q -27 1281 -55 1254 q 41 1308 1 1308 q 109 1281 81 1308 q 136 1215 136 1254 q 109 1148 136 1176 q 41 1121 81 1121 z "},"":{"ha":617,"x_min":52,"x_max":565,"o":"m 52 0 l 52 152 l 218 152 l 218 859 l 52 859 l 52 1010 l 565 1010 l 565 859 l 399 859 l 399 152 l 565 152 l 565 0 l 52 0 z "},"":{"ha":617,"x_min":52,"x_max":565,"o":"m 52 0 l 52 152 l 218 152 l 218 859 l 52 859 l 52 1010 l 565 1010 l 565 859 l 399 859 l 399 152 l 565 152 l 565 0 l 52 0 m 457 1121 q 389 1148 417 1121 q 361 1215 361 1176 q 389 1281 361 1254 q 457 1308 417 1308 q 525 1281 497 1308 q 552 1215 552 1254 q 525 1148 552 1176 q 457 1121 497 1121 m 161 1121 q 94 1148 121 1121 q 66 1215 66 1176 q 94 1281 66 1254 q 161 1308 121 1308 q 229 1281 201 1308 q 257 1215 257 1254 q 229 1148 257 1176 q 161 1121 201 1121 z "},"":{"ha":617,"x_min":52,"x_max":565,"o":"m 52 0 l 52 152 l 218 152 l 218 859 l 52 859 l 52 1010 l 565 1010 l 565 859 l 399 859 l 399 152 l 565 152 l 565 0 l 52 0 m 457 1102 q 389 1129 417 1102 q 361 1196 361 1157 q 389 1262 361 1235 q 457 1289 417 1289 q 525 1262 497 1289 q 552 1196 552 1235 q 525 1129 552 1157 q 457 1102 497 1102 m 161 1102 q 94 1129 121 1102 q 66 1196 66 1157 q 94 1262 66 1235 q 161 1289 121 1289 q 229 1262 201 1289 q 257 1196 257 1235 q 229 1129 257 1157 q 161 1102 201 1102 m 249 1348 l 340 1533 l 497 1533 l 365 1348 l 249 1348 z "},"":{"ha":617,"x_min":52,"x_max":565,"o":"m 52 0 l 52 152 l 218 152 l 218 859 l 52 859 l 52 1010 l 565 1010 l 565 859 l 399 859 l 399 152 l 565 152 l 565 0 l 52 0 m 77 482 l 77 570 l 541 570 l 541 482 l 77 482 z "},"":{"ha":617,"x_min":52,"x_max":565,"o":"m 52 0 l 52 152 l 218 152 l 218 859 l 52 859 l 52 1010 l 565 1010 l 565 859 l 399 859 l 399 152 l 565 152 l 565 0 l 52 0 m 404 -290 q 349 -280 374 -290 q 303 -257 323 -270 q 265 -234 282 -244 q 233 -224 248 -224 q 202 -242 212 -224 q 191 -286 192 -260 l 88 -286 q 124 -164 90 -208 q 218 -120 159 -120 q 273 -130 249 -120 q 317 -153 297 -140 q 354 -175 337 -165 q 389 -185 372 -185 q 420 -170 410 -185 q 432 -123 430 -155 l 533 -123 q 496 -245 532 -201 q 404 -290 460 -290 z "},"":{"ha":617,"x_min":52,"x_max":565,"o":"m 52 0 l 52 152 l 218 152 l 218 859 l 52 859 l 52 1010 l 565 1010 l 565 859 l 399 859 l 399 152 l 565 152 l 565 0 l 52 0 m 248 1106 l 106 1314 l 278 1314 l 376 1106 l 248 1106 z "},"":{"ha":617,"x_min":52,"x_max":565,"o":"m 52 0 l 52 152 l 218 152 l 218 859 l 52 859 l 52 1010 l 565 1010 l 565 859 l 399 859 l 399 152 l 565 152 l 565 0 l 52 0 m 241 1106 l 339 1314 l 511 1314 l 369 1106 l 241 1106 z "},"":{"ha":617,"x_min":52,"x_max":565,"o":"m 52 0 l 52 152 l 218 152 l 218 859 l 52 859 l 52 1010 l 565 1010 l 565 859 l 399 859 l 399 152 l 565 152 l 565 0 l 52 0 m 213 1114 l 58 1114 l 58 1119 l 237 1314 l 380 1314 l 559 1119 l 559 1114 l 404 1114 l 309 1231 l 213 1114 z "},"":{"ha":617,"x_min":52,"x_max":565,"o":"m 52 0 l 52 152 l 218 152 l 218 859 l 52 859 l 52 1010 l 565 1010 l 565 859 l 399 859 l 399 152 l 565 152 l 565 0 l 52 0 m 401 1129 q 347 1139 372 1129 q 301 1162 321 1149 q 263 1184 280 1175 q 231 1194 245 1194 q 200 1177 210 1194 q 189 1133 190 1159 l 86 1133 q 122 1255 88 1211 q 216 1299 157 1299 q 271 1289 247 1299 q 315 1266 295 1279 q 352 1243 335 1253 q 387 1234 370 1234 q 418 1249 408 1234 q 430 1295 428 1264 l 531 1295 q 494 1173 530 1217 q 401 1129 458 1129 z "},"":{"ha":617,"x_min":52,"x_max":565,"o":"m 52 0 l 52 152 l 218 152 l 218 859 l 52 859 l 52 1010 l 565 1010 l 565 859 l 399 859 l 399 152 l 565 152 l 565 0 l 52 0 m 503 1270 l 503 1152 l 116 1152 l 116 1270 l 503 1270 z "},"":{"ha":617,"x_min":52,"x_max":565,"o":"m 52 0 l 52 152 l 218 152 l 218 859 l 52 859 l 52 1010 l 565 1010 l 565 859 l 399 859 l 399 152 l 565 152 l 565 0 l 52 0 m 309 1107 q 196 1135 246 1107 q 117 1208 146 1162 q 87 1312 87 1255 l 197 1312 q 229 1239 197 1267 q 309 1210 260 1210 q 389 1239 357 1210 q 420 1312 420 1267 l 530 1312 q 500 1208 530 1255 q 421 1135 471 1162 q 309 1107 372 1107 z "},"":{"ha":617,"x_min":52,"x_max":594,"o":"m 52 0 l 52 152 l 218 152 l 218 859 l 52 859 l 52 1010 l 565 1010 l 565 859 l 399 859 l 399 152 l 565 152 l 565 0 l 52 0 m 467 -291 q 343 -255 391 -291 q 295 -153 295 -219 q 323 -61 295 -104 q 402 18 351 -18 l 565 0 q 484 -59 513 -31 q 456 -124 456 -88 q 469 -160 456 -147 q 509 -174 482 -174 q 537 -170 524 -174 q 561 -161 550 -166 l 594 -264 q 538 -283 571 -275 q 467 -291 505 -291 z "},"":{"ha":617,"x_min":52,"x_max":565,"o":"m 52 0 l 52 152 l 218 152 l 218 859 l 52 859 l 52 1010 l 565 1010 l 565 859 l 399 859 l 399 152 l 565 152 l 565 0 l 52 0 m 309 1118 q 236 1146 266 1118 q 206 1215 206 1175 q 236 1283 206 1255 q 309 1311 266 1311 q 381 1283 351 1311 q 412 1215 412 1255 q 381 1146 412 1175 q 309 1118 351 1118 z "},"":{"ha":617,"x_min":52,"x_max":565,"o":"m 52 0 l 52 152 l 218 152 l 218 859 l 52 859 l 52 1010 l 565 1010 l 565 859 l 399 859 l 399 152 l 565 152 l 565 0 l 52 0 m 213 1314 l 309 1198 l 404 1314 l 559 1314 l 559 1310 l 380 1114 l 237 1114 l 58 1310 l 58 1314 l 213 1314 z "},"":{"ha":617,"x_min":-29,"x_max":565,"o":"m 52 0 l 52 152 l 218 152 l 218 859 l 52 859 l 52 1010 l 565 1010 l 565 859 l 399 859 l 399 152 l 565 152 l 565 0 l 52 0 m 362 1106 l 247 1314 l 412 1314 l 490 1106 l 362 1106 m 132 1106 l -29 1314 l 146 1314 l 262 1106 l 132 1106 z "},"":{"ha":617,"x_min":52,"x_max":565,"o":"m 52 0 l 52 152 l 218 152 l 218 859 l 52 859 l 52 1010 l 565 1010 l 565 859 l 399 859 l 399 152 l 565 152 l 565 0 l 52 0 m 309 1324 q 425 1296 374 1324 q 506 1221 476 1268 q 535 1114 535 1173 l 426 1114 q 392 1190 426 1160 q 309 1219 357 1219 q 226 1190 260 1219 q 192 1114 192 1160 l 83 1114 q 112 1221 83 1173 q 193 1296 142 1268 q 309 1324 244 1324 z "},"":{"ha":617,"x_min":52,"x_max":565,"o":"m 52 0 l 52 152 l 218 152 l 218 859 l 52 859 l 52 1010 l 565 1010 l 565 859 l 399 859 l 399 152 l 565 152 l 565 0 l 52 0 m 359 1106 l 248 1106 l 298 1198 q 300 1213 303 1208 q 288 1217 298 1217 l 184 1217 l 184 1314 l 288 1314 q 371 1300 340 1314 q 414 1264 401 1286 q 421 1214 426 1242 q 396 1159 416 1187 l 359 1106 z "},"":{"ha":617,"x_min":52,"x_max":565,"o":"m 52 0 l 52 152 l 218 152 l 218 859 l 52 859 l 52 1010 l 565 1010 l 565 859 l 399 859 l 399 152 l 565 152 l 565 0 l 52 0 m 310 -303 q 237 -275 267 -303 q 208 -206 208 -246 q 237 -138 208 -165 q 310 -110 267 -110 q 383 -138 353 -110 q 413 -206 413 -165 q 383 -275 413 -246 q 310 -303 353 -303 z "},"":{"ha":899,"x_min":51,"x_max":847,"o":"m 334 0 l 334 152 l 500 152 l 500 859 l 334 859 l 334 1010 l 847 1010 l 847 859 l 682 859 l 682 152 l 847 152 l 847 0 l 334 0 m 78 806 l 69 806 l 69 861 l 79 861 q 132 871 114 861 q 149 905 149 882 q 132 933 149 924 q 82 943 115 943 l 51 943 l 51 1031 l 78 1031 q 207 1002 162 1031 q 251 919 251 972 q 206 835 251 864 q 78 806 161 806 z "},"":{"ha":911,"x_min":51,"x_max":859,"o":"m 347 0 l 347 152 l 513 152 l 513 859 l 347 859 l 347 1010 l 859 1010 l 859 859 l 694 859 l 694 152 l 859 152 l 859 0 l 347 0 m 224 791 q 96 820 140 791 q 51 904 51 849 q 95 987 51 958 q 224 1016 140 1016 l 251 1016 l 251 928 l 220 928 q 170 919 186 928 q 153 890 153 909 q 170 857 153 867 q 223 846 188 846 l 233 846 l 233 791 l 224 791 z "},"":{"ha":1148,"x_min":51,"x_max":1082,"o":"m 570 0 l 570 152 l 736 152 l 736 859 l 570 859 l 570 1010 l 1082 1010 l 1082 859 l 917 859 l 917 152 l 1082 152 l 1082 0 l 570 0 m 78 791 l 69 791 l 69 846 l 79 846 q 132 857 114 846 q 149 890 149 867 q 132 919 149 909 q 82 928 115 928 l 51 928 l 51 1016 l 78 1016 q 207 987 162 1016 q 251 904 251 958 q 206 820 251 849 q 78 791 161 791 m 450 798 l 349 798 l 276 1010 l 428 1010 l 450 798 z "},"":{"ha":1157,"x_min":51,"x_max":1104,"o":"m 591 0 l 591 152 l 758 152 l 758 859 l 591 859 l 591 1010 l 1104 1010 l 1104 859 l 939 859 l 939 152 l 1104 152 l 1104 0 l 591 0 m 224 791 q 96 820 140 791 q 51 904 51 849 q 95 987 51 958 q 224 1016 140 1016 l 251 1016 l 251 928 l 220 928 q 170 919 186 928 q 153 890 153 909 q 170 857 153 867 q 223 846 188 846 l 233 846 l 233 791 l 224 791 m 472 798 l 372 798 l 298 1010 l 450 1010 l 472 798 z "},"":{"ha":1142,"x_min":51,"x_max":1089,"o":"m 576 0 l 576 152 l 743 152 l 743 859 l 576 859 l 576 1010 l 1089 1010 l 1089 859 l 924 859 l 924 152 l 1089 152 l 1089 0 l 576 0 m 78 791 l 69 791 l 69 846 l 79 846 q 132 857 114 846 q 149 890 149 867 q 132 919 149 909 q 82 928 115 928 l 51 928 l 51 1016 l 78 1016 q 207 987 162 1016 q 251 904 251 958 q 206 820 251 849 q 78 791 161 791 m 328 798 l 350 1010 l 502 1010 l 429 798 l 328 798 z "},"":{"ha":1156,"x_min":51,"x_max":1104,"o":"m 591 0 l 591 152 l 758 152 l 758 859 l 591 859 l 591 1010 l 1104 1010 l 1104 859 l 939 859 l 939 152 l 1104 152 l 1104 0 l 591 0 m 224 791 q 96 820 140 791 q 51 904 51 849 q 95 987 51 958 q 224 1016 140 1016 l 251 1016 l 251 928 l 220 928 q 170 919 186 928 q 153 890 153 909 q 170 857 153 867 q 223 846 188 846 l 233 846 l 233 791 l 224 791 m 338 798 l 360 1010 l 512 1010 l 439 798 l 338 798 z "},"":{"ha":1025,"x_min":51,"x_max":972,"o":"m 459 0 l 459 152 l 625 152 l 625 859 l 459 859 l 459 1010 l 972 1010 l 972 859 l 806 859 l 806 152 l 972 152 l 972 0 l 459 0 m 198 802 l 190 802 l 190 856 l 199 856 q 252 867 234 856 q 269 900 269 878 q 253 929 269 919 q 203 939 236 939 l 172 939 l 172 1026 l 198 1026 q 327 997 283 1026 q 371 914 371 968 q 327 830 371 859 q 198 802 282 802 m 363 1086 q 309 1096 334 1086 q 263 1118 284 1105 q 225 1139 243 1130 q 193 1149 208 1149 q 164 1132 174 1149 q 153 1090 154 1114 l 51 1090 q 87 1206 53 1164 q 180 1249 121 1249 q 234 1239 210 1249 q 277 1217 258 1230 q 314 1196 297 1205 q 349 1186 332 1186 q 379 1201 370 1186 q 392 1245 389 1215 l 492 1245 q 455 1129 490 1171 q 363 1086 420 1086 z "},"":{"ha":1036,"x_min":51,"x_max":983,"o":"m 471 0 l 471 152 l 637 152 l 637 859 l 471 859 l 471 1010 l 983 1010 l 983 859 l 818 859 l 818 152 l 983 152 l 983 0 l 471 0 m 345 789 q 216 818 260 789 q 172 901 172 846 q 216 984 172 955 q 345 1013 260 1013 l 371 1013 l 371 926 l 340 926 q 290 916 307 926 q 273 887 273 906 q 291 854 273 865 q 343 843 309 843 l 353 843 l 353 789 l 345 789 m 363 1074 q 309 1083 334 1074 q 263 1105 284 1093 q 225 1126 243 1117 q 193 1136 208 1136 q 164 1119 174 1136 q 153 1077 154 1101 l 51 1077 q 87 1193 53 1151 q 180 1236 121 1236 q 234 1226 210 1236 q 277 1204 258 1217 q 314 1183 297 1192 q 349 1173 332 1173 q 379 1188 370 1173 q 392 1232 389 1202 l 492 1232 q 455 1116 490 1158 q 363 1074 420 1074 z "},"":{"ha":617,"x_min":52,"x_max":565,"o":"m 52 0 l 52 152 l 218 152 l 218 859 l 52 859 l 52 1010 l 565 1010 l 565 859 l 399 859 l 399 152 l 565 152 l 565 0 l 52 0 m 309 1107 q 196 1135 246 1107 q 117 1208 146 1162 q 87 1312 87 1255 l 197 1312 q 229 1239 197 1267 q 309 1210 260 1210 q 389 1239 357 1210 q 420 1312 420 1267 l 530 1312 q 500 1208 530 1255 q 421 1135 471 1162 q 309 1107 372 1107 z "},"":{"ha":617,"x_min":52,"x_max":565,"o":"m 52 0 l 52 152 l 218 152 l 218 859 l 52 859 l 52 1010 l 565 1010 l 565 859 l 399 859 l 399 152 l 565 152 l 565 0 l 52 0 m 503 1270 l 503 1152 l 116 1152 l 116 1270 l 503 1270 z "},"":{"ha":816,"x_min":-102,"x_max":764,"o":"m 251 0 l 251 152 l 417 152 l 417 859 l 251 859 l 251 1010 l 764 1010 l 764 859 l 598 859 l 598 152 l 764 152 l 764 0 l 251 0 m 85 842 l -24 842 l -102 1049 l 62 1049 l 85 842 z "},"":{"ha":883,"x_min":51,"x_max":830,"o":"m 317 0 l 317 152 l 484 152 l 484 859 l 317 859 l 317 1010 l 830 1010 l 830 859 l 665 859 l 665 152 l 830 152 l 830 0 l 317 0 m 51 803 l 74 1010 l 237 1010 l 159 803 l 51 803 z "},"":{"ha":617,"x_min":52,"x_max":565,"o":"m 52 0 l 52 152 l 218 152 l 218 859 l 52 859 l 52 1010 l 565 1010 l 565 859 l 399 859 l 399 152 l 565 152 l 565 0 l 52 0 z "},"":{"ha":617,"x_min":52,"x_max":565,"o":"m 52 0 l 52 152 l 218 152 l 218 859 l 52 859 l 52 1010 l 565 1010 l 565 859 l 399 859 l 399 152 l 565 152 l 565 0 l 52 0 m 457 1121 q 389 1148 417 1121 q 361 1215 361 1176 q 389 1281 361 1254 q 457 1308 417 1308 q 525 1281 497 1308 q 552 1215 552 1254 q 525 1148 552 1176 q 457 1121 497 1121 m 161 1121 q 94 1148 121 1121 q 66 1215 66 1176 q 94 1281 66 1254 q 161 1308 121 1308 q 229 1281 201 1308 q 257 1215 257 1254 q 229 1148 257 1176 q 161 1121 201 1121 z "},"J":{"ha":797,"x_min":51,"x_max":700,"o":"m 376 -14 q 139 67 227 -14 q 51 299 51 149 l 51 357 l 230 357 l 230 297 q 270 177 230 218 q 376 136 309 136 q 481 177 442 136 q 520 298 520 218 l 520 1010 l 700 1010 l 700 298 q 612 67 700 149 q 376 -14 525 -14 z "},"Ĵ":{"ha":797,"x_min":51,"x_max":861,"o":"m 376 -14 q 139 67 227 -14 q 51 299 51 149 l 51 357 l 230 357 l 230 297 q 270 177 230 218 q 376 136 309 136 q 481 177 442 136 q 520 298 520 218 l 520 1010 l 700 1010 l 700 298 q 612 67 700 149 q 376 -14 525 -14 m 514 1114 l 359 1114 l 359 1119 l 538 1314 l 681 1314 l 861 1119 l 861 1114 l 705 1114 l 610 1231 l 514 1114 z "},"Ɉ":{"ha":852,"x_min":51,"x_max":842,"o":"m 376 -14 q 139 67 227 -14 q 51 299 51 149 l 51 357 l 230 357 l 230 297 q 270 177 230 218 q 376 136 309 136 q 481 177 442 136 q 520 298 520 218 l 520 1010 l 700 1010 l 700 298 q 612 67 700 149 q 376 -14 525 -14 m 377 555 l 377 644 l 841 644 l 841 555 l 377 555 z "},"Ϳ":{"ha":797,"x_min":51,"x_max":700,"o":"m 376 -14 q 139 67 227 -14 q 51 299 51 149 l 51 357 l 230 357 l 230 297 q 270 177 230 218 q 376 136 309 136 q 481 177 442 136 q 520 298 520 218 l 520 1010 l 700 1010 l 700 298 q 612 67 700 149 q 376 -14 525 -14 z "},"Ј":{"ha":797,"x_min":51,"x_max":700,"o":"m 376 -14 q 139 67 227 -14 q 51 299 51 149 l 51 357 l 230 357 l 230 297 q 270 177 230 218 q 376 136 309 136 q 481 177 442 136 q 520 298 520 218 l 520 1010 l 700 1010 l 700 298 q 612 67 700 149 q 376 -14 525 -14 z "},"K":{"ha":966,"x_min":98,"x_max":936,"o":"m 229 246 l 229 430 q 293 525 261 480 q 361 615 326 570 q 438 708 397 659 l 705 1010 l 928 1010 l 500 528 l 487 531 l 229 246 m 98 0 l 98 1010 l 279 1010 l 279 710 l 276 467 l 279 378 l 279 0 l 98 0 m 723 0 l 401 476 l 513 612 l 936 0 l 723 0 z "},"Ķ":{"ha":966,"x_min":98,"x_max":936,"o":"m 229 246 l 229 430 q 293 525 261 480 q 361 615 326 570 q 438 708 397 659 l 705 1010 l 928 1010 l 500 528 l 487 531 l 229 246 m 98 0 l 98 1010 l 279 1010 l 279 710 l 276 467 l 279 378 l 279 0 l 98 0 m 723 0 l 401 476 l 513 612 l 936 0 l 723 0 m 342 -328 l 401 -80 l 568 -80 l 468 -328 l 342 -328 z "},"Ǩ":{"ha":966,"x_min":98,"x_max":936,"o":"m 229 246 l 229 430 q 293 525 261 480 q 361 615 326 570 q 438 708 397 659 l 705 1010 l 928 1010 l 500 528 l 487 531 l 229 246 m 98 0 l 98 1010 l 279 1010 l 279 710 l 276 467 l 279 378 l 279 0 l 98 0 m 723 0 l 401 476 l 513 612 l 936 0 l 723 0 m 388 1314 l 484 1198 l 579 1314 l 734 1314 l 734 1310 l 555 1114 l 412 1114 l 233 1310 l 233 1314 l 388 1314 z "},"Ḱ":{"ha":966,"x_min":98,"x_max":936,"o":"m 229 246 l 229 430 q 293 525 261 480 q 361 615 326 570 q 438 708 397 659 l 705 1010 l 928 1010 l 500 528 l 487 531 l 229 246 m 98 0 l 98 1010 l 279 1010 l 279 710 l 276 467 l 279 378 l 279 0 l 98 0 m 723 0 l 401 476 l 513 612 l 936 0 l 723 0 m 416 1106 l 514 1314 l 686 1314 l 544 1106 l 416 1106 z "},"Ḳ":{"ha":966,"x_min":98,"x_max":936,"o":"m 229 246 l 229 430 q 293 525 261 480 q 361 615 326 570 q 438 708 397 659 l 705 1010 l 928 1010 l 500 528 l 487 531 l 229 246 m 98 0 l 98 1010 l 279 1010 l 279 710 l 276 467 l 279 378 l 279 0 l 98 0 m 723 0 l 401 476 l 513 612 l 936 0 l 723 0 m 485 -303 q 412 -275 442 -303 q 382 -206 382 -246 q 412 -138 382 -165 q 485 -110 442 -110 q 558 -138 528 -110 q 588 -206 588 -165 q 558 -275 588 -246 q 485 -303 528 -303 z "},"Ḵ":{"ha":966,"x_min":98,"x_max":936,"o":"m 229 246 l 229 430 q 293 525 261 480 q 361 615 326 570 q 438 708 397 659 l 705 1010 l 928 1010 l 500 528 l 487 531 l 229 246 m 98 0 l 98 1010 l 279 1010 l 279 710 l 276 467 l 279 378 l 279 0 l 98 0 m 723 0 l 401 476 l 513 612 l 936 0 l 723 0 m 677 -142 l 677 -260 l 291 -260 l 291 -142 l 677 -142 z "},"Ҡ":{"ha":1198,"x_min":51,"x_max":1167,"o":"m 416 1010 l 416 860 l 51 860 l 51 1010 l 416 1010 m 329 0 l 329 1010 l 510 1010 l 510 591 l 632 591 l 936 1010 l 1150 1010 l 783 519 l 1167 0 l 954 0 l 634 439 l 510 439 l 510 0 l 329 0 z "},"Қ":{"ha":1023,"x_min":98,"x_max":994,"o":"m 98 0 l 98 1010 l 279 1010 l 279 591 l 401 591 l 705 1010 l 919 1010 l 551 519 l 936 0 l 722 0 l 403 439 l 279 439 l 279 0 l 98 0 m 816 -217 l 816 0 l 760 0 l 760 147 l 994 147 l 987 -217 l 816 -217 z "},"Ƙ":{"ha":977,"x_min":98,"x_max":970,"o":"m 98 0 l 98 1010 l 278 1010 l 278 551 l 290 551 l 647 935 q 748 1006 694 985 q 859 1021 802 1027 q 970 980 916 1015 l 909 851 q 839 864 871 873 q 772 818 808 854 l 517 548 l 936 0 l 719 0 l 402 420 l 278 284 l 278 0 l 98 0 z "},"Κ":{"ha":966,"x_min":98,"x_max":936,"o":"m 229 246 l 229 430 q 293 525 261 480 q 361 615 326 570 q 438 708 397 659 l 705 1010 l 928 1010 l 500 528 l 487 531 l 229 246 m 98 0 l 98 1010 l 279 1010 l 279 710 l 276 467 l 279 378 l 279 0 l 98 0 m 723 0 l 401 476 l 513 612 l 936 0 l 723 0 z "},"L":{"ha":781,"x_min":98,"x_max":730,"o":"m 98 0 l 98 1010 l 279 1010 l 279 153 l 730 153 l 730 0 l 98 0 z "},"Ĺ":{"ha":781,"x_min":98,"x_max":730,"o":"m 98 0 l 98 1010 l 279 1010 l 279 153 l 730 153 l 730 0 l 98 0 m 119 1106 l 217 1314 l 389 1314 l 247 1106 l 119 1106 z "},"Ļ":{"ha":781,"x_min":98,"x_max":730,"o":"m 98 0 l 98 1010 l 279 1010 l 279 153 l 730 153 l 730 0 l 98 0 m 269 -328 l 328 -80 l 495 -80 l 395 -328 l 269 -328 z "},"Ľ":{"ha":781,"x_min":98,"x_max":730,"o":"m 98 0 l 98 1010 l 279 1010 l 279 153 l 730 153 l 730 0 l 98 0 m 437 802 l 437 1061 l 582 1061 l 546 802 l 437 802 z "},"Ḷ":{"ha":781,"x_min":98,"x_max":730,"o":"m 98 0 l 98 1010 l 279 1010 l 279 153 l 730 153 l 730 0 l 98 0 m 412 -303 q 339 -275 369 -303 q 309 -206 309 -246 q 339 -138 309 -165 q 412 -110 369 -110 q 485 -138 454 -110 q 515 -206 515 -165 q 485 -275 515 -246 q 412 -303 454 -303 z "},"Ḹ":{"ha":781,"x_min":-6,"x_max":730,"o":"m 98 0 l 98 1010 l 279 1010 l 279 153 l 730 153 l 730 0 l 98 0 m 412 -303 q 339 -275 369 -303 q 309 -206 309 -246 q 339 -138 309 -165 q 412 -110 369 -110 q 485 -138 454 -110 q 515 -206 515 -165 q 485 -275 515 -246 q 412 -303 454 -303 m 380 1270 l 380 1152 l -6 1152 l -6 1270 l 380 1270 z "},"Ḻ":{"ha":781,"x_min":98,"x_max":730,"o":"m 98 0 l 98 1010 l 279 1010 l 279 153 l 730 153 l 730 0 l 98 0 m 605 -142 l 605 -260 l 218 -260 l 218 -142 l 605 -142 z "},"Ḽ":{"ha":781,"x_min":98,"x_max":730,"o":"m 98 0 l 98 1010 l 279 1010 l 279 153 l 730 153 l 730 0 l 98 0 m 317 -304 l 163 -304 l 163 -300 l 341 -105 l 484 -105 l 664 -300 l 664 -304 l 509 -304 l 413 -188 l 317 -304 z "},"Ł":{"ha":831,"x_min":18,"x_max":780,"o":"m 148 0 l 148 1010 l 329 1010 l 329 153 l 780 153 l 780 0 l 148 0 m 18 297 l 18 458 l 569 776 l 569 615 l 18 297 z "},"Ƚ":{"ha":825,"x_min":14,"x_max":775,"o":"m 143 0 l 143 1010 l 324 1010 l 324 153 l 775 153 l 775 0 l 143 0 m 14 441 l 14 570 l 556 570 l 556 441 l 14 441 z "},"ǈ":{"ha":1135,"x_min":98,"x_max":1061,"o":"m 98 0 l 98 1010 l 279 1010 l 279 153 l 730 153 l 730 0 l 98 0 m 870 749 l 1046 749 l 1046 -51 q 1016 -180 1046 -128 q 929 -258 986 -232 q 791 -283 873 -283 l 749 -283 l 749 -140 l 778 -140 q 849 -116 827 -140 q 870 -45 870 -92 l 870 749 m 958 856 q 885 884 915 856 q 855 953 855 913 q 885 1021 855 994 q 958 1049 915 1049 q 1030 1021 1000 1049 q 1061 953 1061 994 q 1030 884 1061 913 q 958 856 1000 856 z "},"M":{"ha":1268,"x_min":98,"x_max":1171,"o":"m 98 0 l 98 1010 l 368 1010 l 560 487 q 583 413 570 458 q 609 317 595 368 q 634 217 623 266 q 654 133 646 169 l 616 133 q 636 216 625 168 q 662 316 648 264 q 688 412 675 367 q 710 487 701 457 l 901 1010 l 1171 1010 l 1171 0 l 991 0 l 991 511 q 992 590 991 544 q 994 687 993 635 q 997 792 996 739 q 998 892 998 845 l 1013 892 q 983 785 999 840 q 951 678 967 730 q 922 583 936 626 q 899 511 908 540 l 710 0 l 558 0 l 368 511 q 344 582 357 540 q 314 676 330 625 q 282 783 298 728 q 250 892 266 839 l 268 892 q 270 795 269 848 q 272 690 271 743 q 274 591 273 638 q 275 511 275 545 l 275 0 l 98 0 z "},"Ḿ":{"ha":1268,"x_min":98,"x_max":1171,"o":"m 98 0 l 98 1010 l 368 1010 l 560 487 q 583 413 570 458 q 609 317 595 368 q 634 217 623 266 q 654 133 646 169 l 616 133 q 636 216 625 168 q 662 316 648 264 q 688 412 675 367 q 710 487 701 457 l 901 1010 l 1171 1010 l 1171 0 l 991 0 l 991 511 q 992 590 991 544 q 994 687 993 635 q 997 792 996 739 q 998 892 998 845 l 1013 892 q 983 785 999 840 q 951 678 967 730 q 922 583 936 626 q 899 511 908 540 l 710 0 l 558 0 l 368 511 q 344 582 357 540 q 314 676 330 625 q 282 783 298 728 q 250 892 266 839 l 268 892 q 270 795 269 848 q 272 690 271 743 q 274 591 273 638 q 275 511 275 545 l 275 0 l 98 0 m 565 1106 l 663 1314 l 835 1314 l 692 1106 l 565 1106 z "},"Ṁ":{"ha":1268,"x_min":98,"x_max":1171,"o":"m 98 0 l 98 1010 l 368 1010 l 560 487 q 583 413 570 458 q 609 317 595 368 q 634 217 623 266 q 654 133 646 169 l 616 133 q 636 216 625 168 q 662 316 648 264 q 688 412 675 367 q 710 487 701 457 l 901 1010 l 1171 1010 l 1171 0 l 991 0 l 991 511 q 992 590 991 544 q 994 687 993 635 q 997 792 996 739 q 998 892 998 845 l 1013 892 q 983 785 999 840 q 951 678 967 730 q 922 583 936 626 q 899 511 908 540 l 710 0 l 558 0 l 368 511 q 344 582 357 540 q 314 676 330 625 q 282 783 298 728 q 250 892 266 839 l 268 892 q 270 795 269 848 q 272 690 271 743 q 274 591 273 638 q 275 511 275 545 l 275 0 l 98 0 m 633 1118 q 560 1146 590 1118 q 530 1215 530 1175 q 560 1283 530 1255 q 633 1311 590 1311 q 706 1283 675 1311 q 736 1215 736 1255 q 706 1146 736 1175 q 633 1118 675 1118 z "},"Ṃ":{"ha":1268,"x_min":98,"x_max":1171,"o":"m 98 0 l 98 1010 l 368 1010 l 560 487 q 583 413 570 458 q 609 317 595 368 q 634 217 623 266 q 654 133 646 169 l 616 133 q 636 216 625 168 q 662 316 648 264 q 688 412 675 367 q 710 487 701 457 l 901 1010 l 1171 1010 l 1171 0 l 991 0 l 991 511 q 992 590 991 544 q 994 687 993 635 q 997 792 996 739 q 998 892 998 845 l 1013 892 q 983 785 999 840 q 951 678 967 730 q 922 583 936 626 q 899 511 908 540 l 710 0 l 558 0 l 368 511 q 344 582 357 540 q 314 676 330 625 q 282 783 298 728 q 250 892 266 839 l 268 892 q 270 795 269 848 q 272 690 271 743 q 274 591 273 638 q 275 511 275 545 l 275 0 l 98 0 m 633 -303 q 561 -275 591 -303 q 531 -206 531 -246 q 561 -138 531 -165 q 633 -110 591 -110 q 706 -138 676 -110 q 736 -206 736 -165 q 706 -275 736 -246 q 633 -303 676 -303 z "},"Ӎ":{"ha":1268,"x_min":98,"x_max":1299,"o":"m 98 0 l 98 1010 l 368 1010 l 560 487 q 583 413 570 458 q 609 317 595 368 q 634 217 623 266 q 654 133 646 169 l 616 133 q 636 216 625 168 q 662 316 648 264 q 688 412 675 367 q 710 487 701 457 l 901 1010 l 1171 1010 l 1171 0 l 991 0 l 991 511 q 992 590 991 544 q 994 687 993 635 q 997 792 996 739 q 998 892 998 845 l 1013 892 q 983 785 999 840 q 951 678 967 730 q 922 583 936 626 q 899 511 908 540 l 710 0 l 558 0 l 368 511 q 344 582 357 540 q 314 676 330 625 q 282 783 298 728 q 250 892 266 839 l 268 892 q 270 795 269 848 q 272 690 271 743 q 274 591 273 638 q 275 511 275 545 l 275 0 l 98 0 m 1022 -217 l 1088 0 l 1037 0 l 1037 144 l 1299 144 l 1187 -217 l 1022 -217 z "},"Μ":{"ha":1268,"x_min":98,"x_max":1171,"o":"m 98 0 l 98 1010 l 368 1010 l 560 487 q 583 413 570 458 q 609 317 595 368 q 634 217 623 266 q 654 133 646 169 l 616 133 q 636 216 625 168 q 662 316 648 264 q 688 412 675 367 q 710 487 701 457 l 901 1010 l 1171 1010 l 1171 0 l 991 0 l 991 511 q 992 590 991 544 q 994 687 993 635 q 997 792 996 739 q 998 892 998 845 l 1013 892 q 983 785 999 840 q 951 678 967 730 q 922 583 936 626 q 899 511 908 540 l 710 0 l 558 0 l 368 511 q 344 582 357 540 q 314 676 330 625 q 282 783 298 728 q 250 892 266 839 l 268 892 q 270 795 269 848 q 272 690 271 743 q 274 591 273 638 q 275 511 275 545 l 275 0 l 98 0 z "},"Ϻ":{"ha":1268,"x_min":98,"x_max":1171,"o":"m 98 0 l 98 1010 l 368 1010 l 560 487 q 583 413 570 458 q 609 317 595 368 q 634 217 623 266 q 654 133 646 169 l 616 133 q 636 216 625 168 q 662 316 648 264 q 688 412 675 367 q 710 487 701 457 l 901 1010 l 1171 1010 l 1171 0 l 991 0 l 991 511 q 992 590 991 544 q 994 687 993 635 q 997 792 996 739 q 998 892 998 845 l 1013 892 q 983 785 999 840 q 951 678 967 730 q 922 583 936 626 q 899 511 908 540 l 710 0 l 558 0 l 368 511 q 344 582 357 540 q 314 676 330 625 q 282 783 298 728 q 250 892 266 839 l 268 892 q 270 795 269 848 q 272 690 271 743 q 274 591 273 638 q 275 511 275 545 l 275 0 l 98 0 z "},"М":{"ha":1268,"x_min":98,"x_max":1171,"o":"m 98 0 l 98 1010 l 368 1010 l 560 487 q 583 413 570 458 q 609 317 595 368 q 634 217 623 266 q 654 133 646 169 l 616 133 q 636 216 625 168 q 662 316 648 264 q 688 412 675 367 q 710 487 701 457 l 901 1010 l 1171 1010 l 1171 0 l 991 0 l 991 511 q 992 590 991 544 q 994 687 993 635 q 997 792 996 739 q 998 892 998 845 l 1013 892 q 983 785 999 840 q 951 678 967 730 q 922 583 936 626 q 899 511 908 540 l 710 0 l 558 0 l 368 511 q 344 582 357 540 q 314 676 330 625 q 282 783 298 728 q 250 892 266 839 l 268 892 q 270 795 269 848 q 272 690 271 743 q 274 591 273 638 q 275 511 275 545 l 275 0 l 98 0 z "},"N":{"ha":1042,"x_min":98,"x_max":945,"o":"m 98 0 l 98 1010 l 300 1010 l 650 452 q 695 378 671 420 q 745 284 719 336 q 796 172 771 232 l 776 161 q 768 275 771 216 q 763 387 765 334 q 762 476 762 441 l 762 1010 l 945 1010 l 945 0 l 742 0 l 426 503 q 372 592 399 546 q 314 698 345 639 q 241 837 283 757 l 267 842 q 274 703 271 768 q 279 586 277 637 q 281 503 281 534 l 281 0 l 98 0 z "},"Ñ":{"ha":1042,"x_min":98,"x_max":945,"o":"m 98 0 l 98 1010 l 300 1010 l 650 452 q 695 378 671 420 q 745 284 719 336 q 796 172 771 232 l 776 161 q 768 275 771 216 q 763 387 765 334 q 762 476 762 441 l 762 1010 l 945 1010 l 945 0 l 742 0 l 426 503 q 372 592 399 546 q 314 698 345 639 q 241 837 283 757 l 267 842 q 274 703 271 768 q 279 586 277 637 q 281 503 281 534 l 281 0 l 98 0 m 614 1129 q 559 1139 585 1129 q 514 1162 534 1149 q 476 1184 493 1175 q 444 1194 458 1194 q 413 1177 423 1194 q 401 1133 403 1159 l 299 1133 q 335 1255 301 1211 q 429 1299 370 1299 q 484 1289 460 1299 q 528 1266 508 1279 q 565 1243 548 1253 q 600 1234 583 1234 q 631 1249 621 1234 q 643 1295 641 1264 l 744 1295 q 707 1173 743 1217 q 614 1129 671 1129 z "},"Ń":{"ha":1042,"x_min":98,"x_max":945,"o":"m 98 0 l 98 1010 l 300 1010 l 650 452 q 695 378 671 420 q 745 284 719 336 q 796 172 771 232 l 776 161 q 768 275 771 216 q 763 387 765 334 q 762 476 762 441 l 762 1010 l 945 1010 l 945 0 l 742 0 l 426 503 q 372 592 399 546 q 314 698 345 639 q 241 837 283 757 l 267 842 q 274 703 271 768 q 279 586 277 637 q 281 503 281 534 l 281 0 l 98 0 m 454 1106 l 551 1314 l 724 1314 l 581 1106 l 454 1106 z "},"Ņ":{"ha":1042,"x_min":98,"x_max":945,"o":"m 98 0 l 98 1010 l 300 1010 l 650 452 q 695 378 671 420 q 745 284 719 336 q 796 172 771 232 l 776 161 q 768 275 771 216 q 763 387 765 334 q 762 476 762 441 l 762 1010 l 945 1010 l 945 0 l 742 0 l 426 503 q 372 592 399 546 q 314 698 345 639 q 241 837 283 757 l 267 842 q 274 703 271 768 q 279 586 277 637 q 281 503 281 534 l 281 0 l 98 0 m 379 -328 l 438 -80 l 605 -80 l 505 -328 l 379 -328 z "},"Ň":{"ha":1042,"x_min":98,"x_max":945,"o":"m 98 0 l 98 1010 l 300 1010 l 650 452 q 695 378 671 420 q 745 284 719 336 q 796 172 771 232 l 776 161 q 768 275 771 216 q 763 387 765 334 q 762 476 762 441 l 762 1010 l 945 1010 l 945 0 l 742 0 l 426 503 q 372 592 399 546 q 314 698 345 639 q 241 837 283 757 l 267 842 q 274 703 271 768 q 279 586 277 637 q 281 503 281 534 l 281 0 l 98 0 m 426 1314 l 522 1198 l 617 1314 l 772 1314 l 772 1310 l 593 1114 l 450 1114 l 271 1310 l 271 1314 l 426 1314 z "},"Ǹ":{"ha":1042,"x_min":98,"x_max":945,"o":"m 98 0 l 98 1010 l 300 1010 l 650 452 q 695 378 671 420 q 745 284 719 336 q 796 172 771 232 l 776 161 q 768 275 771 216 q 763 387 765 334 q 762 476 762 441 l 762 1010 l 945 1010 l 945 0 l 742 0 l 426 503 q 372 592 399 546 q 314 698 345 639 q 241 837 283 757 l 267 842 q 274 703 271 768 q 279 586 277 637 q 281 503 281 534 l 281 0 l 98 0 m 460 1106 l 319 1314 l 491 1314 l 589 1106 l 460 1106 z "},"Ṅ":{"ha":1042,"x_min":98,"x_max":945,"o":"m 98 0 l 98 1010 l 300 1010 l 650 452 q 695 378 671 420 q 745 284 719 336 q 796 172 771 232 l 776 161 q 768 275 771 216 q 763 387 765 334 q 762 476 762 441 l 762 1010 l 945 1010 l 945 0 l 742 0 l 426 503 q 372 592 399 546 q 314 698 345 639 q 241 837 283 757 l 267 842 q 274 703 271 768 q 279 586 277 637 q 281 503 281 534 l 281 0 l 98 0 m 522 1118 q 449 1146 479 1118 q 419 1215 419 1175 q 449 1283 419 1255 q 522 1311 479 1311 q 594 1283 564 1311 q 625 1215 625 1255 q 594 1146 625 1175 q 522 1118 564 1118 z "},"Ṇ":{"ha":1042,"x_min":98,"x_max":945,"o":"m 98 0 l 98 1010 l 300 1010 l 650 452 q 695 378 671 420 q 745 284 719 336 q 796 172 771 232 l 776 161 q 768 275 771 216 q 763 387 765 334 q 762 476 762 441 l 762 1010 l 945 1010 l 945 0 l 742 0 l 426 503 q 372 592 399 546 q 314 698 345 639 q 241 837 283 757 l 267 842 q 274 703 271 768 q 279 586 277 637 q 281 503 281 534 l 281 0 l 98 0 m 522 -303 q 450 -275 479 -303 q 420 -206 420 -246 q 450 -138 420 -165 q 522 -110 479 -110 q 595 -138 565 -110 q 625 -206 625 -165 q 595 -275 625 -246 q 522 -303 565 -303 z "},"Ṉ":{"ha":1042,"x_min":98,"x_max":945,"o":"m 98 0 l 98 1010 l 300 1010 l 650 452 q 695 378 671 420 q 745 284 719 336 q 796 172 771 232 l 776 161 q 768 275 771 216 q 763 387 765 334 q 762 476 762 441 l 762 1010 l 945 1010 l 945 0 l 742 0 l 426 503 q 372 592 399 546 q 314 698 345 639 q 241 837 283 757 l 267 842 q 274 703 271 768 q 279 586 277 637 q 281 503 281 534 l 281 0 l 98 0 m 715 -142 l 715 -260 l 329 -260 l 329 -142 l 715 -142 z "},"Ṋ":{"ha":1042,"x_min":98,"x_max":945,"o":"m 98 0 l 98 1010 l 300 1010 l 650 452 q 695 378 671 420 q 745 284 719 336 q 796 172 771 232 l 776 161 q 768 275 771 216 q 763 387 765 334 q 762 476 762 441 l 762 1010 l 945 1010 l 945 0 l 742 0 l 426 503 q 372 592 399 546 q 314 698 345 639 q 241 837 283 757 l 267 842 q 274 703 271 768 q 279 586 277 637 q 281 503 281 534 l 281 0 l 98 0 m 428 -304 l 273 -304 l 273 -300 l 452 -105 l 595 -105 l 774 -300 l 774 -304 l 619 -304 l 524 -188 l 428 -304 z "},"Ɲ":{"ha":1042,"x_min":-45,"x_max":945,"o":"m -45 -283 l -45 -141 q -16 -143 -32 -142 q 13 -144 0 -144 q 79 -129 61 -144 q 98 -81 98 -114 l 98 86 l 279 86 l 279 -90 q 221 -240 279 -189 q 50 -291 163 -291 q -4 -289 21 -291 q -45 -283 -28 -287 m 98 0 l 98 1010 l 300 1010 l 650 452 q 695 378 671 420 q 745 284 719 336 q 796 172 771 232 l 776 161 q 768 275 771 216 q 763 387 765 334 q 762 476 762 441 l 762 1010 l 945 1010 l 945 0 l 742 0 l 426 503 q 372 592 399 546 q 314 698 345 639 q 241 837 283 757 l 267 842 q 274 703 271 768 q 279 586 277 637 q 281 503 281 534 l 281 0 l 98 0 z "},"Ŋ":{"ha":1042,"x_min":98,"x_max":949,"o":"m 625 -283 l 625 -141 q 654 -143 639 -142 q 684 -144 670 -144 q 749 -129 731 -144 q 768 -81 768 -114 l 768 86 l 949 86 l 949 -90 q 891 -240 949 -189 q 720 -291 833 -291 q 666 -289 691 -291 q 625 -283 642 -287 m 98 0 l 98 1010 l 300 1010 l 650 452 q 695 378 671 420 q 745 284 719 336 q 796 172 771 232 l 776 161 q 768 275 771 216 q 763 387 765 334 q 762 476 762 441 l 762 1010 l 945 1010 l 945 0 l 742 0 l 426 503 q 372 592 399 546 q 314 698 345 639 q 241 837 283 757 l 267 842 q 274 703 271 768 q 279 586 277 637 q 281 503 281 534 l 281 0 l 98 0 z "},"И":{"ha":1042,"x_min":98,"x_max":945,"o":"m 945 0 l 762 0 l 762 503 q 763 586 762 534 q 768 703 765 637 q 776 842 772 768 l 802 837 q 729 698 760 757 q 671 592 697 639 q 617 503 644 546 l 300 0 l 98 0 l 98 1010 l 281 1010 l 281 476 q 279 387 281 441 q 274 275 277 334 q 267 161 271 216 l 246 172 q 298 284 272 232 q 348 378 323 336 q 392 452 372 420 l 743 1010 l 945 1010 l 945 0 z "},"Ѝ":{"ha":1042,"x_min":98,"x_max":945,"o":"m 945 0 l 762 0 l 762 503 q 763 586 762 534 q 768 703 765 637 q 776 842 772 768 l 802 837 q 729 698 760 757 q 671 592 697 639 q 617 503 644 546 l 300 0 l 98 0 l 98 1010 l 281 1010 l 281 476 q 279 387 281 441 q 274 275 277 334 q 267 161 271 216 l 246 172 q 298 284 272 232 q 348 378 323 336 q 392 452 372 420 l 743 1010 l 945 1010 l 945 0 m 452 1106 l 310 1314 l 482 1314 l 580 1106 l 452 1106 z "},"Й":{"ha":1042,"x_min":98,"x_max":945,"o":"m 945 0 l 762 0 l 762 503 q 763 586 762 534 q 768 703 765 637 q 776 842 772 768 l 802 837 q 729 698 760 757 q 671 592 697 639 q 617 503 644 546 l 300 0 l 98 0 l 98 1010 l 281 1010 l 281 476 q 279 387 281 441 q 274 275 277 334 q 267 161 271 216 l 246 172 q 298 284 272 232 q 348 378 323 336 q 392 452 372 420 l 743 1010 l 945 1010 l 945 0 m 513 1107 q 400 1135 450 1107 q 321 1208 351 1162 q 292 1312 292 1255 l 401 1312 q 433 1239 401 1267 q 513 1210 465 1210 q 593 1239 561 1210 q 625 1312 625 1267 l 734 1312 q 705 1208 734 1255 q 626 1135 675 1162 q 513 1107 576 1107 z "},"Ӣ":{"ha":1042,"x_min":98,"x_max":945,"o":"m 945 0 l 762 0 l 762 503 q 763 586 762 534 q 768 703 765 637 q 776 842 772 768 l 802 837 q 729 698 760 757 q 671 592 697 639 q 617 503 644 546 l 300 0 l 98 0 l 98 1010 l 281 1010 l 281 476 q 279 387 281 441 q 274 275 277 334 q 267 161 271 216 l 246 172 q 298 284 272 232 q 348 378 323 336 q 392 452 372 420 l 743 1010 l 945 1010 l 945 0 m 707 1270 l 707 1152 l 320 1152 l 320 1270 l 707 1270 z "},"Ӥ":{"ha":1042,"x_min":98,"x_max":945,"o":"m 945 0 l 762 0 l 762 503 q 763 586 762 534 q 768 703 765 637 q 776 842 772 768 l 802 837 q 729 698 760 757 q 671 592 697 639 q 617 503 644 546 l 300 0 l 98 0 l 98 1010 l 281 1010 l 281 476 q 279 387 281 441 q 274 275 277 334 q 267 161 271 216 l 246 172 q 298 284 272 232 q 348 378 323 336 q 392 452 372 420 l 743 1010 l 945 1010 l 945 0 m 661 1121 q 593 1148 621 1121 q 566 1215 566 1176 q 593 1281 566 1254 q 661 1308 621 1308 q 729 1281 701 1308 q 756 1215 756 1254 q 729 1148 756 1176 q 661 1121 701 1121 m 366 1121 q 298 1148 326 1121 q 270 1215 270 1176 q 298 1281 270 1254 q 366 1308 326 1308 q 433 1281 406 1308 q 461 1215 461 1254 q 433 1148 461 1176 q 366 1121 406 1121 z "},"Ҋ":{"ha":1042,"x_min":98,"x_max":1058,"o":"m 945 0 l 762 0 l 762 503 q 763 586 762 534 q 768 703 765 637 q 776 842 772 768 l 802 837 q 729 698 760 757 q 671 592 697 639 q 617 503 644 546 l 300 0 l 98 0 l 98 1010 l 281 1010 l 281 476 q 279 387 281 441 q 274 275 277 334 q 267 161 271 216 l 246 172 q 298 284 272 232 q 348 378 323 336 q 392 452 372 420 l 743 1010 l 945 1010 l 945 0 m 513 1107 q 400 1135 450 1107 q 321 1208 351 1162 q 292 1312 292 1255 l 401 1312 q 433 1239 401 1267 q 513 1210 465 1210 q 593 1239 561 1210 q 625 1312 625 1267 l 734 1312 q 705 1208 734 1255 q 626 1135 675 1162 q 513 1107 576 1107 m 781 -217 l 848 0 l 796 0 l 796 144 l 1058 144 l 947 -217 l 781 -217 z "},"Ͷ":{"ha":1042,"x_min":98,"x_max":945,"o":"m 945 0 l 762 0 l 762 503 q 763 586 762 534 q 768 703 765 637 q 776 842 772 768 l 802 837 q 729 698 760 757 q 671 592 697 639 q 617 503 644 546 l 300 0 l 98 0 l 98 1010 l 281 1010 l 281 476 q 279 387 281 441 q 274 275 277 334 q 267 161 271 216 l 246 172 q 298 284 272 232 q 348 378 323 336 q 392 452 372 420 l 743 1010 l 945 1010 l 945 0 z "},"Ν":{"ha":1042,"x_min":98,"x_max":945,"o":"m 98 0 l 98 1010 l 300 1010 l 650 452 q 695 378 671 420 q 745 284 719 336 q 796 172 771 232 l 776 161 q 768 275 771 216 q 763 387 765 334 q 762 476 762 441 l 762 1010 l 945 1010 l 945 0 l 742 0 l 426 503 q 372 592 399 546 q 314 698 345 639 q 241 837 283 757 l 267 842 q 274 703 271 768 q 279 586 277 637 q 281 503 281 534 l 281 0 l 98 0 z "},"ǋ":{"ha":1397,"x_min":98,"x_max":1322,"o":"m 98 0 l 98 1010 l 300 1010 l 650 452 q 695 378 671 420 q 745 284 719 336 q 796 172 771 232 l 776 161 q 768 275 771 216 q 763 387 765 334 q 762 476 762 441 l 762 1010 l 945 1010 l 945 0 l 742 0 l 426 503 q 372 592 399 546 q 314 698 345 639 q 241 837 283 757 l 267 842 q 274 703 271 768 q 279 586 277 637 q 281 503 281 534 l 281 0 l 98 0 m 1132 749 l 1308 749 l 1308 -51 q 1278 -180 1308 -128 q 1191 -258 1248 -232 q 1053 -283 1135 -283 l 1010 -283 l 1010 -140 l 1040 -140 q 1111 -116 1089 -140 q 1132 -45 1132 -92 l 1132 749 m 1219 856 q 1147 884 1177 856 q 1117 953 1117 913 q 1147 1021 1117 994 q 1219 1049 1177 1049 q 1292 1021 1262 1049 q 1322 953 1322 994 q 1292 884 1322 913 q 1219 856 1262 856 z "},"O":{"ha":1061,"x_min":65,"x_max":996,"o":"m 531 -14 q 293 48 398 -14 q 126 227 187 111 q 65 505 65 343 q 126 784 65 667 q 293 962 187 900 q 531 1025 398 1025 q 769 962 664 1025 q 935 784 874 900 q 996 505 996 667 q 935 227 996 343 q 769 48 874 111 q 531 -14 664 -14 m 531 148 q 677 189 613 148 q 778 310 741 230 q 814 505 814 389 q 778 701 814 621 q 677 822 741 781 q 531 863 613 863 q 384 821 448 863 q 283 700 320 780 q 247 505 247 621 q 283 310 247 389 q 384 189 320 231 q 531 148 448 148 z "},"Ö":{"ha":1061,"x_min":65,"x_max":996,"o":"m 531 -14 q 293 48 398 -14 q 126 227 187 111 q 65 505 65 343 q 126 784 65 667 q 293 962 187 900 q 531 1025 398 1025 q 769 962 664 1025 q 935 784 874 900 q 996 505 996 667 q 935 227 996 343 q 769 48 874 111 q 531 -14 664 -14 m 531 148 q 677 189 613 148 q 778 310 741 230 q 814 505 814 389 q 778 701 814 621 q 677 822 741 781 q 531 863 613 863 q 384 821 448 863 q 283 700 320 780 q 247 505 247 621 q 283 310 247 389 q 384 189 320 231 q 531 148 448 148 m 679 1121 q 611 1148 639 1121 q 583 1215 583 1176 q 611 1281 583 1254 q 679 1308 639 1308 q 746 1281 719 1308 q 774 1215 774 1254 q 746 1148 774 1176 q 679 1121 719 1121 m 383 1121 q 315 1148 343 1121 q 288 1215 288 1176 q 315 1281 288 1254 q 383 1308 343 1308 q 451 1281 423 1308 q 479 1215 479 1254 q 451 1148 479 1176 q 383 1121 423 1121 z "},"Õ":{"ha":1061,"x_min":65,"x_max":996,"o":"m 531 -14 q 293 48 398 -14 q 126 227 187 111 q 65 505 65 343 q 126 784 65 667 q 293 962 187 900 q 531 1025 398 1025 q 769 962 664 1025 q 935 784 874 900 q 996 505 996 667 q 935 227 996 343 q 769 48 874 111 q 531 -14 664 -14 m 531 148 q 677 189 613 148 q 778 310 741 230 q 814 505 814 389 q 778 701 814 621 q 677 822 741 781 q 531 863 613 863 q 384 821 448 863 q 283 700 320 780 q 247 505 247 621 q 283 310 247 389 q 384 189 320 231 q 531 148 448 148 m 624 1129 q 569 1139 594 1129 q 523 1162 544 1149 q 485 1184 503 1175 q 453 1194 468 1194 q 422 1177 433 1194 q 411 1133 412 1159 l 309 1133 q 345 1255 311 1211 q 439 1299 379 1299 q 493 1289 469 1299 q 537 1266 517 1279 q 575 1243 557 1253 q 610 1234 592 1234 q 641 1249 631 1234 q 652 1295 650 1264 l 753 1295 q 716 1173 752 1217 q 624 1129 681 1129 z "},"Ø":{"ha":1061,"x_min":65,"x_max":996,"o":"m 531 -14 q 293 48 398 -14 q 126 227 187 111 q 65 505 65 343 q 126 784 65 667 q 293 962 187 900 q 531 1025 398 1025 q 769 962 664 1025 q 935 784 874 900 q 996 505 996 667 q 935 227 996 343 q 769 48 874 111 q 531 -14 664 -14 m 531 148 q 677 189 613 148 q 778 310 741 230 q 814 505 814 389 q 778 701 814 621 q 677 822 741 781 q 531 863 613 863 q 384 821 448 863 q 283 700 320 780 q 247 505 247 621 q 283 310 247 389 q 384 189 320 231 q 531 148 448 148 m 205 -41 l 107 31 l 856 1050 l 954 979 l 205 -41 z "},"Ơ":{"ha":1067,"x_min":65,"x_max":998,"o":"m 533 910 l 533 1025 q 594 1023 570 1025 q 645 1018 618 1021 q 713 1013 671 1015 q 823 1010 754 1010 q 839 1026 839 1010 l 839 1156 l 998 1156 l 998 1021 q 961 924 998 955 q 861 893 924 893 q 800 896 829 893 q 736 902 771 899 q 653 908 701 905 q 533 910 604 910 m 531 -14 q 293 48 398 -14 q 126 227 187 111 q 65 505 65 343 q 126 784 65 667 q 293 962 187 900 q 531 1025 398 1025 q 769 962 664 1025 q 935 784 874 900 q 996 505 996 667 q 935 227 996 343 q 769 48 874 111 q 531 -14 664 -14 m 531 148 q 677 189 613 148 q 778 310 741 230 q 814 505 814 389 q 778 701 814 621 q 677 822 741 781 q 531 863 613 863 q 384 821 448 863 q 283 700 320 780 q 247 505 247 621 q 283 310 247 389 q 384 189 320 231 q 531 148 448 148 z "},"Ò":{"ha":1061,"x_min":65,"x_max":996,"o":"m 531 -14 q 293 48 398 -14 q 126 227 187 111 q 65 505 65 343 q 126 784 65 667 q 293 962 187 900 q 531 1025 398 1025 q 769 962 664 1025 q 935 784 874 900 q 996 505 996 667 q 935 227 996 343 q 769 48 874 111 q 531 -14 664 -14 m 531 148 q 677 189 613 148 q 778 310 741 230 q 814 505 814 389 q 778 701 814 621 q 677 822 741 781 q 531 863 613 863 q 384 821 448 863 q 283 700 320 780 q 247 505 247 621 q 283 310 247 389 q 384 189 320 231 q 531 148 448 148 m 469 1106 l 328 1314 l 500 1314 l 597 1106 l 469 1106 z "},"Ó":{"ha":1061,"x_min":65,"x_max":996,"o":"m 531 -14 q 293 48 398 -14 q 126 227 187 111 q 65 505 65 343 q 126 784 65 667 q 293 962 187 900 q 531 1025 398 1025 q 769 962 664 1025 q 935 784 874 900 q 996 505 996 667 q 935 227 996 343 q 769 48 874 111 q 531 -14 664 -14 m 531 148 q 677 189 613 148 q 778 310 741 230 q 814 505 814 389 q 778 701 814 621 q 677 822 741 781 q 531 863 613 863 q 384 821 448 863 q 283 700 320 780 q 247 505 247 621 q 283 310 247 389 q 384 189 320 231 q 531 148 448 148 m 463 1106 l 561 1314 l 733 1314 l 591 1106 l 463 1106 z "},"Ô":{"ha":1061,"x_min":65,"x_max":996,"o":"m 531 -14 q 293 48 398 -14 q 126 227 187 111 q 65 505 65 343 q 126 784 65 667 q 293 962 187 900 q 531 1025 398 1025 q 769 962 664 1025 q 935 784 874 900 q 996 505 996 667 q 935 227 996 343 q 769 48 874 111 q 531 -14 664 -14 m 531 148 q 677 189 613 148 q 778 310 741 230 q 814 505 814 389 q 778 701 814 621 q 677 822 741 781 q 531 863 613 863 q 384 821 448 863 q 283 700 320 780 q 247 505 247 621 q 283 310 247 389 q 384 189 320 231 q 531 148 448 148 m 435 1114 l 280 1114 l 280 1119 l 458 1314 l 602 1314 l 781 1119 l 781 1114 l 626 1114 l 530 1231 l 435 1114 z "},"Ō":{"ha":1061,"x_min":65,"x_max":996,"o":"m 531 -14 q 293 48 398 -14 q 126 227 187 111 q 65 505 65 343 q 126 784 65 667 q 293 962 187 900 q 531 1025 398 1025 q 769 962 664 1025 q 935 784 874 900 q 996 505 996 667 q 935 227 996 343 q 769 48 874 111 q 531 -14 664 -14 m 531 148 q 677 189 613 148 q 778 310 741 230 q 814 505 814 389 q 778 701 814 621 q 677 822 741 781 q 531 863 613 863 q 384 821 448 863 q 283 700 320 780 q 247 505 247 621 q 283 310 247 389 q 384 189 320 231 q 531 148 448 148 m 724 1270 l 724 1152 l 338 1152 l 338 1270 l 724 1270 z "},"Ŏ":{"ha":1061,"x_min":65,"x_max":996,"o":"m 531 -14 q 293 48 398 -14 q 126 227 187 111 q 65 505 65 343 q 126 784 65 667 q 293 962 187 900 q 531 1025 398 1025 q 769 962 664 1025 q 935 784 874 900 q 996 505 996 667 q 935 227 996 343 q 769 48 874 111 q 531 -14 664 -14 m 531 148 q 677 189 613 148 q 778 310 741 230 q 814 505 814 389 q 778 701 814 621 q 677 822 741 781 q 531 863 613 863 q 384 821 448 863 q 283 700 320 780 q 247 505 247 621 q 283 310 247 389 q 384 189 320 231 q 531 148 448 148 m 530 1107 q 418 1135 468 1107 q 339 1208 368 1162 q 309 1312 309 1255 l 418 1312 q 450 1239 418 1267 q 530 1210 482 1210 q 610 1239 578 1210 q 642 1312 642 1267 l 751 1312 q 722 1208 751 1255 q 643 1135 693 1162 q 530 1107 593 1107 z "},"Ő":{"ha":1061,"x_min":65,"x_max":996,"o":"m 531 -14 q 293 48 398 -14 q 126 227 187 111 q 65 505 65 343 q 126 784 65 667 q 293 962 187 900 q 531 1025 398 1025 q 769 962 664 1025 q 935 784 874 900 q 996 505 996 667 q 935 227 996 343 q 769 48 874 111 q 531 -14 664 -14 m 531 148 q 677 189 613 148 q 778 310 741 230 q 814 505 814 389 q 778 701 814 621 q 677 822 741 781 q 531 863 613 863 q 384 821 448 863 q 283 700 320 780 q 247 505 247 621 q 283 310 247 389 q 384 189 320 231 q 531 148 448 148 m 430 1106 l 302 1106 l 380 1314 l 545 1314 l 430 1106 m 660 1106 l 530 1106 l 646 1314 l 821 1314 l 660 1106 z "},"Ǒ":{"ha":1061,"x_min":65,"x_max":996,"o":"m 531 -14 q 293 48 398 -14 q 126 227 187 111 q 65 505 65 343 q 126 784 65 667 q 293 962 187 900 q 531 1025 398 1025 q 769 962 664 1025 q 935 784 874 900 q 996 505 996 667 q 935 227 996 343 q 769 48 874 111 q 531 -14 664 -14 m 531 148 q 677 189 613 148 q 778 310 741 230 q 814 505 814 389 q 778 701 814 621 q 677 822 741 781 q 531 863 613 863 q 384 821 448 863 q 283 700 320 780 q 247 505 247 621 q 283 310 247 389 q 384 189 320 231 q 531 148 448 148 m 435 1314 l 530 1198 l 626 1314 l 781 1314 l 781 1310 l 602 1114 l 458 1114 l 280 1310 l 280 1314 l 435 1314 z "},"Ǫ":{"ha":1061,"x_min":65,"x_max":996,"o":"m 531 -14 q 293 48 398 -14 q 126 227 187 111 q 65 505 65 343 q 126 784 65 667 q 293 962 187 900 q 531 1025 398 1025 q 769 962 664 1025 q 935 784 874 900 q 996 505 996 667 q 935 227 996 343 q 769 48 874 111 q 531 -14 664 -14 m 531 148 q 677 189 613 148 q 778 310 741 230 q 814 505 814 389 q 778 701 814 621 q 677 822 741 781 q 531 863 613 863 q 384 821 448 863 q 283 700 320 780 q 247 505 247 621 q 283 310 247 389 q 384 189 320 231 q 531 148 448 148 m 570 -291 q 446 -255 494 -291 q 397 -153 397 -219 q 427 -65 397 -101 q 505 -2 456 -30 q 611 54 553 26 q 727 117 669 82 q 833 203 785 153 q 910 327 881 254 q 940 505 940 400 l 996 505 q 972 315 996 394 q 909 180 948 235 q 824 86 871 124 q 731 21 778 47 q 645 -27 684 -5 q 583 -71 606 -48 q 559 -124 559 -94 q 572 -160 559 -147 q 612 -174 585 -174 q 640 -170 627 -174 q 665 -161 653 -166 l 697 -264 q 641 -283 674 -275 q 570 -291 608 -291 z "},"Ǭ":{"ha":1061,"x_min":65,"x_max":996,"o":"m 531 -14 q 293 48 398 -14 q 126 227 187 111 q 65 505 65 343 q 126 784 65 667 q 293 962 187 900 q 531 1025 398 1025 q 769 962 664 1025 q 935 784 874 900 q 996 505 996 667 q 935 227 996 343 q 769 48 874 111 q 531 -14 664 -14 m 531 148 q 677 189 613 148 q 778 310 741 230 q 814 505 814 389 q 778 701 814 621 q 677 822 741 781 q 531 863 613 863 q 384 821 448 863 q 283 700 320 780 q 247 505 247 621 q 283 310 247 389 q 384 189 320 231 q 531 148 448 148 m 570 -291 q 446 -255 494 -291 q 397 -153 397 -219 q 427 -65 397 -101 q 505 -2 456 -30 q 611 54 553 26 q 727 117 669 82 q 833 203 785 153 q 910 327 881 254 q 940 505 940 400 l 996 505 q 972 315 996 394 q 909 180 948 235 q 824 86 871 124 q 731 21 778 47 q 645 -27 684 -5 q 583 -71 606 -48 q 559 -124 559 -94 q 572 -160 559 -147 q 612 -174 585 -174 q 640 -170 627 -174 q 665 -161 653 -166 l 697 -264 q 641 -283 674 -275 q 570 -291 608 -291 m 724 1270 l 724 1152 l 338 1152 l 338 1270 l 724 1270 z "},"Ȍ":{"ha":1061,"x_min":65,"x_max":996,"o":"m 531 -14 q 293 48 398 -14 q 126 227 187 111 q 65 505 65 343 q 126 784 65 667 q 293 962 187 900 q 531 1025 398 1025 q 769 962 664 1025 q 935 784 874 900 q 996 505 996 667 q 935 227 996 343 q 769 48 874 111 q 531 -14 664 -14 m 531 148 q 677 189 613 148 q 778 310 741 230 q 814 505 814 389 q 778 701 814 621 q 677 822 741 781 q 531 863 613 863 q 384 821 448 863 q 283 700 320 780 q 247 505 247 621 q 283 310 247 389 q 384 189 320 231 q 531 148 448 148 m 584 1106 l 469 1314 l 634 1314 l 712 1106 l 584 1106 m 354 1106 l 193 1314 l 368 1314 l 484 1106 l 354 1106 z "},"Ȏ":{"ha":1061,"x_min":65,"x_max":996,"o":"m 531 -14 q 293 48 398 -14 q 126 227 187 111 q 65 505 65 343 q 126 784 65 667 q 293 962 187 900 q 531 1025 398 1025 q 769 962 664 1025 q 935 784 874 900 q 996 505 996 667 q 935 227 996 343 q 769 48 874 111 q 531 -14 664 -14 m 531 148 q 677 189 613 148 q 778 310 741 230 q 814 505 814 389 q 778 701 814 621 q 677 822 741 781 q 531 863 613 863 q 384 821 448 863 q 283 700 320 780 q 247 505 247 621 q 283 310 247 389 q 384 189 320 231 q 531 148 448 148 m 531 1324 q 647 1296 596 1324 q 727 1221 698 1268 q 757 1114 757 1173 l 648 1114 q 613 1190 648 1160 q 531 1219 579 1219 q 448 1190 482 1219 q 414 1114 414 1160 l 304 1114 q 334 1221 304 1173 q 415 1296 363 1268 q 531 1324 466 1324 z "},"Ȫ":{"ha":1061,"x_min":65,"x_max":996,"o":"m 531 -14 q 293 48 398 -14 q 126 227 187 111 q 65 505 65 343 q 126 784 65 667 q 293 962 187 900 q 531 1025 398 1025 q 769 962 664 1025 q 935 784 874 900 q 996 505 996 667 q 935 227 996 343 q 769 48 874 111 q 531 -14 664 -14 m 531 148 q 677 189 613 148 q 778 310 741 230 q 814 505 814 389 q 778 701 814 621 q 677 822 741 781 q 531 863 613 863 q 384 821 448 863 q 283 700 320 780 q 247 505 247 621 q 283 310 247 389 q 384 189 320 231 q 531 148 448 148 m 679 1102 q 611 1129 639 1102 q 583 1196 583 1157 q 611 1262 583 1235 q 679 1289 639 1289 q 746 1262 719 1289 q 774 1196 774 1235 q 746 1129 774 1157 q 679 1102 719 1102 m 383 1102 q 315 1129 343 1102 q 288 1196 288 1157 q 315 1262 288 1235 q 383 1289 343 1289 q 451 1262 423 1289 q 479 1196 479 1235 q 451 1129 479 1157 q 383 1102 423 1102 m 724 1476 l 724 1375 l 338 1375 l 338 1476 l 724 1476 z "},"Ȭ":{"ha":1061,"x_min":65,"x_max":996,"o":"m 531 -14 q 293 48 398 -14 q 126 227 187 111 q 65 505 65 343 q 126 784 65 667 q 293 962 187 900 q 531 1025 398 1025 q 769 962 664 1025 q 935 784 874 900 q 996 505 996 667 q 935 227 996 343 q 769 48 874 111 q 531 -14 664 -14 m 531 148 q 677 189 613 148 q 778 310 741 230 q 814 505 814 389 q 778 701 814 621 q 677 822 741 781 q 531 863 613 863 q 384 821 448 863 q 283 700 320 780 q 247 505 247 621 q 283 310 247 389 q 384 189 320 231 q 531 148 448 148 m 625 1111 q 570 1121 595 1111 q 525 1143 545 1131 q 487 1166 504 1156 q 454 1176 469 1176 q 424 1158 434 1176 q 412 1114 414 1140 l 310 1114 q 346 1236 312 1192 q 440 1280 380 1280 q 495 1271 471 1280 q 539 1248 519 1261 q 576 1225 559 1235 q 611 1215 593 1215 q 642 1231 632 1215 q 654 1277 652 1246 l 755 1277 q 718 1155 753 1199 q 625 1111 682 1111 m 725 1476 l 725 1375 l 338 1375 l 338 1476 l 725 1476 z "},"Ȯ":{"ha":1061,"x_min":65,"x_max":996,"o":"m 531 -14 q 293 48 398 -14 q 126 227 187 111 q 65 505 65 343 q 126 784 65 667 q 293 962 187 900 q 531 1025 398 1025 q 769 962 664 1025 q 935 784 874 900 q 996 505 996 667 q 935 227 996 343 q 769 48 874 111 q 531 -14 664 -14 m 531 148 q 677 189 613 148 q 778 310 741 230 q 814 505 814 389 q 778 701 814 621 q 677 822 741 781 q 531 863 613 863 q 384 821 448 863 q 283 700 320 780 q 247 505 247 621 q 283 310 247 389 q 384 189 320 231 q 531 148 448 148 m 531 1118 q 458 1146 488 1118 q 429 1215 429 1175 q 458 1283 429 1255 q 531 1311 488 1311 q 604 1283 574 1311 q 634 1215 634 1255 q 604 1146 634 1175 q 531 1118 574 1118 z "},"Ȱ":{"ha":1061,"x_min":65,"x_max":996,"o":"m 531 -14 q 293 48 398 -14 q 126 227 187 111 q 65 505 65 343 q 126 784 65 667 q 293 962 187 900 q 531 1025 398 1025 q 769 962 664 1025 q 935 784 874 900 q 996 505 996 667 q 935 227 996 343 q 769 48 874 111 q 531 -14 664 -14 m 531 148 q 677 189 613 148 q 778 310 741 230 q 814 505 814 389 q 778 701 814 621 q 677 822 741 781 q 531 863 613 863 q 384 821 448 863 q 283 700 320 780 q 247 505 247 621 q 283 310 247 389 q 384 189 320 231 q 531 148 448 148 m 532 1099 q 459 1127 489 1099 q 429 1196 429 1156 q 459 1264 429 1236 q 532 1293 489 1293 q 605 1264 574 1293 q 635 1196 635 1236 q 605 1127 635 1156 q 532 1099 574 1099 m 725 1476 l 725 1375 l 338 1375 l 338 1476 l 725 1476 z "},"Ṍ":{"ha":1061,"x_min":65,"x_max":996,"o":"m 531 -14 q 293 48 398 -14 q 126 227 187 111 q 65 505 65 343 q 126 784 65 667 q 293 962 187 900 q 531 1025 398 1025 q 769 962 664 1025 q 935 784 874 900 q 996 505 996 667 q 935 227 996 343 q 769 48 874 111 q 531 -14 664 -14 m 531 148 q 677 189 613 148 q 778 310 741 230 q 814 505 814 389 q 778 701 814 621 q 677 822 741 781 q 531 863 613 863 q 384 821 448 863 q 283 700 320 780 q 247 505 247 621 q 283 310 247 389 q 384 189 320 231 q 531 148 448 148 m 625 1111 q 570 1121 595 1111 q 525 1143 545 1131 q 487 1166 504 1156 q 454 1176 469 1176 q 424 1158 434 1176 q 412 1114 414 1140 l 310 1114 q 346 1236 312 1192 q 440 1280 380 1280 q 495 1271 471 1280 q 539 1248 519 1261 q 576 1225 559 1235 q 611 1215 593 1215 q 642 1231 632 1215 q 654 1277 652 1246 l 755 1277 q 718 1155 753 1199 q 625 1111 682 1111 m 466 1348 l 557 1533 l 714 1533 l 582 1348 l 466 1348 z "},"Ṏ":{"ha":1061,"x_min":65,"x_max":996,"o":"m 531 -14 q 293 48 398 -14 q 126 227 187 111 q 65 505 65 343 q 126 784 65 667 q 293 962 187 900 q 531 1025 398 1025 q 769 962 664 1025 q 935 784 874 900 q 996 505 996 667 q 935 227 996 343 q 769 48 874 111 q 531 -14 664 -14 m 531 148 q 677 189 613 148 q 778 310 741 230 q 814 505 814 389 q 778 701 814 621 q 677 822 741 781 q 531 863 613 863 q 384 821 448 863 q 283 700 320 780 q 247 505 247 621 q 283 310 247 389 q 384 189 320 231 q 531 148 448 148 m 625 1111 q 570 1121 595 1111 q 524 1143 545 1131 q 486 1166 503 1156 q 454 1176 469 1176 q 424 1158 434 1176 q 412 1114 414 1140 l 309 1114 q 346 1236 311 1192 q 439 1280 380 1280 q 494 1270 470 1280 q 538 1247 518 1260 q 575 1224 558 1234 q 610 1215 593 1215 q 641 1230 631 1215 q 654 1276 651 1245 l 754 1276 q 717 1155 753 1199 q 625 1111 682 1111 m 677 1341 q 610 1367 637 1341 q 583 1430 583 1393 q 610 1493 583 1467 q 677 1518 637 1518 q 744 1493 716 1518 q 771 1430 771 1467 q 744 1367 771 1393 q 677 1341 716 1341 m 385 1341 q 318 1367 345 1341 q 290 1430 290 1393 q 318 1493 290 1467 q 385 1518 345 1518 q 451 1493 424 1518 q 479 1430 479 1467 q 451 1367 479 1393 q 385 1341 424 1341 z "},"Ṑ":{"ha":1061,"x_min":65,"x_max":996,"o":"m 531 -14 q 293 48 398 -14 q 126 227 187 111 q 65 505 65 343 q 126 784 65 667 q 293 962 187 900 q 531 1025 398 1025 q 769 962 664 1025 q 935 784 874 900 q 996 505 996 667 q 935 227 996 343 q 769 48 874 111 q 531 -14 664 -14 m 531 148 q 677 189 613 148 q 778 310 741 230 q 814 505 814 389 q 778 701 814 621 q 677 822 741 781 q 531 863 613 863 q 384 821 448 863 q 283 700 320 780 q 247 505 247 621 q 283 310 247 389 q 384 189 320 231 q 531 148 448 148 m 725 1255 l 725 1137 l 338 1137 l 338 1255 l 725 1255 m 479 1347 l 348 1533 l 505 1533 l 596 1347 l 479 1347 z "},"Ṓ":{"ha":1061,"x_min":65,"x_max":996,"o":"m 531 -14 q 293 48 398 -14 q 126 227 187 111 q 65 505 65 343 q 126 784 65 667 q 293 962 187 900 q 531 1025 398 1025 q 769 962 664 1025 q 935 784 874 900 q 996 505 996 667 q 935 227 996 343 q 769 48 874 111 q 531 -14 664 -14 m 531 148 q 677 189 613 148 q 778 310 741 230 q 814 505 814 389 q 778 701 814 621 q 677 822 741 781 q 531 863 613 863 q 384 821 448 863 q 283 700 320 780 q 247 505 247 621 q 283 310 247 389 q 384 189 320 231 q 531 148 448 148 m 725 1255 l 725 1136 l 338 1136 l 338 1255 l 725 1255 m 474 1347 l 566 1533 l 722 1533 l 590 1347 l 474 1347 z "},"Ọ":{"ha":1061,"x_min":65,"x_max":996,"o":"m 531 -14 q 293 48 398 -14 q 126 227 187 111 q 65 505 65 343 q 126 784 65 667 q 293 962 187 900 q 531 1025 398 1025 q 769 962 664 1025 q 935 784 874 900 q 996 505 996 667 q 935 227 996 343 q 769 48 874 111 q 531 -14 664 -14 m 531 148 q 677 189 613 148 q 778 310 741 230 q 814 505 814 389 q 778 701 814 621 q 677 822 741 781 q 531 863 613 863 q 384 821 448 863 q 283 700 320 780 q 247 505 247 621 q 283 310 247 389 q 384 189 320 231 q 531 148 448 148 m 532 -303 q 459 -275 489 -303 q 429 -206 429 -246 q 459 -138 429 -165 q 532 -110 489 -110 q 605 -138 574 -110 q 635 -206 635 -165 q 605 -275 635 -246 q 532 -303 574 -303 z "},"Ỏ":{"ha":1061,"x_min":65,"x_max":996,"o":"m 531 -14 q 293 48 398 -14 q 126 227 187 111 q 65 505 65 343 q 126 784 65 667 q 293 962 187 900 q 531 1025 398 1025 q 769 962 664 1025 q 935 784 874 900 q 996 505 996 667 q 935 227 996 343 q 769 48 874 111 q 531 -14 664 -14 m 531 148 q 677 189 613 148 q 778 310 741 230 q 814 505 814 389 q 778 701 814 621 q 677 822 741 781 q 531 863 613 863 q 384 821 448 863 q 283 700 320 780 q 247 505 247 621 q 283 310 247 389 q 384 189 320 231 q 531 148 448 148 m 581 1106 l 469 1106 l 520 1198 q 522 1213 525 1208 q 509 1217 519 1217 l 406 1217 l 406 1314 l 510 1314 q 593 1300 562 1314 q 635 1264 623 1286 q 643 1214 648 1242 q 618 1159 638 1187 l 581 1106 z "},"Ố":{"ha":1061,"x_min":65,"x_max":996,"o":"m 531 -14 q 293 48 398 -14 q 126 227 187 111 q 65 505 65 343 q 126 784 65 667 q 293 962 187 900 q 531 1025 398 1025 q 769 962 664 1025 q 935 784 874 900 q 996 505 996 667 q 935 227 996 343 q 769 48 874 111 q 531 -14 664 -14 m 531 148 q 677 189 613 148 q 778 310 741 230 q 814 505 814 389 q 778 701 814 621 q 677 822 741 781 q 531 863 613 863 q 384 821 448 863 q 283 700 320 780 q 247 505 247 621 q 283 310 247 389 q 384 189 320 231 q 531 148 448 148 m 437 1097 l 283 1097 l 283 1101 l 461 1297 l 604 1297 l 784 1101 l 784 1097 l 629 1097 l 533 1213 l 437 1097 m 629 1344 l 720 1529 l 875 1529 l 745 1344 l 629 1344 z "},"Ồ":{"ha":1061,"x_min":65,"x_max":996,"o":"m 531 -14 q 293 48 398 -14 q 126 227 187 111 q 65 505 65 343 q 126 784 65 667 q 293 962 187 900 q 531 1025 398 1025 q 769 962 664 1025 q 935 784 874 900 q 996 505 996 667 q 935 227 996 343 q 769 48 874 111 q 531 -14 664 -14 m 531 148 q 677 189 613 148 q 778 310 741 230 q 814 505 814 389 q 778 701 814 621 q 677 822 741 781 q 531 863 613 863 q 384 821 448 863 q 283 700 320 780 q 247 505 247 621 q 283 310 247 389 q 384 189 320 231 q 531 148 448 148 m 437 1097 l 283 1097 l 283 1101 l 461 1297 l 604 1297 l 784 1101 l 784 1097 l 629 1097 l 533 1213 l 437 1097 m 680 1344 l 550 1529 l 705 1529 l 795 1344 l 680 1344 z "},"Ổ":{"ha":1061,"x_min":65,"x_max":996,"o":"m 531 -14 q 293 48 398 -14 q 126 227 187 111 q 65 505 65 343 q 126 784 65 667 q 293 962 187 900 q 531 1025 398 1025 q 769 962 664 1025 q 935 784 874 900 q 996 505 996 667 q 935 227 996 343 q 769 48 874 111 q 531 -14 664 -14 m 531 148 q 677 189 613 148 q 778 310 741 230 q 814 505 814 389 q 778 701 814 621 q 677 822 741 781 q 531 863 613 863 q 384 821 448 863 q 283 700 320 780 q 247 505 247 621 q 283 310 247 389 q 384 189 320 231 q 531 148 448 148 m 437 1097 l 283 1097 l 283 1101 l 461 1297 l 604 1297 l 784 1101 l 784 1097 l 629 1097 l 533 1213 l 437 1097 m 730 1344 l 629 1344 l 671 1422 q 674 1436 677 1432 q 661 1440 671 1440 l 567 1440 l 567 1529 l 662 1529 q 754 1508 724 1529 q 785 1453 784 1486 q 761 1385 786 1420 l 730 1344 z "},"Ỗ":{"ha":1061,"x_min":65,"x_max":996,"o":"m 531 -14 q 293 48 398 -14 q 126 227 187 111 q 65 505 65 343 q 126 784 65 667 q 293 962 187 900 q 531 1025 398 1025 q 769 962 664 1025 q 935 784 874 900 q 996 505 996 667 q 935 227 996 343 q 769 48 874 111 q 531 -14 664 -14 m 531 148 q 677 189 613 148 q 778 310 741 230 q 814 505 814 389 q 778 701 814 621 q 677 822 741 781 q 531 863 613 863 q 384 821 448 863 q 283 700 320 780 q 247 505 247 621 q 283 310 247 389 q 384 189 320 231 q 531 148 448 148 m 437 1097 l 283 1097 l 283 1101 l 461 1297 l 604 1297 l 784 1101 l 784 1097 l 629 1097 l 533 1213 l 437 1097 m 625 1357 q 571 1366 595 1357 q 525 1388 546 1375 q 487 1409 505 1400 q 454 1417 469 1417 q 425 1401 435 1417 q 413 1360 414 1384 l 310 1360 q 347 1473 312 1432 q 441 1514 381 1514 q 495 1505 471 1514 q 539 1484 519 1496 q 576 1463 559 1472 q 611 1454 594 1454 q 642 1468 632 1454 q 654 1512 652 1482 l 755 1512 q 718 1398 753 1439 q 625 1357 682 1357 z "},"Ộ":{"ha":1061,"x_min":65,"x_max":996,"o":"m 531 -14 q 293 48 398 -14 q 126 227 187 111 q 65 505 65 343 q 126 784 65 667 q 293 962 187 900 q 531 1025 398 1025 q 769 962 664 1025 q 935 784 874 900 q 996 505 996 667 q 935 227 996 343 q 769 48 874 111 q 531 -14 664 -14 m 531 148 q 677 189 613 148 q 778 310 741 230 q 814 505 814 389 q 778 701 814 621 q 677 822 741 781 q 531 863 613 863 q 384 821 448 863 q 283 700 320 780 q 247 505 247 621 q 283 310 247 389 q 384 189 320 231 q 531 148 448 148 m 435 1114 l 280 1114 l 280 1119 l 458 1314 l 602 1314 l 781 1119 l 781 1114 l 626 1114 l 530 1231 l 435 1114 m 532 -303 q 459 -275 489 -303 q 429 -206 429 -246 q 459 -138 429 -165 q 532 -110 489 -110 q 605 -138 574 -110 q 635 -206 635 -165 q 605 -275 635 -246 q 532 -303 574 -303 z "},"Ớ":{"ha":1067,"x_min":65,"x_max":998,"o":"m 533 910 l 533 1025 q 594 1023 570 1025 q 645 1018 618 1021 q 713 1013 671 1015 q 823 1010 754 1010 q 839 1026 839 1010 l 839 1156 l 998 1156 l 998 1021 q 961 924 998 955 q 861 893 924 893 q 800 896 829 893 q 736 902 771 899 q 653 908 701 905 q 533 910 604 910 m 531 -14 q 293 48 398 -14 q 126 227 187 111 q 65 505 65 343 q 126 784 65 667 q 293 962 187 900 q 531 1025 398 1025 q 769 962 664 1025 q 935 784 874 900 q 996 505 996 667 q 935 227 996 343 q 769 48 874 111 q 531 -14 664 -14 m 531 148 q 677 189 613 148 q 778 310 741 230 q 814 505 814 389 q 778 701 814 621 q 677 822 741 781 q 531 863 613 863 q 384 821 448 863 q 283 700 320 780 q 247 505 247 621 q 283 310 247 389 q 384 189 320 231 q 531 148 448 148 m 463 1106 l 561 1314 l 733 1314 l 591 1106 l 463 1106 z "},"Ờ":{"ha":1067,"x_min":65,"x_max":998,"o":"m 533 910 l 533 1025 q 594 1023 570 1025 q 645 1018 618 1021 q 713 1013 671 1015 q 823 1010 754 1010 q 839 1026 839 1010 l 839 1156 l 998 1156 l 998 1021 q 961 924 998 955 q 861 893 924 893 q 800 896 829 893 q 736 902 771 899 q 653 908 701 905 q 533 910 604 910 m 531 -14 q 293 48 398 -14 q 126 227 187 111 q 65 505 65 343 q 126 784 65 667 q 293 962 187 900 q 531 1025 398 1025 q 769 962 664 1025 q 935 784 874 900 q 996 505 996 667 q 935 227 996 343 q 769 48 874 111 q 531 -14 664 -14 m 531 148 q 677 189 613 148 q 778 310 741 230 q 814 505 814 389 q 778 701 814 621 q 677 822 741 781 q 531 863 613 863 q 384 821 448 863 q 283 700 320 780 q 247 505 247 621 q 283 310 247 389 q 384 189 320 231 q 531 148 448 148 m 469 1106 l 328 1314 l 500 1314 l 597 1106 l 469 1106 z "},"Ở":{"ha":1067,"x_min":65,"x_max":998,"o":"m 533 910 l 533 1025 q 594 1023 570 1025 q 645 1018 618 1021 q 713 1013 671 1015 q 823 1010 754 1010 q 839 1026 839 1010 l 839 1156 l 998 1156 l 998 1021 q 961 924 998 955 q 861 893 924 893 q 800 896 829 893 q 736 902 771 899 q 653 908 701 905 q 533 910 604 910 m 531 -14 q 293 48 398 -14 q 126 227 187 111 q 65 505 65 343 q 126 784 65 667 q 293 962 187 900 q 531 1025 398 1025 q 769 962 664 1025 q 935 784 874 900 q 996 505 996 667 q 935 227 996 343 q 769 48 874 111 q 531 -14 664 -14 m 531 148 q 677 189 613 148 q 778 310 741 230 q 814 505 814 389 q 778 701 814 621 q 677 822 741 781 q 531 863 613 863 q 384 821 448 863 q 283 700 320 780 q 247 505 247 621 q 283 310 247 389 q 384 189 320 231 q 531 148 448 148 m 581 1106 l 469 1106 l 520 1198 q 522 1213 525 1208 q 509 1217 519 1217 l 406 1217 l 406 1314 l 510 1314 q 593 1300 562 1314 q 635 1264 623 1286 q 643 1214 648 1242 q 618 1159 638 1187 l 581 1106 z "},"Ỡ":{"ha":1067,"x_min":65,"x_max":998,"o":"m 533 910 l 533 1025 q 594 1023 570 1025 q 645 1018 618 1021 q 713 1013 671 1015 q 823 1010 754 1010 q 839 1026 839 1010 l 839 1156 l 998 1156 l 998 1021 q 961 924 998 955 q 861 893 924 893 q 800 896 829 893 q 736 902 771 899 q 653 908 701 905 q 533 910 604 910 m 531 -14 q 293 48 398 -14 q 126 227 187 111 q 65 505 65 343 q 126 784 65 667 q 293 962 187 900 q 531 1025 398 1025 q 769 962 664 1025 q 935 784 874 900 q 996 505 996 667 q 935 227 996 343 q 769 48 874 111 q 531 -14 664 -14 m 531 148 q 677 189 613 148 q 778 310 741 230 q 814 505 814 389 q 778 701 814 621 q 677 822 741 781 q 531 863 613 863 q 384 821 448 863 q 283 700 320 780 q 247 505 247 621 q 283 310 247 389 q 384 189 320 231 q 531 148 448 148 m 624 1129 q 569 1139 594 1129 q 523 1162 544 1149 q 485 1184 503 1175 q 453 1194 468 1194 q 422 1177 433 1194 q 411 1133 412 1159 l 309 1133 q 345 1255 311 1211 q 439 1299 379 1299 q 493 1289 469 1299 q 537 1266 517 1279 q 575 1243 557 1253 q 610 1234 592 1234 q 641 1249 631 1234 q 652 1295 650 1264 l 753 1295 q 716 1173 752 1217 q 624 1129 681 1129 z "},"Ợ":{"ha":1067,"x_min":65,"x_max":998,"o":"m 533 910 l 533 1025 q 594 1023 570 1025 q 645 1018 618 1021 q 713 1013 671 1015 q 823 1010 754 1010 q 839 1026 839 1010 l 839 1156 l 998 1156 l 998 1021 q 961 924 998 955 q 861 893 924 893 q 800 896 829 893 q 736 902 771 899 q 653 908 701 905 q 533 910 604 910 m 531 -14 q 293 48 398 -14 q 126 227 187 111 q 65 505 65 343 q 126 784 65 667 q 293 962 187 900 q 531 1025 398 1025 q 769 962 664 1025 q 935 784 874 900 q 996 505 996 667 q 935 227 996 343 q 769 48 874 111 q 531 -14 664 -14 m 531 148 q 677 189 613 148 q 778 310 741 230 q 814 505 814 389 q 778 701 814 621 q 677 822 741 781 q 531 863 613 863 q 384 821 448 863 q 283 700 320 780 q 247 505 247 621 q 283 310 247 389 q 384 189 320 231 q 531 148 448 148 m 532 -303 q 459 -275 489 -303 q 429 -206 429 -246 q 459 -138 429 -165 q 532 -110 489 -110 q 605 -138 574 -110 q 635 -206 635 -165 q 605 -275 635 -246 q 532 -303 574 -303 z "},"Ǿ":{"ha":1061,"x_min":65,"x_max":996,"o":"m 531 -14 q 293 48 398 -14 q 126 227 187 111 q 65 505 65 343 q 126 784 65 667 q 293 962 187 900 q 531 1025 398 1025 q 769 962 664 1025 q 935 784 874 900 q 996 505 996 667 q 935 227 996 343 q 769 48 874 111 q 531 -14 664 -14 m 531 148 q 677 189 613 148 q 778 310 741 230 q 814 505 814 389 q 778 701 814 621 q 677 822 741 781 q 531 863 613 863 q 384 821 448 863 q 283 700 320 780 q 247 505 247 621 q 283 310 247 389 q 384 189 320 231 q 531 148 448 148 m 205 -41 l 107 31 l 856 1050 l 954 979 l 205 -41 m 463 1106 l 561 1314 l 733 1314 l 591 1106 l 463 1106 z "},"Ο":{"ha":1061,"x_min":65,"x_max":996,"o":"m 531 -14 q 293 48 398 -14 q 126 227 187 111 q 65 505 65 343 q 126 784 65 667 q 293 962 187 900 q 531 1025 398 1025 q 769 962 664 1025 q 935 784 874 900 q 996 505 996 667 q 935 227 996 343 q 769 48 874 111 q 531 -14 664 -14 m 531 148 q 677 189 613 148 q 778 310 741 230 q 814 505 814 389 q 778 701 814 621 q 677 822 741 781 q 531 863 613 863 q 384 821 448 863 q 283 700 320 780 q 247 505 247 621 q 283 310 247 389 q 384 189 320 231 q 531 148 448 148 z "},"Ό":{"ha":1230,"x_min":51,"x_max":1157,"o":"m 692 -14 q 454 48 559 -14 q 288 227 349 111 q 227 505 227 343 q 288 784 227 667 q 454 962 349 900 q 692 1025 559 1025 q 930 962 825 1025 q 1096 784 1036 900 q 1157 505 1157 667 q 1096 227 1157 343 q 930 48 1036 111 q 692 -14 825 -14 m 692 148 q 839 189 774 148 q 939 310 903 230 q 975 505 975 389 q 939 701 975 621 q 839 822 903 781 q 692 863 774 863 q 546 821 610 863 q 445 700 481 780 q 408 505 408 621 q 445 310 408 389 q 546 189 481 231 q 692 148 610 148 m 51 803 l 74 1010 l 237 1010 l 159 803 l 51 803 z "},"Ὀ":{"ha":1247,"x_min":51,"x_max":1174,"o":"m 709 -14 q 471 48 576 -14 q 304 227 366 111 q 243 505 243 343 q 304 784 243 667 q 471 962 366 900 q 709 1025 576 1025 q 947 962 842 1025 q 1113 784 1053 900 q 1174 505 1174 667 q 1113 227 1174 343 q 947 48 1053 111 q 709 -14 842 -14 m 709 148 q 856 189 791 148 q 956 310 920 230 q 992 505 992 389 q 956 701 992 621 q 856 822 920 781 q 709 863 791 863 q 563 821 627 863 q 462 700 498 780 q 425 505 425 621 q 462 310 425 389 q 563 189 498 231 q 709 148 627 148 m 78 806 l 69 806 l 69 861 l 79 861 q 132 871 114 861 q 149 905 149 882 q 132 933 149 924 q 82 943 115 943 l 51 943 l 51 1031 l 78 1031 q 207 1002 162 1031 q 251 919 251 972 q 206 835 251 864 q 78 806 161 806 z "},"Ὁ":{"ha":1259,"x_min":51,"x_max":1186,"o":"m 721 -14 q 483 48 588 -14 q 316 227 377 111 q 255 505 255 343 q 316 784 255 667 q 483 962 377 900 q 721 1025 588 1025 q 959 962 854 1025 q 1125 784 1064 900 q 1185 505 1185 667 q 1125 227 1185 343 q 959 48 1064 111 q 721 -14 854 -14 m 721 148 q 867 189 803 148 q 967 310 931 230 q 1004 505 1004 389 q 967 701 1004 621 q 867 822 931 781 q 721 863 803 863 q 574 821 638 863 q 473 700 510 780 q 437 505 437 621 q 473 310 437 389 q 574 189 510 231 q 721 148 638 148 m 224 791 q 96 820 140 791 q 51 904 51 849 q 95 987 51 958 q 224 1016 140 1016 l 251 1016 l 251 928 l 220 928 q 170 919 186 928 q 153 890 153 909 q 170 857 153 867 q 223 846 188 846 l 233 846 l 233 791 l 224 791 z "},"Ὂ":{"ha":1482,"x_min":51,"x_max":1410,"o":"m 945 -14 q 706 48 812 -14 q 540 227 601 111 q 479 505 479 343 q 540 784 479 667 q 706 962 601 900 q 945 1025 812 1025 q 1183 962 1078 1025 q 1349 784 1288 900 q 1409 505 1409 667 q 1349 227 1409 343 q 1183 48 1288 111 q 945 -14 1078 -14 m 945 148 q 1091 189 1027 148 q 1191 310 1155 230 q 1227 505 1227 389 q 1191 701 1227 621 q 1091 822 1155 781 q 945 863 1027 863 q 798 821 862 863 q 697 700 734 780 q 661 505 661 621 q 697 310 661 389 q 798 189 734 231 q 945 148 862 148 m 78 791 l 69 791 l 69 846 l 79 846 q 132 857 114 846 q 149 890 149 867 q 132 919 149 909 q 82 928 115 928 l 51 928 l 51 1016 l 78 1016 q 207 987 162 1016 q 251 904 251 958 q 206 820 251 849 q 78 791 161 791 m 450 798 l 349 798 l 276 1010 l 428 1010 l 450 798 z "},"Ὃ":{"ha":1504,"x_min":51,"x_max":1432,"o":"m 966 -14 q 728 48 833 -14 q 562 227 623 111 q 500 505 500 343 q 562 784 500 667 q 728 962 623 900 q 966 1025 833 1025 q 1204 962 1099 1025 q 1370 784 1310 900 q 1431 505 1431 667 q 1370 227 1431 343 q 1204 48 1310 111 q 966 -14 1099 -14 m 966 148 q 1113 189 1048 148 q 1213 310 1177 230 q 1249 505 1249 389 q 1213 701 1249 621 q 1113 822 1177 781 q 966 863 1048 863 q 820 821 884 863 q 719 700 755 780 q 682 505 682 621 q 719 310 682 389 q 820 189 755 231 q 966 148 884 148 m 224 791 q 96 820 140 791 q 51 904 51 849 q 95 987 51 958 q 224 1016 140 1016 l 251 1016 l 251 928 l 220 928 q 170 919 186 928 q 153 890 153 909 q 170 857 153 867 q 223 846 188 846 l 233 846 l 233 791 l 224 791 m 472 798 l 372 798 l 298 1010 l 450 1010 l 472 798 z "},"Ὄ":{"ha":1489,"x_min":51,"x_max":1416,"o":"m 951 -14 q 713 48 819 -14 q 547 227 608 111 q 486 505 486 343 q 547 784 486 667 q 713 962 608 900 q 951 1025 819 1025 q 1190 962 1084 1025 q 1355 784 1295 900 q 1416 505 1416 667 q 1355 227 1416 343 q 1190 48 1295 111 q 951 -14 1084 -14 m 951 148 q 1098 189 1034 148 q 1198 310 1162 230 q 1234 505 1234 389 q 1198 701 1234 621 q 1098 822 1162 781 q 951 863 1034 863 q 805 821 869 863 q 704 700 741 780 q 667 505 667 621 q 704 310 667 389 q 805 189 741 231 q 951 148 869 148 m 78 791 l 69 791 l 69 846 l 79 846 q 132 857 114 846 q 149 890 149 867 q 132 919 149 909 q 82 928 115 928 l 51 928 l 51 1016 l 78 1016 q 207 987 162 1016 q 251 904 251 958 q 206 820 251 849 q 78 791 161 791 m 328 798 l 350 1010 l 502 1010 l 429 798 l 328 798 z "},"Ὅ":{"ha":1504,"x_min":51,"x_max":1431,"o":"m 966 -14 q 728 48 833 -14 q 562 227 623 111 q 500 505 500 343 q 562 784 500 667 q 728 962 623 900 q 966 1025 833 1025 q 1204 962 1099 1025 q 1370 784 1310 900 q 1431 505 1431 667 q 1370 227 1431 343 q 1204 48 1310 111 q 966 -14 1099 -14 m 966 148 q 1113 189 1048 148 q 1213 310 1177 230 q 1249 505 1249 389 q 1213 701 1249 621 q 1113 822 1177 781 q 966 863 1048 863 q 820 821 884 863 q 719 700 755 780 q 682 505 682 621 q 719 310 682 389 q 820 189 755 231 q 966 148 884 148 m 224 791 q 96 820 140 791 q 51 904 51 849 q 95 987 51 958 q 224 1016 140 1016 l 251 1016 l 251 928 l 220 928 q 170 919 186 928 q 153 890 153 909 q 170 857 153 867 q 223 846 188 846 l 233 846 l 233 791 l 224 791 m 338 798 l 360 1010 l 512 1010 l 439 798 l 338 798 z "},"Ὸ":{"ha":1061,"x_min":-197,"x_max":996,"o":"m 531 -14 q 293 48 398 -14 q 126 227 187 111 q 65 505 65 343 q 126 784 65 667 q 293 962 187 900 q 531 1025 398 1025 q 769 962 664 1025 q 935 784 874 900 q 996 505 996 667 q 935 227 996 343 q 769 48 874 111 q 531 -14 664 -14 m 531 148 q 677 189 613 148 q 778 310 741 230 q 814 505 814 389 q 778 701 814 621 q 677 822 741 781 q 531 863 613 863 q 384 821 448 863 q 283 700 320 780 q 247 505 247 621 q 283 310 247 389 q 384 189 320 231 q 531 148 448 148 m -10 842 l -119 842 l -197 1049 l -33 1049 l -10 842 z "},"ϴ":{"ha":1061,"x_min":65,"x_max":996,"o":"m 867 568 l 867 441 l 200 441 l 200 568 l 867 568 m 531 -14 q 293 48 398 -14 q 126 227 187 111 q 65 505 65 343 q 126 784 65 667 q 293 962 187 900 q 531 1025 398 1025 q 769 962 664 1025 q 935 784 874 900 q 996 505 996 667 q 935 227 996 343 q 769 48 874 111 q 531 -14 664 -14 m 531 148 q 677 189 613 148 q 778 310 741 230 q 814 505 814 389 q 778 701 814 621 q 677 822 741 781 q 531 863 613 863 q 384 821 448 863 q 283 700 320 780 q 247 505 247 621 q 283 310 247 389 q 384 189 320 231 q 531 148 448 148 z "},"Ό":{"ha":1230,"x_min":51,"x_max":1157,"o":"m 692 -14 q 454 48 559 -14 q 288 227 349 111 q 227 505 227 343 q 288 784 227 667 q 454 962 349 900 q 692 1025 559 1025 q 930 962 825 1025 q 1096 784 1036 900 q 1157 505 1157 667 q 1096 227 1157 343 q 930 48 1036 111 q 692 -14 825 -14 m 692 148 q 839 189 774 148 q 939 310 903 230 q 975 505 975 389 q 939 701 975 621 q 839 822 903 781 q 692 863 774 863 q 546 821 610 863 q 445 700 481 780 q 408 505 408 621 q 445 310 408 389 q 546 189 481 231 q 692 148 610 148 m 51 803 l 74 1010 l 237 1010 l 159 803 l 51 803 z "},"О":{"ha":1061,"x_min":65,"x_max":996,"o":"m 531 -14 q 293 48 398 -14 q 126 227 187 111 q 65 505 65 343 q 126 784 65 667 q 293 962 187 900 q 531 1025 398 1025 q 769 962 664 1025 q 935 784 874 900 q 996 505 996 667 q 935 227 996 343 q 769 48 874 111 q 531 -14 664 -14 m 531 148 q 677 189 613 148 q 778 310 741 230 q 814 505 814 389 q 778 701 814 621 q 677 822 741 781 q 531 863 613 863 q 384 821 448 863 q 283 700 320 780 q 247 505 247 621 q 283 310 247 389 q 384 189 320 231 q 531 148 448 148 z "},"Ӧ":{"ha":1061,"x_min":65,"x_max":996,"o":"m 531 -14 q 293 48 398 -14 q 126 227 187 111 q 65 505 65 343 q 126 784 65 667 q 293 962 187 900 q 531 1025 398 1025 q 769 962 664 1025 q 935 784 874 900 q 996 505 996 667 q 935 227 996 343 q 769 48 874 111 q 531 -14 664 -14 m 531 148 q 677 189 613 148 q 778 310 741 230 q 814 505 814 389 q 778 701 814 621 q 677 822 741 781 q 531 863 613 863 q 384 821 448 863 q 283 700 320 780 q 247 505 247 621 q 283 310 247 389 q 384 189 320 231 q 531 148 448 148 m 679 1121 q 611 1148 639 1121 q 583 1215 583 1176 q 611 1281 583 1254 q 679 1308 639 1308 q 746 1281 719 1308 q 774 1215 774 1254 q 746 1148 774 1176 q 679 1121 719 1121 m 383 1121 q 315 1148 343 1121 q 288 1215 288 1176 q 315 1281 288 1254 q 383 1308 343 1308 q 451 1281 423 1308 q 479 1215 479 1254 q 451 1148 479 1176 q 383 1121 423 1121 z "},"Ɵ":{"ha":1061,"x_min":65,"x_max":996,"o":"m 867 568 l 867 441 l 200 441 l 200 568 l 867 568 m 531 -14 q 293 48 398 -14 q 126 227 187 111 q 65 505 65 343 q 126 784 65 667 q 293 962 187 900 q 531 1025 398 1025 q 769 962 664 1025 q 935 784 874 900 q 996 505 996 667 q 935 227 996 343 q 769 48 874 111 q 531 -14 664 -14 m 531 148 q 677 189 613 148 q 778 310 741 230 q 814 505 814 389 q 778 701 814 621 q 677 822 741 781 q 531 863 613 863 q 384 821 448 863 q 283 700 320 780 q 247 505 247 621 q 283 310 247 389 q 384 189 320 231 q 531 148 448 148 z "},"Ө":{"ha":1061,"x_min":65,"x_max":996,"o":"m 867 568 l 867 441 l 200 441 l 200 568 l 867 568 m 531 -14 q 293 48 398 -14 q 126 227 187 111 q 65 505 65 343 q 126 784 65 667 q 293 962 187 900 q 531 1025 398 1025 q 769 962 664 1025 q 935 784 874 900 q 996 505 996 667 q 935 227 996 343 q 769 48 874 111 q 531 -14 664 -14 m 531 148 q 677 189 613 148 q 778 310 741 230 q 814 505 814 389 q 778 701 814 621 q 677 822 741 781 q 531 863 613 863 q 384 821 448 863 q 283 700 320 780 q 247 505 247 621 q 283 310 247 389 q 384 189 320 231 q 531 148 448 148 z "},"Ӫ":{"ha":1061,"x_min":65,"x_max":996,"o":"m 867 568 l 867 441 l 200 441 l 200 568 l 867 568 m 531 -14 q 293 48 398 -14 q 126 227 187 111 q 65 505 65 343 q 126 784 65 667 q 293 962 187 900 q 531 1025 398 1025 q 769 962 664 1025 q 935 784 874 900 q 996 505 996 667 q 935 227 996 343 q 769 48 874 111 q 531 -14 664 -14 m 531 148 q 677 189 613 148 q 778 310 741 230 q 814 505 814 389 q 778 701 814 621 q 677 822 741 781 q 531 863 613 863 q 384 821 448 863 q 283 700 320 780 q 247 505 247 621 q 283 310 247 389 q 384 189 320 231 q 531 148 448 148 m 679 1121 q 611 1148 639 1121 q 583 1215 583 1176 q 611 1281 583 1254 q 679 1308 639 1308 q 746 1281 719 1308 q 774 1215 774 1254 q 746 1148 774 1176 q 679 1121 719 1121 m 383 1121 q 315 1148 343 1121 q 288 1215 288 1176 q 315 1281 288 1254 q 383 1308 343 1308 q 451 1281 423 1308 q 479 1215 479 1254 q 451 1148 479 1176 q 383 1121 423 1121 z "},"Œ":{"ha":1408,"x_min":65,"x_max":1336,"o":"m 541 0 q 291 62 397 0 q 124 238 184 124 q 65 505 65 351 q 124 773 65 660 q 291 948 184 886 q 541 1010 397 1010 l 760 1010 l 760 854 l 547 854 q 385 814 453 854 q 281 697 317 774 q 244 505 244 619 q 281 314 244 392 q 385 196 317 236 q 547 156 452 156 l 757 156 l 757 0 l 541 0 m 667 0 l 667 1010 l 1333 1010 l 1333 857 l 848 857 l 848 587 l 1297 587 l 1297 435 l 848 435 l 848 153 l 1336 153 l 1336 0 l 667 0 z "},"P":{"ha":890,"x_min":98,"x_max":834,"o":"m 98 0 l 98 1010 l 477 1010 q 672 968 593 1010 q 793 850 751 925 q 834 678 834 776 q 792 506 834 581 q 670 389 751 431 q 475 347 590 347 l 216 347 l 216 496 l 454 496 q 565 520 522 496 q 630 584 608 543 q 651 678 651 625 q 630 773 651 732 q 565 836 608 813 q 454 859 521 859 l 279 859 l 279 0 l 98 0 z "},"Ṕ":{"ha":890,"x_min":98,"x_max":834,"o":"m 98 0 l 98 1010 l 477 1010 q 672 968 593 1010 q 793 850 751 925 q 834 678 834 776 q 792 506 834 581 q 670 389 751 431 q 475 347 590 347 l 216 347 l 216 496 l 454 496 q 565 520 522 496 q 630 584 608 543 q 651 678 651 625 q 630 773 651 732 q 565 836 608 813 q 454 859 521 859 l 279 859 l 279 0 l 98 0 m 372 1106 l 470 1314 l 642 1314 l 500 1106 l 372 1106 z "},"Ṗ":{"ha":890,"x_min":98,"x_max":834,"o":"m 98 0 l 98 1010 l 477 1010 q 672 968 593 1010 q 793 850 751 925 q 834 678 834 776 q 792 506 834 581 q 670 389 751 431 q 475 347 590 347 l 216 347 l 216 496 l 454 496 q 565 520 522 496 q 630 584 608 543 q 651 678 651 625 q 630 773 651 732 q 565 836 608 813 q 454 859 521 859 l 279 859 l 279 0 l 98 0 m 439 1118 q 367 1146 397 1118 q 337 1215 337 1175 q 367 1283 337 1255 q 439 1311 397 1311 q 512 1283 482 1311 q 543 1215 543 1255 q 512 1146 543 1175 q 439 1118 482 1118 z "},"Ҏ":{"ha":896,"x_min":100,"x_max":838,"o":"m 530 658 l 761 300 l 671 243 l 439 600 l 530 658 m 100 0 l 100 1010 l 480 1010 q 675 968 595 1010 q 796 850 755 925 q 838 678 838 776 q 795 506 838 581 q 673 389 753 431 q 477 347 593 347 l 219 347 l 219 496 l 457 496 q 568 520 524 496 q 633 584 612 543 q 654 678 654 625 q 633 773 654 732 q 568 836 612 813 q 456 859 524 859 l 281 859 l 281 0 l 100 0 z "},"Ƥ":{"ha":1128,"x_min":34,"x_max":1073,"o":"m 34 727 l 34 790 q 94 956 34 901 q 279 1010 155 1010 l 336 1010 l 336 859 l 285 859 q 220 839 241 859 q 199 778 199 819 l 199 727 l 34 727 m 336 0 l 336 1010 l 716 1010 q 911 968 831 1010 q 1031 850 990 925 q 1073 678 1073 776 q 1031 506 1073 581 q 909 389 989 431 q 713 347 829 347 l 455 347 l 455 496 l 693 496 q 804 520 760 496 q 868 584 847 543 q 890 678 890 625 q 868 773 890 732 q 803 836 847 813 q 692 859 760 859 l 517 859 l 517 0 l 336 0 z "},"Ρ":{"ha":890,"x_min":98,"x_max":834,"o":"m 98 0 l 98 1010 l 477 1010 q 672 968 593 1010 q 793 850 751 925 q 834 678 834 776 q 792 506 834 581 q 670 389 751 431 q 475 347 590 347 l 216 347 l 216 496 l 454 496 q 565 520 522 496 q 630 584 608 543 q 651 678 651 625 q 630 773 651 732 q 565 836 608 813 q 454 859 521 859 l 279 859 l 279 0 l 98 0 z "},"Ῥ":{"ha":1164,"x_min":51,"x_max":1109,"o":"m 372 0 l 372 1010 l 752 1010 q 947 968 867 1010 q 1067 850 1026 925 q 1109 678 1109 776 q 1067 506 1109 581 q 945 389 1025 431 q 749 347 865 347 l 491 347 l 491 496 l 729 496 q 840 520 796 496 q 904 584 883 543 q 926 678 926 625 q 904 773 926 732 q 839 836 883 813 q 728 859 795 859 l 553 859 l 553 0 l 372 0 m 224 791 q 96 820 140 791 q 51 904 51 849 q 95 987 51 958 q 224 1016 140 1016 l 251 1016 l 251 928 l 220 928 q 170 919 186 928 q 153 890 153 909 q 170 857 153 867 q 223 846 188 846 l 233 846 l 233 791 l 224 791 z "},"Q":{"ha":1065,"x_min":65,"x_max":996,"o":"m 471 337 l 633 337 l 733 208 l 798 130 l 968 -87 l 795 -87 l 682 57 l 633 123 l 471 337 m 531 -14 q 293 48 398 -14 q 126 227 187 111 q 65 505 65 343 q 126 784 65 667 q 293 962 187 900 q 531 1025 398 1025 q 769 962 664 1025 q 935 784 874 900 q 996 505 996 667 q 935 227 996 343 q 769 48 874 111 q 531 -14 664 -14 m 531 148 q 677 189 613 148 q 778 310 741 230 q 814 505 814 389 q 778 701 814 621 q 677 822 741 781 q 531 863 613 863 q 384 821 448 863 q 283 700 320 780 q 247 505 247 621 q 283 310 247 389 q 384 189 320 231 q 531 148 448 148 z "},"Ɋ":{"ha":1064,"x_min":65,"x_max":1114,"o":"m 966 1010 l 966 0 l 791 0 l 791 153 l 785 153 q 671 31 747 77 q 493 -16 595 -16 q 321 23 399 -16 q 185 133 243 62 q 97 299 128 203 q 65 507 65 394 q 97 712 65 618 q 186 877 128 807 q 322 986 243 947 q 493 1025 400 1025 q 672 979 596 1025 q 785 860 747 934 l 791 860 l 791 1010 l 966 1010 m 519 148 q 673 193 612 148 q 763 319 733 238 q 792 506 792 400 q 762 692 792 612 q 671 819 731 773 q 521 864 610 864 q 376 819 437 864 q 281 694 315 774 q 248 506 248 614 q 281 314 248 395 q 376 191 315 234 q 519 148 437 148 m 1019 -291 q 849 -240 906 -291 q 791 -90 791 -189 l 791 0 l 966 0 l 966 -89 q 987 -138 966 -123 q 1055 -153 1007 -153 q 1084 -152 1068 -153 q 1114 -149 1099 -151 l 1114 -283 q 1072 -289 1096 -287 q 1019 -291 1047 -291 z "},"R":{"ha":903,"x_min":98,"x_max":869,"o":"m 98 0 l 98 1010 l 479 1010 q 674 970 594 1010 q 795 857 753 930 q 836 687 836 784 q 794 519 836 590 q 671 409 752 448 q 475 370 591 370 l 203 370 l 203 520 l 456 520 q 567 540 524 520 q 632 597 610 559 q 653 687 653 634 q 632 780 653 741 q 567 838 610 818 q 456 859 523 859 l 279 859 l 279 0 l 98 0 m 668 0 l 425 458 l 622 458 l 869 0 l 668 0 z "},"Ŕ":{"ha":903,"x_min":98,"x_max":869,"o":"m 98 0 l 98 1010 l 479 1010 q 674 970 594 1010 q 795 857 753 930 q 836 687 836 784 q 794 519 836 590 q 671 409 752 448 q 475 370 591 370 l 203 370 l 203 520 l 456 520 q 567 540 524 520 q 632 597 610 559 q 653 687 653 634 q 632 780 653 741 q 567 838 610 818 q 456 859 523 859 l 279 859 l 279 0 l 98 0 m 668 0 l 425 458 l 622 458 l 869 0 l 668 0 m 379 1106 l 477 1314 l 649 1314 l 507 1106 l 379 1106 z "},"Ŗ":{"ha":903,"x_min":98,"x_max":869,"o":"m 98 0 l 98 1010 l 479 1010 q 674 970 594 1010 q 795 857 753 930 q 836 687 836 784 q 794 519 836 590 q 671 409 752 448 q 475 370 591 370 l 203 370 l 203 520 l 456 520 q 567 540 524 520 q 632 597 610 559 q 653 687 653 634 q 632 780 653 741 q 567 838 610 818 q 456 859 523 859 l 279 859 l 279 0 l 98 0 m 668 0 l 425 458 l 622 458 l 869 0 l 668 0 m 319 -328 l 378 -80 l 545 -80 l 445 -328 l 319 -328 z "},"Ř":{"ha":903,"x_min":98,"x_max":869,"o":"m 98 0 l 98 1010 l 479 1010 q 674 970 594 1010 q 795 857 753 930 q 836 687 836 784 q 794 519 836 590 q 671 409 752 448 q 475 370 591 370 l 203 370 l 203 520 l 456 520 q 567 540 524 520 q 632 597 610 559 q 653 687 653 634 q 632 780 653 741 q 567 838 610 818 q 456 859 523 859 l 279 859 l 279 0 l 98 0 m 668 0 l 425 458 l 622 458 l 869 0 l 668 0 m 351 1314 l 446 1198 l 542 1314 l 697 1314 l 697 1310 l 517 1114 l 374 1114 l 196 1310 l 196 1314 l 351 1314 z "},"Ȑ":{"ha":903,"x_min":98,"x_max":869,"o":"m 98 0 l 98 1010 l 479 1010 q 674 970 594 1010 q 795 857 753 930 q 836 687 836 784 q 794 519 836 590 q 671 409 752 448 q 475 370 591 370 l 203 370 l 203 520 l 456 520 q 567 540 524 520 q 632 597 610 559 q 653 687 653 634 q 632 780 653 741 q 567 838 610 818 q 456 859 523 859 l 279 859 l 279 0 l 98 0 m 668 0 l 425 458 l 622 458 l 869 0 l 668 0 m 500 1106 l 385 1314 l 550 1314 l 628 1106 l 500 1106 m 270 1106 l 109 1314 l 283 1314 l 400 1106 l 270 1106 z "},"Ȓ":{"ha":903,"x_min":98,"x_max":869,"o":"m 98 0 l 98 1010 l 479 1010 q 674 970 594 1010 q 795 857 753 930 q 836 687 836 784 q 794 519 836 590 q 671 409 752 448 q 475 370 591 370 l 203 370 l 203 520 l 456 520 q 567 540 524 520 q 632 597 610 559 q 653 687 653 634 q 632 780 653 741 q 567 838 610 818 q 456 859 523 859 l 279 859 l 279 0 l 98 0 m 668 0 l 425 458 l 622 458 l 869 0 l 668 0 m 447 1324 q 563 1296 512 1324 q 643 1221 614 1268 q 673 1114 673 1173 l 564 1114 q 529 1190 564 1160 q 447 1219 495 1219 q 364 1190 398 1219 q 330 1114 330 1160 l 220 1114 q 250 1221 220 1173 q 331 1296 279 1268 q 447 1324 382 1324 z "},"Ṙ":{"ha":903,"x_min":98,"x_max":869,"o":"m 98 0 l 98 1010 l 479 1010 q 674 970 594 1010 q 795 857 753 930 q 836 687 836 784 q 794 519 836 590 q 671 409 752 448 q 475 370 591 370 l 203 370 l 203 520 l 456 520 q 567 540 524 520 q 632 597 610 559 q 653 687 653 634 q 632 780 653 741 q 567 838 610 818 q 456 859 523 859 l 279 859 l 279 0 l 98 0 m 668 0 l 425 458 l 622 458 l 869 0 l 668 0 m 446 1118 q 374 1146 404 1118 q 344 1215 344 1175 q 374 1283 344 1255 q 446 1311 404 1311 q 519 1283 489 1311 q 549 1215 549 1255 q 519 1146 549 1175 q 446 1118 489 1118 z "},"Ṛ":{"ha":903,"x_min":98,"x_max":869,"o":"m 98 0 l 98 1010 l 479 1010 q 674 970 594 1010 q 795 857 753 930 q 836 687 836 784 q 794 519 836 590 q 671 409 752 448 q 475 370 591 370 l 203 370 l 203 520 l 456 520 q 567 540 524 520 q 632 597 610 559 q 653 687 653 634 q 632 780 653 741 q 567 838 610 818 q 456 859 523 859 l 279 859 l 279 0 l 98 0 m 668 0 l 425 458 l 622 458 l 869 0 l 668 0 m 462 -303 q 389 -275 419 -303 q 359 -206 359 -246 q 389 -138 359 -165 q 462 -110 419 -110 q 535 -138 505 -110 q 565 -206 565 -165 q 535 -275 565 -246 q 462 -303 505 -303 z "},"Ṝ":{"ha":903,"x_min":98,"x_max":869,"o":"m 98 0 l 98 1010 l 479 1010 q 674 970 594 1010 q 795 857 753 930 q 836 687 836 784 q 794 519 836 590 q 671 409 752 448 q 475 370 591 370 l 203 370 l 203 520 l 456 520 q 567 540 524 520 q 632 597 610 559 q 653 687 653 634 q 632 780 653 741 q 567 838 610 818 q 456 859 523 859 l 279 859 l 279 0 l 98 0 m 668 0 l 425 458 l 622 458 l 869 0 l 668 0 m 462 -303 q 389 -275 419 -303 q 359 -206 359 -246 q 389 -138 359 -165 q 462 -110 419 -110 q 535 -138 505 -110 q 565 -206 565 -165 q 535 -275 565 -246 q 462 -303 505 -303 m 640 1270 l 640 1152 l 254 1152 l 254 1270 l 640 1270 z "},"Ṟ":{"ha":903,"x_min":98,"x_max":869,"o":"m 98 0 l 98 1010 l 479 1010 q 674 970 594 1010 q 795 857 753 930 q 836 687 836 784 q 794 519 836 590 q 671 409 752 448 q 475 370 591 370 l 203 370 l 203 520 l 456 520 q 567 540 524 520 q 632 597 610 559 q 653 687 653 634 q 632 780 653 741 q 567 838 610 818 q 456 859 523 859 l 279 859 l 279 0 l 98 0 m 668 0 l 425 458 l 622 458 l 869 0 l 668 0 m 655 -142 l 655 -260 l 269 -260 l 269 -142 l 655 -142 z "},"℟":{"ha":899,"x_min":100,"x_max":871,"o":"m 654 1148 l 316 -245 l 237 -231 l 563 1097 l 347 1154 l 370 1227 l 654 1148 m 100 0 l 100 1010 l 481 1010 q 676 970 596 1010 q 797 857 755 930 q 838 687 838 784 q 796 519 838 590 q 673 409 754 448 q 477 370 593 370 l 205 370 l 205 520 l 458 520 q 569 540 525 520 q 634 597 612 559 q 655 687 655 634 q 633 780 655 741 q 568 838 612 818 q 458 859 525 859 l 280 859 l 280 0 l 100 0 m 670 0 l 427 458 l 624 458 l 871 0 l 670 0 z "},"℞":{"ha":1015,"x_min":98,"x_max":960,"o":"m 98 1010 l 469 1010 q 670 970 591 1010 q 787 860 749 930 q 826 697 826 789 q 798 558 826 618 q 719 458 770 498 q 600 397 668 418 l 556 381 l 220 381 l 219 534 l 462 534 q 568 553 527 534 q 629 609 609 572 q 648 694 648 645 q 631 777 648 739 q 574 837 614 814 q 469 859 535 859 l 278 859 l 278 0 l 98 0 l 98 1010 m 791 0 l 464 452 l 629 452 l 960 0 l 791 0 m 618 0 l 471 0 l 802 452 l 944 452 l 618 0 z "},"Ɍ":{"ha":915,"x_min":9,"x_max":888,"o":"m 220 381 l 9 381 l 9 521 l 220 521 l 220 381 m 116 0 l 116 1010 l 498 1010 q 693 970 613 1010 q 813 857 772 930 q 854 687 854 784 q 812 519 854 590 q 690 409 770 448 q 493 370 609 370 l 222 370 l 222 520 l 475 520 q 585 540 542 520 q 650 597 629 559 q 671 687 671 634 q 650 780 671 741 q 585 838 629 818 q 474 859 541 859 l 297 859 l 297 0 l 116 0 m 686 0 l 444 458 l 640 458 l 888 0 l 686 0 z "},"S":{"ha":900,"x_min":61,"x_max":839,"o":"m 455 -16 q 249 22 336 -16 q 113 131 161 60 q 61 304 64 203 l 239 304 q 271 213 243 250 q 347 157 299 176 q 454 138 395 138 q 561 156 515 138 q 632 208 606 174 q 659 284 659 241 q 636 349 659 323 q 573 393 614 374 q 475 425 532 411 l 361 454 q 158 553 229 486 q 87 726 87 619 q 135 883 87 816 q 266 987 182 950 q 456 1025 350 1025 q 647 987 566 1025 q 774 882 728 949 q 823 727 821 815 l 648 727 q 590 833 642 795 q 454 871 538 871 q 356 854 398 871 q 292 806 315 836 q 269 736 269 776 q 294 669 269 696 q 358 626 318 643 q 444 598 398 609 l 541 574 q 655 536 602 559 q 751 479 709 513 q 815 397 792 444 q 839 286 839 349 q 793 127 839 195 q 662 22 747 60 q 455 -16 576 -16 z "},"Ś":{"ha":900,"x_min":61,"x_max":839,"o":"m 455 -16 q 249 22 336 -16 q 113 131 161 60 q 61 304 64 203 l 239 304 q 271 213 243 250 q 347 157 299 176 q 454 138 395 138 q 561 156 515 138 q 632 208 606 174 q 659 284 659 241 q 636 349 659 323 q 573 393 614 374 q 475 425 532 411 l 361 454 q 158 553 229 486 q 87 726 87 619 q 135 883 87 816 q 266 987 182 950 q 456 1025 350 1025 q 647 987 566 1025 q 774 882 728 949 q 823 727 821 815 l 648 727 q 590 833 642 795 q 454 871 538 871 q 356 854 398 871 q 292 806 315 836 q 269 736 269 776 q 294 669 269 696 q 358 626 318 643 q 444 598 398 609 l 541 574 q 655 536 602 559 q 751 479 709 513 q 815 397 792 444 q 839 286 839 349 q 793 127 839 195 q 662 22 747 60 q 455 -16 576 -16 m 382 1106 l 479 1314 l 652 1314 l 509 1106 l 382 1106 z "}}}
